<svg width="19" height="25" viewBox="0 0 19 25" fill="none" xmlns="http://www.w3.org/2000/svg">
<path d="M5.24803 15.7439C3.75973 15.7439 2.54883 14.5329 2.54883 13.0447C2.54883 12.7283 2.80664 12.4705 3.12303 12.4705C3.43943 12.4705 3.69723 12.7283 3.69723 13.0447C3.69723 13.9001 4.39448 14.5974 5.24998 14.5974C6.10548 14.5974 6.80273 13.9002 6.80273 13.0447C6.80273 12.7283 7.06054 12.4705 7.37693 12.4705C7.69333 12.4705 7.95113 12.7283 7.95113 13.0447C7.94722 14.533 6.73628 15.7439 5.24803 15.7439Z" fill="#4AF6CD" stroke="#4AF6CD" stroke-width="0.5"/>
<path d="M9.50001 15.7439C8.01171 15.7439 6.80081 14.5329 6.80081 13.0447C6.80081 12.7283 7.05863 12.4705 7.37501 12.4705C7.6914 12.4705 7.94921 12.7283 7.94921 13.0447C7.94921 13.9001 8.64646 14.5974 9.50196 14.5974C10.3574 14.5974 11.0547 13.9002 11.0547 13.0447C11.0547 12.7283 11.3125 12.4705 11.6289 12.4705C11.9453 12.4705 12.2031 12.7283 12.2031 13.0447C12.1992 14.533 10.9883 15.7439 9.50001 15.7439Z" fill="#4AF6CD" stroke="#4AF6CD" stroke-width="0.5"/>
<path d="M13.752 15.7439C12.2637 15.7439 11.0528 14.5329 11.0528 13.0447C11.0528 12.7283 11.3106 12.4705 11.627 12.4705C11.9434 12.4705 12.2012 12.7283 12.2012 13.0447C12.2012 13.9001 12.8985 14.5974 13.754 14.5974C14.6094 14.5974 15.3067 13.9002 15.3067 13.0447C15.3067 12.7283 15.5645 12.4705 15.8809 12.4705C16.1973 12.4705 16.4551 12.7283 16.4551 13.0447C16.4512 14.533 15.2403 15.7439 13.752 15.7439Z" fill="#4AF6CD" stroke="#4AF6CD" stroke-width="0.5"/>
<path fill-rule="evenodd" clip-rule="evenodd" d="M0.422028 15.0685C0.422028 20.0742 4.49403 24.1465 9.50003 24.1465L9.50028 24.1466C14.5061 24.1466 18.5783 20.0746 18.5803 15.0686C18.5803 8.23659 10.2367 0.795042 9.88128 0.480587C9.67228 0.295042 9.35782 0.289182 9.14103 0.464962C8.78353 0.751962 0.422028 7.59196 0.422028 15.0685ZM9.48414 1.67769C9.48423 1.67761 9.48432 1.67754 9.4844 1.67746H9.4839C9.48398 1.67754 9.48406 1.67761 9.48414 1.67769ZM9.48414 1.67769C7.86458 3.09799 1.5684 9.00179 1.5684 15.068C1.5684 19.441 5.12505 22.9975 9.4979 22.9975C13.8708 22.9975 17.4274 19.4408 17.4274 15.068C17.4294 9.52524 11.09 3.1916 9.48414 1.67769Z" fill="#4AF6CD"/>
<path d="M9.50003 24.1465L9.61251 23.9232L9.55945 23.8965H9.50003V24.1465ZM9.50028 24.1466L9.38779 24.3699L9.44086 24.3966H9.50028V24.1466ZM18.5803 15.0686L18.8303 15.0687V15.0686H18.5803ZM9.88128 0.480587L9.7153 0.667543L9.71563 0.667836L9.88128 0.480587ZM9.14103 0.464962L9.29753 0.659916L9.29848 0.659151L9.14103 0.464962ZM9.4844 1.67746L9.64874 1.86586L10.1513 1.42746H9.4844V1.67746ZM9.4839 1.67746V1.42746H8.85534L9.3122 1.85917L9.4839 1.67746ZM17.4274 15.068L17.1774 15.0679V15.068H17.4274ZM9.50003 23.8965C4.6321 23.8965 0.672028 19.9361 0.672028 15.0685H0.172028C0.172028 20.2123 4.35595 24.3965 9.50003 24.3965V23.8965ZM9.61276 23.9233L9.61251 23.9232L9.38754 24.3697L9.38779 24.3699L9.61276 23.9233ZM18.3303 15.0685C18.3284 19.9365 14.368 23.8966 9.50028 23.8966V24.3966C14.6442 24.3966 18.8283 20.2127 18.8303 15.0687L18.3303 15.0685ZM9.71563 0.667836C9.88813 0.820431 12.0498 2.74757 14.1663 5.48348C16.2911 8.23003 18.3303 11.7411 18.3303 15.0686H18.8303C18.8303 11.5641 16.6977 7.93837 14.5618 5.17754C12.4177 2.40606 10.2299 0.455199 10.0469 0.293338L9.71563 0.667836ZM9.29848 0.659151C9.4209 0.559889 9.59846 0.563816 9.7153 0.667543L10.0473 0.293632C9.74609 0.0262691 9.29474 0.0184753 8.98358 0.270774L9.29848 0.659151ZM0.672028 15.0685C0.672028 11.4168 2.71835 7.89379 4.84301 5.22641C6.96211 2.56601 9.12632 0.797364 9.29753 0.659913L8.98452 0.270011C8.79824 0.419561 6.60294 2.21441 4.45192 4.91489C2.30645 7.60839 0.172028 11.2436 0.172028 15.0685H0.672028ZM9.32007 1.48906L9.31981 1.48929L9.64848 1.86609L9.64874 1.86586L9.32007 1.48906ZM9.4839 1.92746H9.4844V1.42746H9.4839V1.92746ZM9.65585 1.49598C9.65585 1.49598 9.65585 1.49598 9.65585 1.49598C9.65585 1.49598 9.65585 1.49598 9.65585 1.49598C9.65585 1.49598 9.65585 1.49598 9.65585 1.49598C9.65585 1.49598 9.65584 1.49598 9.65584 1.49598C9.65584 1.49598 9.65584 1.49598 9.65584 1.49598C9.65584 1.49598 9.65584 1.49598 9.65584 1.49598C9.65584 1.49598 9.65584 1.49598 9.65584 1.49598C9.65584 1.49598 9.65584 1.49598 9.65584 1.49598C9.65584 1.49598 9.65584 1.49598 9.65584 1.49598C9.65584 1.49598 9.65584 1.49598 9.65584 1.49598C9.65584 1.49598 9.65584 1.49598 9.65584 1.49598C9.65584 1.49598 9.65584 1.49598 9.65584 1.49598C9.65584 1.49598 9.65584 1.49598 9.65584 1.49598C9.65584 1.49598 9.65584 1.49598 9.65584 1.49597C9.65584 1.49597 9.65584 1.49597 9.65584 1.49597C9.65584 1.49597 9.65584 1.49597 9.65584 1.49597C9.65584 1.49597 9.65584 1.49597 9.65584 1.49597C9.65584 1.49597 9.65584 1.49597 9.65584 1.49597C9.65584 1.49597 9.65584 1.49597 9.65584 1.49597C9.65584 1.49597 9.65584 1.49597 9.65584 1.49597C9.65584 1.49597 9.65584 1.49597 9.65584 1.49597C9.65584 1.49597 9.65584 1.49597 9.65584 1.49597C9.65584 1.49597 9.65584 1.49597 9.65584 1.49597C9.65584 1.49597 9.65584 1.49597 9.65584 1.49597C9.65584 1.49597 9.65584 1.49597 9.65584 1.49597C9.65584 1.49597 9.65584 1.49597 9.65583 1.49597C9.65583 1.49597 9.65583 1.49597 9.65583 1.49597C9.65583 1.49597 9.65583 1.49597 9.65583 1.49597C9.65583 1.49597 9.65583 1.49597 9.65583 1.49597C9.65583 1.49597 9.65583 1.49597 9.65583 1.49597C9.65583 1.49597 9.65583 1.49597 9.65583 1.49597C9.65583 1.49597 9.65583 1.49597 9.65583 1.49597C9.65583 1.49597 9.65583 1.49597 9.65583 1.49597C9.65583 1.49597 9.65583 1.49597 9.65583 1.49597C9.65583 1.49597 9.65583 1.49597 9.65583 1.49597C9.65583 1.49597 9.65583 1.49597 9.65583 1.49597C9.65583 1.49597 9.65583 1.49596 9.65583 1.49596C9.65583 1.49596 9.65583 1.49596 9.65583 1.49596C9.65583 1.49596 9.65583 1.49596 9.65583 1.49596C9.65583 1.49596 9.65583 1.49596 9.65583 1.49596C9.65583 1.49596 9.65583 1.49596 9.65583 1.49596C9.65583 1.49596 9.65583 1.49596 9.65583 1.49596C9.65583 1.49596 9.65583 1.49596 9.65583 1.49596C9.65583 1.49596 9.65583 1.49596 9.65583 1.49596C9.65583 1.49596 9.65583 1.49596 9.65583 1.49596C9.65583 1.49596 9.65583 1.49596 9.65583 1.49596C9.65582 1.49596 9.65582 1.49596 9.65582 1.49596C9.65582 1.49596 9.65582 1.49596 9.65582 1.49596C9.65582 1.49596 9.65582 1.49596 9.65582 1.49596C9.65582 1.49596 9.65582 1.49596 9.65582 1.49596C9.65582 1.49596 9.65582 1.49596 9.65582 1.49596C9.65582 1.49596 9.65582 1.49596 9.65582 1.49596C9.65582 1.49596 9.65582 1.49596 9.65582 1.49596C9.65582 1.49596 9.65582 1.49596 9.65582 1.49596C9.65582 1.49596 9.65582 1.49596 9.65582 1.49596C9.65582 1.49596 9.65582 1.49596 9.65582 1.49596C9.65582 1.49596 9.65582 1.49596 9.65582 1.49596C9.65582 1.49596 9.65582 1.49596 9.65582 1.49596C9.65582 1.49596 9.65582 1.49596 9.65582 1.49595C9.65582 1.49595 9.65582 1.49595 9.65582 1.49595C9.65582 1.49595 9.65582 1.49595 9.65582 1.49595C9.65582 1.49595 9.65582 1.49595 9.65582 1.49595C9.65582 1.49595 9.65582 1.49595 9.65582 1.49595C9.65582 1.49595 9.65582 1.49595 9.65582 1.49595C9.65582 1.49595 9.65582 1.49595 9.65582 1.49595C9.65582 1.49595 9.65582 1.49595 9.65582 1.49595C9.65582 1.49595 9.65582 1.49595 9.65582 1.49595C9.65582 1.49595 9.65582 1.49595 9.65582 1.49595C9.65582 1.49595 9.65581 1.49595 9.65581 1.49595C9.65581 1.49595 9.65581 1.49595 9.65581 1.49595C9.65581 1.49595 9.65581 1.49595 9.65581 1.49595C9.65581 1.49595 9.65581 1.49595 9.65581 1.49595C9.65581 1.49595 9.65581 1.49595 9.65581 1.49595C9.65581 1.49595 9.65581 1.49595 9.65581 1.49595C9.65581 1.49595 9.65581 1.49595 9.65581 1.49595C9.65581 1.49595 9.65581 1.49595 9.65581 1.49595C9.65581 1.49595 9.65581 1.49595 9.65581 1.49595C9.65581 1.49595 9.65581 1.49595 9.65581 1.49595C9.65581 1.49595 9.65581 1.49595 9.65581 1.49595C9.65581 1.49595 9.65581 1.49595 9.65581 1.49595C9.65581 1.49595 9.65581 1.49595 9.65581 1.49595C9.65581 1.49595 9.65581 1.49594 9.65581 1.49594C9.65581 1.49594 9.65581 1.49594 9.65581 1.49594C9.65581 1.49594 9.65581 1.49594 9.65581 1.49594C9.65581 1.49594 9.65581 1.49594 9.65581 1.49594C9.65581 1.49594 9.65581 1.49594 9.65581 1.49594C9.65581 1.49594 9.65581 1.49594 9.65581 1.49594C9.65581 1.49594 9.65581 1.49594 9.65581 1.49594C9.65581 1.49594 9.65581 1.49594 9.6558 1.49594C9.6558 1.49594 9.6558 1.49594 9.6558 1.49594C9.6558 1.49594 9.6558 1.49594 9.6558 1.49594C9.6558 1.49594 9.6558 1.49594 9.6558 1.49594C9.6558 1.49594 9.6558 1.49594 9.6558 1.49594C9.6558 1.49594 9.6558 1.49594 9.6558 1.49594C9.6558 1.49594 9.6558 1.49594 9.6558 1.49594C9.6558 1.49594 9.6558 1.49594 9.6558 1.49594C9.6558 1.49594 9.6558 1.49594 9.6558 1.49594C9.6558 1.49594 9.6558 1.49594 9.6558 1.49594C9.6558 1.49594 9.6558 1.49594 9.6558 1.49594C9.6558 1.49594 9.6558 1.49594 9.6558 1.49594C9.6558 1.49594 9.6558 1.49594 9.6558 1.49594C9.6558 1.49594 9.6558 1.49594 9.6558 1.49594C9.6558 1.49594 9.6558 1.49594 9.6558 1.49594C9.6558 1.49594 9.6558 1.49594 9.6558 1.49593C9.6558 1.49593 9.6558 1.49593 9.6558 1.49593C9.6558 1.49593 9.6558 1.49593 9.6558 1.49593C9.6558 1.49593 9.6558 1.49593 9.6558 1.49593C9.6558 1.49593 9.6558 1.49593 9.6558 1.49593C9.6558 1.49593 9.6558 1.49593 9.6558 1.49593C9.6558 1.49593 9.6558 1.49593 9.6558 1.49593C9.6558 1.49593 9.6558 1.49593 9.6558 1.49593C9.65579 1.49593 9.65579 1.49593 9.65579 1.49593C9.65579 1.49593 9.65579 1.49593 9.65579 1.49593C9.65579 1.49593 9.65579 1.49593 9.65579 1.49593C9.65579 1.49593 9.65579 1.49593 9.65579 1.49593C9.65579 1.49593 9.65579 1.49593 9.65579 1.49593C9.65579 1.49593 9.65579 1.49593 9.65579 1.49593C9.65579 1.49593 9.65579 1.49593 9.65579 1.49593C9.65579 1.49593 9.65579 1.49593 9.65579 1.49593C9.65579 1.49593 9.65579 1.49593 9.65579 1.49593C9.65579 1.49593 9.65579 1.49593 9.65579 1.49593C9.65579 1.49593 9.65579 1.49593 9.65579 1.49593C9.65579 1.49593 9.65579 1.49593 9.65579 1.49593C9.65579 1.49593 9.65579 1.49593 9.65579 1.49593C9.65579 1.49593 9.65579 1.49593 9.65579 1.49593C9.65579 1.49593 9.65579 1.49593 9.65579 1.49593C9.65579 1.49593 9.65579 1.49592 9.65579 1.49592C9.65579 1.49592 9.65579 1.49592 9.65579 1.49592C9.65579 1.49592 9.65579 1.49592 9.65579 1.49592C9.65579 1.49592 9.65579 1.49592 9.65579 1.49592C9.65579 1.49592 9.65579 1.49592 9.65579 1.49592C9.65579 1.49592 9.65578 1.49592 9.65578 1.49592C9.65578 1.49592 9.65578 1.49592 9.65578 1.49592C9.65578 1.49592 9.65578 1.49592 9.65578 1.49592C9.65578 1.49592 9.65578 1.49592 9.65578 1.49592C9.65578 1.49592 9.65578 1.49592 9.65578 1.49592C9.65578 1.49592 9.65578 1.49592 9.65578 1.49592C9.65578 1.49592 9.65578 1.49592 9.65578 1.49592C9.65578 1.49592 9.65578 1.49592 9.65578 1.49592C9.65578 1.49592 9.65578 1.49592 9.65578 1.49592C9.65578 1.49592 9.65578 1.49592 9.65578 1.49592C9.65578 1.49592 9.65578 1.49592 9.65578 1.49592C9.65578 1.49592 9.65578 1.49592 9.65578 1.49592C9.65578 1.49592 9.65578 1.49592 9.65578 1.49592C9.65578 1.49592 9.65578 1.49592 9.65578 1.49592C9.65578 1.49592 9.65578 1.49592 9.65578 1.49592C9.65578 1.49592 9.65578 1.49592 9.65578 1.49592C9.65578 1.49592 9.65578 1.49592 9.65578 1.49592C9.65578 1.49592 9.65578 1.49592 9.65578 1.49592C9.65578 1.49591 9.65578 1.49591 9.65578 1.49591C9.65578 1.49591 9.65578 1.49591 9.65578 1.49591C9.65578 1.49591 9.65578 1.49591 9.65578 1.49591C9.65578 1.49591 9.65578 1.49591 9.65578 1.49591C9.65578 1.49591 9.65578 1.49591 9.65577 1.49591C9.65577 1.49591 9.65577 1.49591 9.65577 1.49591C9.65577 1.49591 9.65577 1.49591 9.65577 1.49591C9.65577 1.49591 9.65577 1.49591 9.65577 1.49591C9.65577 1.49591 9.65577 1.49591 9.65577 1.49591C9.65577 1.49591 9.65577 1.49591 9.65577 1.49591C9.65577 1.49591 9.65577 1.49591 9.65577 1.49591C9.65577 1.49591 9.65577 1.49591 9.65577 1.49591C9.65577 1.49591 9.65577 1.49591 9.65577 1.49591C9.65577 1.49591 9.65577 1.49591 9.65577 1.49591C9.65577 1.49591 9.65577 1.49591 9.65577 1.49591C9.65577 1.49591 9.65577 1.49591 9.65577 1.49591C9.65577 1.49591 9.65577 1.49591 9.65577 1.49591C9.65577 1.49591 9.65577 1.49591 9.65577 1.49591C9.65577 1.49591 9.65577 1.49591 9.65577 1.49591C9.65577 1.49591 9.65577 1.49591 9.65577 1.49591C9.65577 1.49591 9.65577 1.49591 9.65577 1.49591C9.65577 1.49591 9.65577 1.49591 9.65577 1.49591C9.65577 1.49591 9.65577 1.49591 9.65577 1.4959C9.65577 1.4959 9.65577 1.4959 9.65577 1.4959C9.65577 1.4959 9.65577 1.4959 9.65577 1.4959C9.65576 1.4959 9.65576 1.4959 9.65576 1.4959C9.65576 1.4959 9.65576 1.4959 9.65576 1.4959C9.65576 1.4959 9.65576 1.4959 9.65576 1.4959C9.65576 1.4959 9.65576 1.4959 9.65576 1.4959C9.65576 1.4959 9.65576 1.4959 9.65576 1.4959C9.65576 1.4959 9.65576 1.4959 9.65576 1.4959C9.65576 1.4959 9.65576 1.4959 9.65576 1.4959C9.65576 1.4959 9.65576 1.4959 9.65576 1.4959C9.65576 1.4959 9.65576 1.4959 9.65576 1.4959C9.65576 1.4959 9.65576 1.4959 9.65576 1.4959C9.65576 1.4959 9.65576 1.4959 9.65576 1.4959C9.65576 1.4959 9.65576 1.4959 9.65576 1.4959C9.65576 1.4959 9.65576 1.4959 9.65576 1.4959C9.65576 1.4959 9.65576 1.4959 9.65576 1.4959C9.65576 1.4959 9.65576 1.4959 9.65576 1.4959C9.65576 1.4959 9.65576 1.4959 9.65576 1.4959C9.65576 1.4959 9.65576 1.4959 9.65576 1.4959C9.65576 1.4959 9.65576 1.4959 9.65576 1.4959C9.65576 1.4959 9.65576 1.4959 9.65576 1.4959C9.65576 1.4959 9.65576 1.4959 9.65576 1.4959C9.65576 1.49589 9.65576 1.49589 9.65576 1.49589C9.65576 1.49589 9.65576 1.49589 9.65576 1.49589C9.65576 1.49589 9.65575 1.49589 9.65575 1.49589C9.65575 1.49589 9.65575 1.49589 9.65575 1.49589C9.65575 1.49589 9.65575 1.49589 9.65575 1.49589C9.65575 1.49589 9.65575 1.49589 9.65575 1.49589C9.65575 1.49589 9.65575 1.49589 9.65575 1.49589C9.65575 1.49589 9.65575 1.49589 9.65575 1.49589C9.65575 1.49589 9.65575 1.49589 9.65575 1.49589C9.65575 1.49589 9.65575 1.49589 9.65575 1.49589C9.65575 1.49589 9.65575 1.49589 9.65575 1.49589C9.65575 1.49589 9.65575 1.49589 9.65575 1.49589C9.65575 1.49589 9.65575 1.49589 9.65575 1.49589C9.65575 1.49589 9.65575 1.49589 9.65575 1.49589C9.65575 1.49589 9.65575 1.49589 9.65575 1.49589C9.65575 1.49589 9.65575 1.49589 9.65575 1.49589C9.65575 1.49589 9.65575 1.49589 9.65575 1.49589C9.65575 1.49589 9.65575 1.49589 9.65575 1.49589C9.65575 1.49589 9.65575 1.49589 9.65575 1.49589C9.65575 1.49589 9.65575 1.49589 9.65575 1.49589C9.65575 1.49589 9.65575 1.49589 9.65575 1.49589C9.65575 1.49589 9.65575 1.49589 9.65575 1.49589C9.65575 1.49589 9.65575 1.49589 9.65574 1.49588C9.65574 1.49588 9.65574 1.49588 9.65574 1.49588C9.65574 1.49588 9.65574 1.49588 9.65574 1.49588C9.65574 1.49588 9.65574 1.49588 9.65574 1.49588C9.65574 1.49588 9.65574 1.49588 9.65574 1.49588C9.65574 1.49588 9.65574 1.49588 9.65574 1.49588C9.65574 1.49588 9.65574 1.49588 9.65574 1.49588C9.65574 1.49588 9.65574 1.49588 9.65574 1.49588C9.65574 1.49588 9.65574 1.49588 9.65574 1.49588C9.65574 1.49588 9.65574 1.49588 9.65574 1.49588C9.65574 1.49588 9.65574 1.49588 9.65574 1.49588C9.65574 1.49588 9.65574 1.49588 9.65574 1.49588C9.65574 1.49588 9.65574 1.49588 9.65574 1.49588C9.65574 1.49588 9.65574 1.49588 9.65574 1.49588C9.65574 1.49588 9.65574 1.49588 9.65574 1.49588C9.65574 1.49588 9.65574 1.49588 9.65574 1.49588C9.65574 1.49588 9.65574 1.49588 9.65574 1.49588C9.65574 1.49588 9.65574 1.49588 9.65574 1.49588C9.65574 1.49588 9.65574 1.49588 9.65574 1.49588C9.65574 1.49588 9.65574 1.49588 9.65574 1.49588C9.65574 1.49588 9.65574 1.49588 9.65574 1.49588C9.65574 1.49588 9.65574 1.49588 9.65574 1.49588C9.65574 1.49588 9.65574 1.49588 9.65574 1.49588C9.65573 1.49588 9.65573 1.49587 9.65573 1.49587C9.65573 1.49587 9.65573 1.49587 9.65573 1.49587C9.65573 1.49587 9.65573 1.49587 9.65573 1.49587C9.65573 1.49587 9.65573 1.49587 9.65573 1.49587C9.65573 1.49587 9.65573 1.49587 9.65573 1.49587C9.65573 1.49587 9.65573 1.49587 9.65573 1.49587C9.65573 1.49587 9.65573 1.49587 9.65573 1.49587C9.65573 1.49587 9.65573 1.49587 9.65573 1.49587C9.65573 1.49587 9.65573 1.49587 9.65573 1.49587C9.65573 1.49587 9.65573 1.49587 9.65573 1.49587C9.65573 1.49587 9.65573 1.49587 9.65573 1.49587C9.65573 1.49587 9.65573 1.49587 9.65573 1.49587C9.65573 1.49587 9.65573 1.49587 9.65573 1.49587C9.65573 1.49587 9.65573 1.49587 9.65573 1.49587C9.65573 1.49587 9.65573 1.49587 9.65573 1.49587C9.65573 1.49587 9.65573 1.49587 9.65573 1.49587C9.65573 1.49587 9.65573 1.49587 9.65573 1.49587C9.65573 1.49587 9.65573 1.49587 9.65573 1.49587C9.65573 1.49587 9.65573 1.49587 9.65573 1.49587C9.65573 1.49587 9.65573 1.49587 9.65573 1.49587C9.65573 1.49587 9.65572 1.49587 9.65572 1.49587C9.65572 1.49587 9.65572 1.49587 9.65572 1.49587C9.65572 1.49587 9.65572 1.49587 9.65572 1.49586C9.65572 1.49586 9.65572 1.49586 9.65572 1.49586C9.65572 1.49586 9.65572 1.49586 9.65572 1.49586C9.65572 1.49586 9.65572 1.49586 9.65572 1.49586C9.65572 1.49586 9.65572 1.49586 9.65572 1.49586C9.65572 1.49586 9.65572 1.49586 9.65572 1.49586C9.65572 1.49586 9.65572 1.49586 9.65572 1.49586C9.65572 1.49586 9.65572 1.49586 9.65572 1.49586C9.65572 1.49586 9.65572 1.49586 9.65572 1.49586C9.65572 1.49586 9.65572 1.49586 9.65572 1.49586C9.65572 1.49586 9.65572 1.49586 9.65572 1.49586C9.65572 1.49586 9.65572 1.49586 9.65572 1.49586C9.65572 1.49586 9.65572 1.49586 9.65572 1.49586C9.65572 1.49586 9.65572 1.49586 9.65572 1.49586C9.65572 1.49586 9.65572 1.49586 9.65572 1.49586C9.65572 1.49586 9.65572 1.49586 9.65572 1.49586C9.65572 1.49586 9.65572 1.49586 9.65572 1.49586C9.65572 1.49586 9.65572 1.49586 9.65572 1.49586C9.65572 1.49586 9.65572 1.49586 9.65571 1.49586C9.65571 1.49586 9.65571 1.49586 9.65571 1.49586C9.65571 1.49586 9.65571 1.49586 9.65571 1.49586C9.65571 1.49586 9.65571 1.49586 9.65571 1.49586C9.65571 1.49586 9.65571 1.49586 9.65571 1.49586C9.65571 1.49586 9.65571 1.49585 9.65571 1.49585C9.65571 1.49585 9.65571 1.49585 9.65571 1.49585C9.65571 1.49585 9.65571 1.49585 9.65571 1.49585C9.65571 1.49585 9.65571 1.49585 9.65571 1.49585C9.65571 1.49585 9.65571 1.49585 9.65571 1.49585C9.65571 1.49585 9.65571 1.49585 9.65571 1.49585C9.65571 1.49585 9.65571 1.49585 9.65571 1.49585C9.65571 1.49585 9.65571 1.49585 9.65571 1.49585C9.65571 1.49585 9.65571 1.49585 9.65571 1.49585C9.65571 1.49585 9.65571 1.49585 9.65571 1.49585C9.65571 1.49585 9.65571 1.49585 9.65571 1.49585C9.65571 1.49585 9.65571 1.49585 9.65571 1.49585C9.65571 1.49585 9.65571 1.49585 9.65571 1.49585C9.65571 1.49585 9.65571 1.49585 9.65571 1.49585C9.65571 1.49585 9.65571 1.49585 9.65571 1.49585C9.65571 1.49585 9.65571 1.49585 9.65571 1.49585C9.65571 1.49585 9.65571 1.49585 9.65571 1.49585C9.65571 1.49585 9.65571 1.49585 9.65571 1.49585C9.6557 1.49585 9.6557 1.49585 9.6557 1.49585C9.6557 1.49585 9.6557 1.49585 9.6557 1.49585C9.6557 1.49585 9.6557 1.49585 9.6557 1.49585C9.6557 1.49585 9.6557 1.49585 9.6557 1.49585C9.6557 1.49585 9.6557 1.49585 9.6557 1.49584C9.6557 1.49584 9.6557 1.49584 9.6557 1.49584C9.6557 1.49584 9.6557 1.49584 9.6557 1.49584C9.6557 1.49584 9.6557 1.49584 9.6557 1.49584C9.6557 1.49584 9.6557 1.49584 9.6557 1.49584C9.6557 1.49584 9.6557 1.49584 9.6557 1.49584C9.6557 1.49584 9.6557 1.49584 9.6557 1.49584C9.6557 1.49584 9.6557 1.49584 9.6557 1.49584C9.6557 1.49584 9.6557 1.49584 9.6557 1.49584C9.6557 1.49584 9.6557 1.49584 9.6557 1.49584C9.6557 1.49584 9.6557 1.49584 9.6557 1.49584C9.6557 1.49584 9.6557 1.49584 9.6557 1.49584C9.6557 1.49584 9.6557 1.49584 9.6557 1.49584C9.6557 1.49584 9.6557 1.49584 9.6557 1.49584C9.6557 1.49584 9.6557 1.49584 9.6557 1.49584C9.6557 1.49584 9.6557 1.49584 9.6557 1.49584C9.6557 1.49584 9.65569 1.49584 9.65569 1.49584C9.65569 1.49584 9.65569 1.49584 9.65569 1.49584C9.65569 1.49584 9.65569 1.49584 9.65569 1.49584C9.65569 1.49584 9.65569 1.49584 9.65569 1.49584C9.65569 1.49584 9.65569 1.49584 9.65569 1.49584C9.65569 1.49584 9.65569 1.49584 9.65569 1.49584C9.65569 1.49584 9.65569 1.49584 9.65569 1.49584C9.65569 1.49584 9.65569 1.49583 9.65569 1.49583C9.65569 1.49583 9.65569 1.49583 9.65569 1.49583C9.65569 1.49583 9.65569 1.49583 9.65569 1.49583C9.65569 1.49583 9.65569 1.49583 9.65569 1.49583C9.65569 1.49583 9.65569 1.49583 9.65569 1.49583C9.65569 1.49583 9.65569 1.49583 9.65569 1.49583C9.65569 1.49583 9.65569 1.49583 9.65569 1.49583C9.65569 1.49583 9.65569 1.49583 9.65569 1.49583C9.65569 1.49583 9.65569 1.49583 9.65569 1.49583C9.65569 1.49583 9.65569 1.49583 9.65569 1.49583C9.65569 1.49583 9.65569 1.49583 9.65569 1.49583C9.65569 1.49583 9.65569 1.49583 9.65569 1.49583C9.65569 1.49583 9.65569 1.49583 9.65569 1.49583C9.65569 1.49583 9.65569 1.49583 9.65569 1.49583C9.65569 1.49583 9.65569 1.49583 9.65569 1.49583C9.65569 1.49583 9.65569 1.49583 9.65568 1.49583C9.65568 1.49583 9.65568 1.49583 9.65568 1.49583C9.65568 1.49583 9.65568 1.49583 9.65568 1.49583C9.65568 1.49583 9.65568 1.49583 9.65568 1.49583C9.65568 1.49583 9.65568 1.49583 9.65568 1.49583C9.65568 1.49583 9.65568 1.49583 9.65568 1.49583C9.65568 1.49583 9.65568 1.49583 9.65568 1.49583C9.65568 1.49583 9.65568 1.49583 9.65568 1.49583C9.65568 1.49582 9.65568 1.49582 9.65568 1.49582C9.65568 1.49582 9.65568 1.49582 9.65568 1.49582C9.65568 1.49582 9.65568 1.49582 9.65568 1.49582C9.65568 1.49582 9.65568 1.49582 9.65568 1.49582C9.65568 1.49582 9.65568 1.49582 9.65568 1.49582C9.65568 1.49582 9.65568 1.49582 9.65568 1.49582C9.65568 1.49582 9.65568 1.49582 9.65568 1.49582C9.65568 1.49582 9.65568 1.49582 9.65568 1.49582C9.65568 1.49582 9.65568 1.49582 9.65568 1.49582C9.65568 1.49582 9.65568 1.49582 9.65568 1.49582C9.65568 1.49582 9.65568 1.49582 9.65568 1.49582C9.65568 1.49582 9.65568 1.49582 9.65568 1.49582C9.65568 1.49582 9.65568 1.49582 9.65568 1.49582C9.65567 1.49582 9.65567 1.49582 9.65567 1.49582C9.65567 1.49582 9.65567 1.49582 9.65567 1.49582C9.65567 1.49582 9.65567 1.49582 9.65567 1.49582C9.65567 1.49582 9.65567 1.49582 9.65567 1.49582C9.65567 1.49582 9.65567 1.49582 9.65567 1.49582C9.65567 1.49582 9.65567 1.49582 9.65567 1.49582C9.65567 1.49582 9.65567 1.49582 9.65567 1.49582C9.65567 1.49582 9.65567 1.49582 9.65567 1.49582C9.65567 1.49582 9.65567 1.49582 9.65567 1.49582C9.65567 1.49582 9.65567 1.49581 9.65567 1.49581C9.65567 1.49581 9.65567 1.49581 9.65567 1.49581C9.65567 1.49581 9.65567 1.49581 9.65567 1.49581C9.65567 1.49581 9.65567 1.49581 9.65567 1.49581C9.65567 1.49581 9.65567 1.49581 9.65567 1.49581C9.65567 1.49581 9.65567 1.49581 9.65567 1.49581C9.65567 1.49581 9.65567 1.49581 9.65567 1.49581C9.65567 1.49581 9.65567 1.49581 9.65567 1.49581C9.65567 1.49581 9.65567 1.49581 9.65567 1.49581C9.65567 1.49581 9.65567 1.49581 9.65567 1.49581C9.65567 1.49581 9.65567 1.49581 9.65567 1.49581C9.65567 1.49581 9.65567 1.49581 9.65567 1.49581C9.65567 1.49581 9.65567 1.49581 9.65567 1.49581C9.65567 1.49581 9.65566 1.49581 9.65566 1.49581C9.65566 1.49581 9.65566 1.49581 9.65566 1.49581C9.65566 1.49581 9.65566 1.49581 9.65566 1.49581C9.65566 1.49581 9.65566 1.49581 9.65566 1.49581C9.65566 1.49581 9.65566 1.49581 9.65566 1.49581C9.65566 1.49581 9.65566 1.49581 9.65566 1.49581C9.65566 1.49581 9.65566 1.49581 9.65566 1.49581C9.65566 1.49581 9.65566 1.49581 9.65566 1.49581C9.65566 1.49581 9.65566 1.49581 9.65566 1.49581C9.65566 1.49581 9.65566 1.49581 9.65566 1.49581C9.65566 1.4958 9.65566 1.4958 9.65566 1.4958C9.65566 1.4958 9.65566 1.4958 9.65566 1.4958C9.65566 1.4958 9.65566 1.4958 9.65566 1.4958C9.65566 1.4958 9.65566 1.4958 9.65566 1.4958C9.65566 1.4958 9.65566 1.4958 9.65566 1.4958C9.65566 1.4958 9.65566 1.4958 9.65566 1.4958C9.65566 1.4958 9.65566 1.4958 9.65566 1.4958C9.65566 1.4958 9.65566 1.4958 9.65566 1.4958C9.65566 1.4958 9.65566 1.4958 9.65566 1.4958C9.65566 1.4958 9.65566 1.4958 9.65566 1.4958C9.65566 1.4958 9.65566 1.4958 9.65565 1.4958C9.65565 1.4958 9.65565 1.4958 9.65565 1.4958C9.65565 1.4958 9.65565 1.4958 9.65565 1.4958C9.65565 1.4958 9.65565 1.4958 9.65565 1.4958C9.65565 1.4958 9.65565 1.4958 9.65565 1.4958C9.65565 1.4958 9.65565 1.4958 9.65565 1.4958C9.65565 1.4958 9.65565 1.4958 9.65565 1.4958C9.65565 1.4958 9.65565 1.4958 9.65565 1.4958C9.65565 1.4958 9.65565 1.4958 9.65565 1.4958C9.65565 1.4958 9.65565 1.4958 9.65565 1.4958C9.65565 1.4958 9.65565 1.4958 9.65565 1.4958C9.65565 1.4958 9.65565 1.4958 9.65565 1.4958C9.65565 1.4958 9.65565 1.4958 9.65565 1.49579C9.65565 1.49579 9.65565 1.49579 9.65565 1.49579C9.65565 1.49579 9.65565 1.49579 9.65565 1.49579C9.65565 1.49579 9.65565 1.49579 9.65565 1.49579C9.65565 1.49579 9.65565 1.49579 9.65565 1.49579C9.65565 1.49579 9.65565 1.49579 9.65565 1.49579C9.65565 1.49579 9.65565 1.49579 9.65565 1.49579C9.65565 1.49579 9.65565 1.49579 9.65565 1.49579C9.65565 1.49579 9.65565 1.49579 9.65565 1.49579C9.65565 1.49579 9.65565 1.49579 9.65565 1.49579C9.65565 1.49579 9.65565 1.49579 9.65565 1.49579C9.65564 1.49579 9.65564 1.49579 9.65564 1.49579C9.65564 1.49579 9.65564 1.49579 9.65564 1.49579C9.65564 1.49579 9.65564 1.49579 9.65564 1.49579C9.65564 1.49579 9.65564 1.49579 9.65564 1.49579C9.65564 1.49579 9.65564 1.49579 9.65564 1.49579C9.65564 1.49579 9.65564 1.49579 9.65564 1.49579C9.65564 1.49579 9.65564 1.49579 9.65564 1.49579C9.65564 1.49579 9.65564 1.49579 9.65564 1.49579C9.65564 1.49579 9.65564 1.49579 9.65564 1.49579C9.65564 1.49579 9.65564 1.49579 9.65564 1.49579C9.65564 1.49579 9.65564 1.49579 9.65564 1.49579C9.65564 1.49579 9.65564 1.49579 9.65564 1.49579C9.65564 1.49578 9.65564 1.49578 9.65564 1.49578C9.65564 1.49578 9.65564 1.49578 9.65564 1.49578C9.65564 1.49578 9.65564 1.49578 9.65564 1.49578C9.65564 1.49578 9.65564 1.49578 9.65564 1.49578C9.65564 1.49578 9.65564 1.49578 9.65564 1.49578C9.65564 1.49578 9.65564 1.49578 9.65564 1.49578C9.65564 1.49578 9.65564 1.49578 9.65564 1.49578C9.65564 1.49578 9.65564 1.49578 9.65564 1.49578C9.65564 1.49578 9.65563 1.49578 9.65563 1.49578C9.65563 1.49578 9.65563 1.49578 9.65563 1.49578C9.65563 1.49578 9.65563 1.49578 9.65563 1.49578C9.65563 1.49578 9.65563 1.49578 9.65563 1.49578C9.65563 1.49578 9.65563 1.49578 9.65563 1.49578C9.65563 1.49578 9.65563 1.49578 9.65563 1.49578C9.65563 1.49578 9.65563 1.49578 9.65563 1.49578C9.65563 1.49578 9.65563 1.49578 9.65563 1.49578C9.65563 1.49578 9.65563 1.49578 9.65563 1.49578C9.65563 1.49578 9.65563 1.49578 9.65563 1.49578C9.65563 1.49578 9.65563 1.49578 9.65563 1.49578C9.65563 1.49578 9.65563 1.49578 9.65563 1.49578C9.65563 1.49578 9.65563 1.49578 9.65563 1.49578C9.65563 1.49578 9.65563 1.49578 9.65563 1.49578C9.65563 1.49578 9.65563 1.49578 9.65563 1.49577C9.65563 1.49577 9.65563 1.49577 9.65563 1.49577C9.65563 1.49577 9.65563 1.49577 9.65563 1.49577C9.65563 1.49577 9.65563 1.49577 9.65563 1.49577C9.65563 1.49577 9.65563 1.49577 9.65563 1.49577C9.65563 1.49577 9.65563 1.49577 9.65563 1.49577C9.65563 1.49577 9.65563 1.49577 9.65563 1.49577C9.65563 1.49577 9.65563 1.49577 9.65563 1.49577C9.65563 1.49577 9.65563 1.49577 9.65562 1.49577C9.65562 1.49577 9.65562 1.49577 9.65562 1.49577C9.65562 1.49577 9.65562 1.49577 9.65562 1.49577C9.65562 1.49577 9.65562 1.49577 9.65562 1.49577C9.65562 1.49577 9.65562 1.49577 9.65562 1.49577C9.65562 1.49577 9.65562 1.49577 9.65562 1.49577C9.65562 1.49577 9.65562 1.49577 9.65562 1.49577C9.65562 1.49577 9.65562 1.49577 9.65562 1.49577C9.65562 1.49577 9.65562 1.49577 9.65562 1.49577C9.65562 1.49577 9.65562 1.49577 9.65562 1.49577C9.65562 1.49577 9.65562 1.49577 9.65562 1.49577C9.65562 1.49577 9.65562 1.49577 9.65562 1.49577C9.65562 1.49577 9.65562 1.49577 9.65562 1.49577C9.65562 1.49577 9.65562 1.49577 9.65562 1.49577C9.65562 1.49577 9.65562 1.49577 9.65562 1.49577C9.65562 1.49576 9.65562 1.49576 9.65562 1.49576C9.65562 1.49576 9.65562 1.49576 9.65562 1.49576C9.65562 1.49576 9.65562 1.49576 9.65562 1.49576C9.65562 1.49576 9.65562 1.49576 9.65562 1.49576C9.65562 1.49576 9.65562 1.49576 9.65562 1.49576C9.65562 1.49576 9.65562 1.49576 9.65562 1.49576C9.65561 1.49576 9.65561 1.49576 9.65561 1.49576C9.65561 1.49576 9.65561 1.49576 9.65561 1.49576C9.65561 1.49576 9.65561 1.49576 9.65561 1.49576C9.65561 1.49576 9.65561 1.49576 9.65561 1.49576C9.65561 1.49576 9.65561 1.49576 9.65561 1.49576C9.65561 1.49576 9.65561 1.49576 9.65561 1.49576C9.65561 1.49576 9.65561 1.49576 9.65561 1.49576C9.65561 1.49576 9.65561 1.49576 9.65561 1.49576C9.65561 1.49576 9.65561 1.49576 9.65561 1.49576C9.65561 1.49576 9.65561 1.49576 9.65561 1.49576C9.65561 1.49576 9.65561 1.49576 9.65561 1.49576C9.65561 1.49576 9.65561 1.49576 9.65561 1.49576C9.65561 1.49576 9.65561 1.49576 9.65561 1.49576C9.65561 1.49576 9.65561 1.49576 9.65561 1.49576C9.65561 1.49576 9.65561 1.49576 9.65561 1.49576C9.65561 1.49576 9.65561 1.49576 9.65561 1.49576C9.65561 1.49576 9.65561 1.49576 9.65561 1.49575C9.65561 1.49575 9.65561 1.49575 9.65561 1.49575C9.65561 1.49575 9.65561 1.49575 9.65561 1.49575L9.3122 1.85917C9.3122 1.85917 9.3122 1.85917 9.3122 1.85917C9.3122 1.85917 9.3122 1.85917 9.3122 1.85917C9.3122 1.85917 9.3122 1.85917 9.3122 1.85917C9.3122 1.85917 9.3122 1.85917 9.3122 1.85917C9.3122 1.85917 9.3122 1.85917 9.3122 1.85917C9.3122 1.85917 9.3122 1.85917 9.3122 1.85917C9.3122 1.85917 9.3122 1.85917 9.3122 1.85917C9.3122 1.85917 9.3122 1.85917 9.3122 1.85917C9.3122 1.85917 9.3122 1.85917 9.3122 1.85917C9.3122 1.85917 9.3122 1.85917 9.3122 1.85918C9.3122 1.85918 9.3122 1.85918 9.3122 1.85918C9.3122 1.85918 9.31221 1.85918 9.31221 1.85918C9.31221 1.85918 9.31221 1.85918 9.31221 1.85918C9.31221 1.85918 9.31221 1.85918 9.31221 1.85918C9.31221 1.85918 9.31221 1.85918 9.31221 1.85918C9.31221 1.85918 9.31221 1.85918 9.31221 1.85918C9.31221 1.85918 9.31221 1.85918 9.31221 1.85918C9.31221 1.85918 9.31221 1.85918 9.31221 1.85918C9.31221 1.85918 9.31221 1.85918 9.31221 1.85918C9.31221 1.85918 9.31221 1.85918 9.31221 1.85918C9.31221 1.85918 9.31221 1.85918 9.31221 1.85918C9.31221 1.85918 9.31221 1.85918 9.31221 1.85918C9.31221 1.85918 9.31221 1.85918 9.31221 1.85918C9.31221 1.85918 9.31221 1.85918 9.31221 1.85918C9.31221 1.85918 9.31221 1.85918 9.31221 1.85918C9.31221 1.85918 9.31221 1.85918 9.31221 1.85918C9.31221 1.85918 9.31221 1.85918 9.31221 1.85918C9.31221 1.85918 9.31221 1.85918 9.31221 1.85918C9.31221 1.85918 9.31221 1.85918 9.31221 1.85918C9.31221 1.85918 9.31221 1.85918 9.31221 1.85918C9.31221 1.85918 9.31221 1.85918 9.31221 1.85918C9.31221 1.85918 9.31221 1.85918 9.31221 1.85918C9.31221 1.85918 9.31221 1.85919 9.31221 1.85919C9.31221 1.85919 9.31221 1.85919 9.31222 1.85919C9.31222 1.85919 9.31222 1.85919 9.31222 1.85919C9.31222 1.85919 9.31222 1.85919 9.31222 1.85919C9.31222 1.85919 9.31222 1.85919 9.31222 1.85919C9.31222 1.85919 9.31222 1.85919 9.31222 1.85919C9.31222 1.85919 9.31222 1.85919 9.31222 1.85919C9.31222 1.85919 9.31222 1.85919 9.31222 1.85919C9.31222 1.85919 9.31222 1.85919 9.31222 1.85919C9.31222 1.85919 9.31222 1.85919 9.31222 1.85919C9.31222 1.85919 9.31222 1.85919 9.31222 1.85919C9.31222 1.85919 9.31222 1.85919 9.31222 1.85919C9.31222 1.85919 9.31222 1.85919 9.31222 1.85919C9.31222 1.85919 9.31222 1.85919 9.31222 1.85919C9.31222 1.85919 9.31222 1.85919 9.31222 1.85919C9.31222 1.85919 9.31222 1.85919 9.31222 1.85919C9.31222 1.85919 9.31222 1.85919 9.31222 1.85919C9.31222 1.85919 9.31222 1.85919 9.31222 1.85919C9.31222 1.85919 9.31222 1.85919 9.31222 1.85919C9.31222 1.85919 9.31222 1.85919 9.31222 1.85919C9.31222 1.85919 9.31222 1.85919 9.31222 1.85919C9.31222 1.85919 9.31222 1.85919 9.31222 1.85919C9.31223 1.85919 9.31223 1.85919 9.31223 1.85919C9.31223 1.8592 9.31223 1.8592 9.31223 1.8592C9.31223 1.8592 9.31223 1.8592 9.31223 1.8592C9.31223 1.8592 9.31223 1.8592 9.31223 1.8592C9.31223 1.8592 9.31223 1.8592 9.31223 1.8592C9.31223 1.8592 9.31223 1.8592 9.31223 1.8592C9.31223 1.8592 9.31223 1.8592 9.31223 1.8592C9.31223 1.8592 9.31223 1.8592 9.31223 1.8592C9.31223 1.8592 9.31223 1.8592 9.31223 1.8592C9.31223 1.8592 9.31223 1.8592 9.31223 1.8592C9.31223 1.8592 9.31223 1.8592 9.31223 1.8592C9.31223 1.8592 9.31223 1.8592 9.31223 1.8592C9.31223 1.8592 9.31223 1.8592 9.31223 1.8592C9.31223 1.8592 9.31223 1.8592 9.31223 1.8592C9.31223 1.8592 9.31223 1.8592 9.31223 1.8592C9.31223 1.8592 9.31223 1.8592 9.31223 1.8592C9.31223 1.8592 9.31223 1.8592 9.31223 1.8592C9.31223 1.8592 9.31223 1.8592 9.31223 1.8592C9.31223 1.8592 9.31223 1.8592 9.31223 1.8592C9.31223 1.8592 9.31223 1.8592 9.31223 1.8592C9.31223 1.8592 9.31223 1.8592 9.31223 1.8592C9.31223 1.8592 9.31223 1.8592 9.31223 1.8592C9.31223 1.8592 9.31224 1.8592 9.31224 1.8592C9.31224 1.8592 9.31224 1.85921 9.31224 1.85921C9.31224 1.85921 9.31224 1.85921 9.31224 1.85921C9.31224 1.85921 9.31224 1.85921 9.31224 1.85921C9.31224 1.85921 9.31224 1.85921 9.31224 1.85921C9.31224 1.85921 9.31224 1.85921 9.31224 1.85921C9.31224 1.85921 9.31224 1.85921 9.31224 1.85921C9.31224 1.85921 9.31224 1.85921 9.31224 1.85921C9.31224 1.85921 9.31224 1.85921 9.31224 1.85921C9.31224 1.85921 9.31224 1.85921 9.31224 1.85921C9.31224 1.85921 9.31224 1.85921 9.31224 1.85921C9.31224 1.85921 9.31224 1.85921 9.31224 1.85921C9.31224 1.85921 9.31224 1.85921 9.31224 1.85921C9.31224 1.85921 9.31224 1.85921 9.31224 1.85921C9.31224 1.85921 9.31224 1.85921 9.31224 1.85921C9.31224 1.85921 9.31224 1.85921 9.31224 1.85921C9.31224 1.85921 9.31224 1.85921 9.31224 1.85921C9.31224 1.85921 9.31224 1.85921 9.31224 1.85921C9.31224 1.85921 9.31224 1.85921 9.31224 1.85921C9.31224 1.85921 9.31224 1.85921 9.31224 1.85921C9.31224 1.85921 9.31224 1.85921 9.31225 1.85921C9.31225 1.85921 9.31225 1.85921 9.31225 1.85921C9.31225 1.85921 9.31225 1.85921 9.31225 1.85921C9.31225 1.85921 9.31225 1.85921 9.31225 1.85922C9.31225 1.85922 9.31225 1.85922 9.31225 1.85922C9.31225 1.85922 9.31225 1.85922 9.31225 1.85922C9.31225 1.85922 9.31225 1.85922 9.31225 1.85922C9.31225 1.85922 9.31225 1.85922 9.31225 1.85922C9.31225 1.85922 9.31225 1.85922 9.31225 1.85922C9.31225 1.85922 9.31225 1.85922 9.31225 1.85922C9.31225 1.85922 9.31225 1.85922 9.31225 1.85922C9.31225 1.85922 9.31225 1.85922 9.31225 1.85922C9.31225 1.85922 9.31225 1.85922 9.31225 1.85922C9.31225 1.85922 9.31225 1.85922 9.31225 1.85922C9.31225 1.85922 9.31225 1.85922 9.31225 1.85922C9.31225 1.85922 9.31225 1.85922 9.31225 1.85922C9.31225 1.85922 9.31225 1.85922 9.31225 1.85922C9.31225 1.85922 9.31225 1.85922 9.31225 1.85922C9.31225 1.85922 9.31225 1.85922 9.31225 1.85922C9.31225 1.85922 9.31225 1.85922 9.31225 1.85922C9.31225 1.85922 9.31225 1.85922 9.31225 1.85922C9.31225 1.85922 9.31225 1.85922 9.31225 1.85922C9.31225 1.85922 9.31225 1.85922 9.31225 1.85922C9.31226 1.85922 9.31226 1.85922 9.31226 1.85922C9.31226 1.85922 9.31226 1.85922 9.31226 1.85922C9.31226 1.85922 9.31226 1.85922 9.31226 1.85922C9.31226 1.85922 9.31226 1.85923 9.31226 1.85923C9.31226 1.85923 9.31226 1.85923 9.31226 1.85923C9.31226 1.85923 9.31226 1.85923 9.31226 1.85923C9.31226 1.85923 9.31226 1.85923 9.31226 1.85923C9.31226 1.85923 9.31226 1.85923 9.31226 1.85923C9.31226 1.85923 9.31226 1.85923 9.31226 1.85923C9.31226 1.85923 9.31226 1.85923 9.31226 1.85923C9.31226 1.85923 9.31226 1.85923 9.31226 1.85923C9.31226 1.85923 9.31226 1.85923 9.31226 1.85923C9.31226 1.85923 9.31226 1.85923 9.31226 1.85923C9.31226 1.85923 9.31226 1.85923 9.31226 1.85923C9.31226 1.85923 9.31226 1.85923 9.31226 1.85923C9.31226 1.85923 9.31226 1.85923 9.31226 1.85923C9.31226 1.85923 9.31226 1.85923 9.31226 1.85923C9.31226 1.85923 9.31226 1.85923 9.31226 1.85923C9.31226 1.85923 9.31226 1.85923 9.31226 1.85923C9.31226 1.85923 9.31226 1.85923 9.31226 1.85923C9.31226 1.85923 9.31227 1.85923 9.31227 1.85923C9.31227 1.85923 9.31227 1.85923 9.31227 1.85923C9.31227 1.85923 9.31227 1.85923 9.31227 1.85923C9.31227 1.85923 9.31227 1.85923 9.31227 1.85923C9.31227 1.85923 9.31227 1.85923 9.31227 1.85923C9.31227 1.85923 9.31227 1.85923 9.31227 1.85923C9.31227 1.85924 9.31227 1.85924 9.31227 1.85924C9.31227 1.85924 9.31227 1.85924 9.31227 1.85924C9.31227 1.85924 9.31227 1.85924 9.31227 1.85924C9.31227 1.85924 9.31227 1.85924 9.31227 1.85924C9.31227 1.85924 9.31227 1.85924 9.31227 1.85924C9.31227 1.85924 9.31227 1.85924 9.31227 1.85924C9.31227 1.85924 9.31227 1.85924 9.31227 1.85924C9.31227 1.85924 9.31227 1.85924 9.31227 1.85924C9.31227 1.85924 9.31227 1.85924 9.31227 1.85924C9.31227 1.85924 9.31227 1.85924 9.31227 1.85924C9.31227 1.85924 9.31227 1.85924 9.31227 1.85924C9.31227 1.85924 9.31227 1.85924 9.31227 1.85924C9.31227 1.85924 9.31227 1.85924 9.31227 1.85924C9.31227 1.85924 9.31227 1.85924 9.31227 1.85924C9.31227 1.85924 9.31227 1.85924 9.31227 1.85924C9.31227 1.85924 9.31227 1.85924 9.31227 1.85924C9.31227 1.85924 9.31227 1.85924 9.31228 1.85924C9.31228 1.85924 9.31228 1.85924 9.31228 1.85924C9.31228 1.85924 9.31228 1.85924 9.31228 1.85924C9.31228 1.85924 9.31228 1.85924 9.31228 1.85924C9.31228 1.85924 9.31228 1.85924 9.31228 1.85924C9.31228 1.85924 9.31228 1.85924 9.31228 1.85924C9.31228 1.85924 9.31228 1.85924 9.31228 1.85925C9.31228 1.85925 9.31228 1.85925 9.31228 1.85925C9.31228 1.85925 9.31228 1.85925 9.31228 1.85925C9.31228 1.85925 9.31228 1.85925 9.31228 1.85925C9.31228 1.85925 9.31228 1.85925 9.31228 1.85925C9.31228 1.85925 9.31228 1.85925 9.31228 1.85925C9.31228 1.85925 9.31228 1.85925 9.31228 1.85925C9.31228 1.85925 9.31228 1.85925 9.31228 1.85925C9.31228 1.85925 9.31228 1.85925 9.31228 1.85925C9.31228 1.85925 9.31228 1.85925 9.31228 1.85925C9.31228 1.85925 9.31228 1.85925 9.31228 1.85925C9.31228 1.85925 9.31228 1.85925 9.31228 1.85925C9.31228 1.85925 9.31228 1.85925 9.31228 1.85925C9.31228 1.85925 9.31228 1.85925 9.31228 1.85925C9.31228 1.85925 9.31228 1.85925 9.31228 1.85925C9.31229 1.85925 9.31229 1.85925 9.31229 1.85925C9.31229 1.85925 9.31229 1.85925 9.31229 1.85925C9.31229 1.85925 9.31229 1.85925 9.31229 1.85925C9.31229 1.85925 9.31229 1.85925 9.31229 1.85925C9.31229 1.85925 9.31229 1.85925 9.31229 1.85925C9.31229 1.85925 9.31229 1.85925 9.31229 1.85925C9.31229 1.85925 9.31229 1.85925 9.31229 1.85925C9.31229 1.85925 9.31229 1.85925 9.31229 1.85925C9.31229 1.85926 9.31229 1.85926 9.31229 1.85926C9.31229 1.85926 9.31229 1.85926 9.31229 1.85926C9.31229 1.85926 9.31229 1.85926 9.31229 1.85926C9.31229 1.85926 9.31229 1.85926 9.31229 1.85926C9.31229 1.85926 9.31229 1.85926 9.31229 1.85926C9.31229 1.85926 9.31229 1.85926 9.31229 1.85926C9.31229 1.85926 9.31229 1.85926 9.31229 1.85926C9.31229 1.85926 9.31229 1.85926 9.31229 1.85926C9.31229 1.85926 9.31229 1.85926 9.31229 1.85926C9.31229 1.85926 9.31229 1.85926 9.31229 1.85926C9.31229 1.85926 9.31229 1.85926 9.31229 1.85926C9.31229 1.85926 9.31229 1.85926 9.31229 1.85926C9.31229 1.85926 9.31229 1.85926 9.31229 1.85926C9.31229 1.85926 9.31229 1.85926 9.31229 1.85926C9.31229 1.85926 9.3123 1.85926 9.3123 1.85926C9.3123 1.85926 9.3123 1.85926 9.3123 1.85926C9.3123 1.85926 9.3123 1.85926 9.3123 1.85926C9.3123 1.85926 9.3123 1.85926 9.3123 1.85926C9.3123 1.85926 9.3123 1.85926 9.3123 1.85926C9.3123 1.85926 9.3123 1.85926 9.3123 1.85926C9.3123 1.85926 9.3123 1.85926 9.3123 1.85926C9.3123 1.85926 9.3123 1.85926 9.3123 1.85926C9.3123 1.85926 9.3123 1.85926 9.3123 1.85927C9.3123 1.85927 9.3123 1.85927 9.3123 1.85927C9.3123 1.85927 9.3123 1.85927 9.3123 1.85927C9.3123 1.85927 9.3123 1.85927 9.3123 1.85927C9.3123 1.85927 9.3123 1.85927 9.3123 1.85927C9.3123 1.85927 9.3123 1.85927 9.3123 1.85927C9.3123 1.85927 9.3123 1.85927 9.3123 1.85927C9.3123 1.85927 9.3123 1.85927 9.3123 1.85927C9.3123 1.85927 9.3123 1.85927 9.3123 1.85927C9.3123 1.85927 9.3123 1.85927 9.3123 1.85927C9.3123 1.85927 9.3123 1.85927 9.3123 1.85927C9.3123 1.85927 9.3123 1.85927 9.3123 1.85927C9.3123 1.85927 9.3123 1.85927 9.31231 1.85927C9.31231 1.85927 9.31231 1.85927 9.31231 1.85927C9.31231 1.85927 9.31231 1.85927 9.31231 1.85927C9.31231 1.85927 9.31231 1.85927 9.31231 1.85927C9.31231 1.85927 9.31231 1.85927 9.31231 1.85927C9.31231 1.85927 9.31231 1.85927 9.31231 1.85927C9.31231 1.85927 9.31231 1.85927 9.31231 1.85927C9.31231 1.85927 9.31231 1.85927 9.31231 1.85927C9.31231 1.85927 9.31231 1.85927 9.31231 1.85927C9.31231 1.85927 9.31231 1.85927 9.31231 1.85927C9.31231 1.85927 9.31231 1.85927 9.31231 1.85927C9.31231 1.85927 9.31231 1.85928 9.31231 1.85928C9.31231 1.85928 9.31231 1.85928 9.31231 1.85928C9.31231 1.85928 9.31231 1.85928 9.31231 1.85928C9.31231 1.85928 9.31231 1.85928 9.31231 1.85928C9.31231 1.85928 9.31231 1.85928 9.31231 1.85928C9.31231 1.85928 9.31231 1.85928 9.31231 1.85928C9.31231 1.85928 9.31231 1.85928 9.31231 1.85928C9.31231 1.85928 9.31231 1.85928 9.31231 1.85928C9.31231 1.85928 9.31231 1.85928 9.31231 1.85928C9.31231 1.85928 9.31231 1.85928 9.31231 1.85928C9.31231 1.85928 9.31231 1.85928 9.31231 1.85928C9.31231 1.85928 9.31231 1.85928 9.31231 1.85928C9.31232 1.85928 9.31232 1.85928 9.31232 1.85928C9.31232 1.85928 9.31232 1.85928 9.31232 1.85928C9.31232 1.85928 9.31232 1.85928 9.31232 1.85928C9.31232 1.85928 9.31232 1.85928 9.31232 1.85928C9.31232 1.85928 9.31232 1.85928 9.31232 1.85928C9.31232 1.85928 9.31232 1.85928 9.31232 1.85928C9.31232 1.85928 9.31232 1.85928 9.31232 1.85928C9.31232 1.85928 9.31232 1.85928 9.31232 1.85928C9.31232 1.85928 9.31232 1.85928 9.31232 1.85928C9.31232 1.85928 9.31232 1.85928 9.31232 1.85928C9.31232 1.85928 9.31232 1.85928 9.31232 1.85929C9.31232 1.85929 9.31232 1.85929 9.31232 1.85929C9.31232 1.85929 9.31232 1.85929 9.31232 1.85929C9.31232 1.85929 9.31232 1.85929 9.31232 1.85929C9.31232 1.85929 9.31232 1.85929 9.31232 1.85929C9.31232 1.85929 9.31232 1.85929 9.31232 1.85929C9.31232 1.85929 9.31232 1.85929 9.31232 1.85929C9.31232 1.85929 9.31232 1.85929 9.31232 1.85929C9.31232 1.85929 9.31232 1.85929 9.31232 1.85929C9.31232 1.85929 9.31232 1.85929 9.31232 1.85929C9.31232 1.85929 9.31233 1.85929 9.31233 1.85929C9.31233 1.85929 9.31233 1.85929 9.31233 1.85929C9.31233 1.85929 9.31233 1.85929 9.31233 1.85929C9.31233 1.85929 9.31233 1.85929 9.31233 1.85929C9.31233 1.85929 9.31233 1.85929 9.31233 1.85929C9.31233 1.85929 9.31233 1.85929 9.31233 1.85929C9.31233 1.85929 9.31233 1.85929 9.31233 1.85929C9.31233 1.85929 9.31233 1.85929 9.31233 1.85929C9.31233 1.85929 9.31233 1.85929 9.31233 1.85929C9.31233 1.85929 9.31233 1.85929 9.31233 1.85929C9.31233 1.85929 9.31233 1.85929 9.31233 1.85929C9.31233 1.85929 9.31233 1.85929 9.31233 1.85929C9.31233 1.85929 9.31233 1.85929 9.31233 1.85929C9.31233 1.8593 9.31233 1.8593 9.31233 1.8593C9.31233 1.8593 9.31233 1.8593 9.31233 1.8593C9.31233 1.8593 9.31233 1.8593 9.31233 1.8593C9.31233 1.8593 9.31233 1.8593 9.31233 1.8593C9.31233 1.8593 9.31233 1.8593 9.31233 1.8593C9.31233 1.8593 9.31233 1.8593 9.31233 1.8593C9.31233 1.8593 9.31233 1.8593 9.31233 1.8593C9.31233 1.8593 9.31233 1.8593 9.31234 1.8593C9.31234 1.8593 9.31234 1.8593 9.31234 1.8593C9.31234 1.8593 9.31234 1.8593 9.31234 1.8593C9.31234 1.8593 9.31234 1.8593 9.31234 1.8593C9.31234 1.8593 9.31234 1.8593 9.31234 1.8593C9.31234 1.8593 9.31234 1.8593 9.31234 1.8593C9.31234 1.8593 9.31234 1.8593 9.31234 1.8593C9.31234 1.8593 9.31234 1.8593 9.31234 1.8593C9.31234 1.8593 9.31234 1.8593 9.31234 1.8593C9.31234 1.8593 9.31234 1.8593 9.31234 1.8593C9.31234 1.8593 9.31234 1.8593 9.31234 1.8593C9.31234 1.8593 9.31234 1.8593 9.31234 1.8593C9.31234 1.8593 9.31234 1.8593 9.31234 1.8593C9.31234 1.8593 9.31234 1.8593 9.31234 1.8593C9.31234 1.8593 9.31234 1.8593 9.31234 1.8593C9.31234 1.8593 9.31234 1.8593 9.31234 1.85931C9.31234 1.85931 9.31234 1.85931 9.31234 1.85931C9.31234 1.85931 9.31234 1.85931 9.31234 1.85931C9.31234 1.85931 9.31234 1.85931 9.31234 1.85931C9.31234 1.85931 9.31234 1.85931 9.31234 1.85931C9.31234 1.85931 9.31234 1.85931 9.31234 1.85931C9.31234 1.85931 9.31234 1.85931 9.31234 1.85931C9.31234 1.85931 9.31234 1.85931 9.31234 1.85931C9.31235 1.85931 9.31235 1.85931 9.31235 1.85931C9.31235 1.85931 9.31235 1.85931 9.31235 1.85931C9.31235 1.85931 9.31235 1.85931 9.31235 1.85931C9.31235 1.85931 9.31235 1.85931 9.31235 1.85931C9.31235 1.85931 9.31235 1.85931 9.31235 1.85931C9.31235 1.85931 9.31235 1.85931 9.31235 1.85931C9.31235 1.85931 9.31235 1.85931 9.31235 1.85931C9.31235 1.85931 9.31235 1.85931 9.31235 1.85931C9.31235 1.85931 9.31235 1.85931 9.31235 1.85931C9.31235 1.85931 9.31235 1.85931 9.31235 1.85931C9.31235 1.85931 9.31235 1.85931 9.31235 1.85931C9.31235 1.85931 9.31235 1.85931 9.31235 1.85931C9.31235 1.85931 9.31235 1.85931 9.31235 1.85931C9.31235 1.85931 9.31235 1.85931 9.31235 1.85931C9.31235 1.85931 9.31235 1.85931 9.31235 1.85931C9.31235 1.85931 9.31235 1.85932 9.31235 1.85932C9.31235 1.85932 9.31235 1.85932 9.31235 1.85932C9.31235 1.85932 9.31235 1.85932 9.31235 1.85932C9.31235 1.85932 9.31235 1.85932 9.31235 1.85932C9.31235 1.85932 9.31235 1.85932 9.31235 1.85932C9.31235 1.85932 9.31236 1.85932 9.31236 1.85932C9.31236 1.85932 9.31236 1.85932 9.31236 1.85932C9.31236 1.85932 9.31236 1.85932 9.31236 1.85932C9.31236 1.85932 9.31236 1.85932 9.31236 1.85932C9.31236 1.85932 9.31236 1.85932 9.31236 1.85932C9.31236 1.85932 9.31236 1.85932 9.31236 1.85932C9.31236 1.85932 9.31236 1.85932 9.31236 1.85932C9.31236 1.85932 9.31236 1.85932 9.31236 1.85932C9.31236 1.85932 9.31236 1.85932 9.31236 1.85932C9.31236 1.85932 9.31236 1.85932 9.31236 1.85932C9.31236 1.85932 9.31236 1.85932 9.31236 1.85932C9.31236 1.85932 9.31236 1.85932 9.31236 1.85932C9.31236 1.85932 9.31236 1.85932 9.31236 1.85932C9.31236 1.85932 9.31236 1.85932 9.31236 1.85932C9.31236 1.85932 9.31236 1.85932 9.31236 1.85932C9.31236 1.85932 9.31236 1.85932 9.31236 1.85932C9.31236 1.85932 9.31236 1.85932 9.31236 1.85932C9.31236 1.85932 9.31236 1.85932 9.31236 1.85932C9.31236 1.85933 9.31236 1.85933 9.31236 1.85933C9.31236 1.85933 9.31236 1.85933 9.31236 1.85933C9.31236 1.85933 9.31236 1.85933 9.31236 1.85933C9.31236 1.85933 9.31236 1.85933 9.31236 1.85933C9.31236 1.85933 9.31236 1.85933 9.31237 1.85933C9.31237 1.85933 9.31237 1.85933 9.31237 1.85933C9.31237 1.85933 9.31237 1.85933 9.31237 1.85933C9.31237 1.85933 9.31237 1.85933 9.31237 1.85933C9.31237 1.85933 9.31237 1.85933 9.31237 1.85933C9.31237 1.85933 9.31237 1.85933 9.31237 1.85933C9.31237 1.85933 9.31237 1.85933 9.31237 1.85933C9.31237 1.85933 9.31237 1.85933 9.31237 1.85933C9.31237 1.85933 9.31237 1.85933 9.31237 1.85933C9.31237 1.85933 9.31237 1.85933 9.31237 1.85933C9.31237 1.85933 9.31237 1.85933 9.31237 1.85933C9.31237 1.85933 9.31237 1.85933 9.31237 1.85933C9.31237 1.85933 9.31237 1.85933 9.31237 1.85933C9.31237 1.85933 9.31237 1.85933 9.31237 1.85933C9.31237 1.85933 9.31237 1.85933 9.31237 1.85933C9.31237 1.85933 9.31237 1.85933 9.31237 1.85933C9.31237 1.85933 9.31237 1.85933 9.31237 1.85933C9.31237 1.85933 9.31237 1.85933 9.31237 1.85933C9.31237 1.85933 9.31237 1.85934 9.31237 1.85934C9.31237 1.85934 9.31237 1.85934 9.31237 1.85934C9.31237 1.85934 9.31237 1.85934 9.31237 1.85934C9.31238 1.85934 9.31238 1.85934 9.31238 1.85934C9.31238 1.85934 9.31238 1.85934 9.31238 1.85934C9.31238 1.85934 9.31238 1.85934 9.31238 1.85934C9.31238 1.85934 9.31238 1.85934 9.31238 1.85934C9.31238 1.85934 9.31238 1.85934 9.31238 1.85934C9.31238 1.85934 9.31238 1.85934 9.31238 1.85934C9.31238 1.85934 9.31238 1.85934 9.31238 1.85934C9.31238 1.85934 9.31238 1.85934 9.31238 1.85934C9.31238 1.85934 9.31238 1.85934 9.31238 1.85934C9.31238 1.85934 9.31238 1.85934 9.31238 1.85934C9.31238 1.85934 9.31238 1.85934 9.31238 1.85934C9.31238 1.85934 9.31238 1.85934 9.31238 1.85934C9.31238 1.85934 9.31238 1.85934 9.31238 1.85934C9.31238 1.85934 9.31238 1.85934 9.31238 1.85934C9.31238 1.85934 9.31238 1.85934 9.31238 1.85934C9.31238 1.85934 9.31238 1.85934 9.31238 1.85934C9.31238 1.85934 9.31238 1.85934 9.31238 1.85934C9.31238 1.85934 9.31238 1.85934 9.31238 1.85934C9.31238 1.85934 9.31238 1.85934 9.31238 1.85934C9.31238 1.85934 9.31238 1.85934 9.31238 1.85934C9.31238 1.85935 9.31238 1.85935 9.31238 1.85935C9.31238 1.85935 9.31238 1.85935 9.31238 1.85935C9.31238 1.85935 9.31239 1.85935 9.31239 1.85935C9.31239 1.85935 9.31239 1.85935 9.31239 1.85935C9.31239 1.85935 9.31239 1.85935 9.31239 1.85935C9.31239 1.85935 9.31239 1.85935 9.31239 1.85935C9.31239 1.85935 9.31239 1.85935 9.31239 1.85935C9.31239 1.85935 9.31239 1.85935 9.31239 1.85935C9.31239 1.85935 9.31239 1.85935 9.31239 1.85935C9.31239 1.85935 9.31239 1.85935 9.31239 1.85935C9.31239 1.85935 9.31239 1.85935 9.31239 1.85935C9.31239 1.85935 9.31239 1.85935 9.31239 1.85935C9.31239 1.85935 9.31239 1.85935 9.31239 1.85935C9.31239 1.85935 9.31239 1.85935 9.31239 1.85935C9.31239 1.85935 9.31239 1.85935 9.31239 1.85935C9.31239 1.85935 9.31239 1.85935 9.31239 1.85935C9.31239 1.85935 9.31239 1.85935 9.31239 1.85935C9.31239 1.85935 9.31239 1.85935 9.31239 1.85935C9.31239 1.85935 9.31239 1.85935 9.31239 1.85935C9.31239 1.85935 9.31239 1.85935 9.31239 1.85935C9.31239 1.85935 9.31239 1.85935 9.31239 1.85935C9.31239 1.85935 9.31239 1.85935 9.31239 1.85935C9.31239 1.85935 9.31239 1.85935 9.3124 1.85936C9.3124 1.85936 9.3124 1.85936 9.3124 1.85936C9.3124 1.85936 9.3124 1.85936 9.3124 1.85936C9.3124 1.85936 9.3124 1.85936 9.3124 1.85936C9.3124 1.85936 9.3124 1.85936 9.3124 1.85936C9.3124 1.85936 9.3124 1.85936 9.3124 1.85936C9.3124 1.85936 9.3124 1.85936 9.3124 1.85936C9.3124 1.85936 9.3124 1.85936 9.3124 1.85936C9.3124 1.85936 9.3124 1.85936 9.3124 1.85936C9.3124 1.85936 9.3124 1.85936 9.3124 1.85936C9.3124 1.85936 9.3124 1.85936 9.3124 1.85936C9.3124 1.85936 9.3124 1.85936 9.3124 1.85936C9.3124 1.85936 9.3124 1.85936 9.3124 1.85936C9.3124 1.85936 9.3124 1.85936 9.3124 1.85936C9.3124 1.85936 9.3124 1.85936 9.3124 1.85936C9.3124 1.85936 9.3124 1.85936 9.3124 1.85936C9.3124 1.85936 9.3124 1.85936 9.3124 1.85936C9.3124 1.85936 9.3124 1.85936 9.3124 1.85936C9.3124 1.85936 9.3124 1.85936 9.3124 1.85936C9.3124 1.85936 9.3124 1.85936 9.3124 1.85936C9.3124 1.85936 9.3124 1.85936 9.3124 1.85936C9.3124 1.85936 9.3124 1.85936 9.3124 1.85936C9.3124 1.85936 9.3124 1.85936 9.3124 1.85936C9.31241 1.85937 9.31241 1.85937 9.31241 1.85937C9.31241 1.85937 9.31241 1.85937 9.31241 1.85937C9.31241 1.85937 9.31241 1.85937 9.31241 1.85937C9.31241 1.85937 9.31241 1.85937 9.31241 1.85937C9.31241 1.85937 9.31241 1.85937 9.31241 1.85937C9.31241 1.85937 9.31241 1.85937 9.31241 1.85937C9.31241 1.85937 9.31241 1.85937 9.31241 1.85937C9.31241 1.85937 9.31241 1.85937 9.31241 1.85937C9.31241 1.85937 9.31241 1.85937 9.31241 1.85937C9.31241 1.85937 9.31241 1.85937 9.31241 1.85937C9.31241 1.85937 9.31241 1.85937 9.31241 1.85937C9.31241 1.85937 9.31241 1.85937 9.31241 1.85937C9.31241 1.85937 9.31241 1.85937 9.31241 1.85937C9.31241 1.85937 9.31241 1.85937 9.31241 1.85937C9.31241 1.85937 9.31241 1.85937 9.31241 1.85937C9.31241 1.85937 9.31241 1.85937 9.31241 1.85937C9.31241 1.85937 9.31241 1.85937 9.31241 1.85937C9.31241 1.85937 9.31241 1.85937 9.31241 1.85937C9.31241 1.85937 9.31241 1.85937 9.31241 1.85937C9.31241 1.85937 9.31241 1.85937 9.31241 1.85937C9.31241 1.85937 9.31242 1.85937 9.31242 1.85937C9.31242 1.85937 9.31242 1.85937 9.31242 1.85937C9.31242 1.85937 9.31242 1.85938 9.31242 1.85938C9.31242 1.85938 9.31242 1.85938 9.31242 1.85938C9.31242 1.85938 9.31242 1.85938 9.31242 1.85938C9.31242 1.85938 9.31242 1.85938 9.31242 1.85938C9.31242 1.85938 9.31242 1.85938 9.31242 1.85938C9.31242 1.85938 9.31242 1.85938 9.31242 1.85938C9.31242 1.85938 9.31242 1.85938 9.31242 1.85938C9.31242 1.85938 9.31242 1.85938 9.31242 1.85938C9.31242 1.85938 9.31242 1.85938 9.31242 1.85938C9.31242 1.85938 9.31242 1.85938 9.31242 1.85938C9.31242 1.85938 9.31242 1.85938 9.31242 1.85938C9.31242 1.85938 9.31242 1.85938 9.31242 1.85938C9.31242 1.85938 9.31242 1.85938 9.31242 1.85938C9.31242 1.85938 9.31242 1.85938 9.31242 1.85938C9.31242 1.85938 9.31242 1.85938 9.31242 1.85938C9.31242 1.85938 9.31242 1.85938 9.31242 1.85938C9.31242 1.85938 9.31242 1.85938 9.31242 1.85938C9.31242 1.85938 9.31242 1.85938 9.31242 1.85938C9.31242 1.85938 9.31242 1.85938 9.31242 1.85938C9.31242 1.85938 9.31242 1.85938 9.31242 1.85938C9.31242 1.85938 9.31242 1.85938 9.31243 1.85938C9.31243 1.85938 9.31243 1.85938 9.31243 1.85938C9.31243 1.85938 9.31243 1.85938 9.31243 1.85938C9.31243 1.85939 9.31243 1.85939 9.31243 1.85939C9.31243 1.85939 9.31243 1.85939 9.31243 1.85939C9.31243 1.85939 9.31243 1.85939 9.31243 1.85939C9.31243 1.85939 9.31243 1.85939 9.31243 1.85939C9.31243 1.85939 9.31243 1.85939 9.31243 1.85939C9.31243 1.85939 9.31243 1.85939 9.31243 1.85939C9.31243 1.85939 9.31243 1.85939 9.31243 1.85939C9.31243 1.85939 9.31243 1.85939 9.31243 1.85939C9.31243 1.85939 9.31243 1.85939 9.31243 1.85939C9.31243 1.85939 9.31243 1.85939 9.31243 1.85939C9.31243 1.85939 9.31243 1.85939 9.31243 1.85939C9.31243 1.85939 9.31243 1.85939 9.31243 1.85939C9.31243 1.85939 9.31243 1.85939 9.31243 1.85939C9.31243 1.85939 9.31243 1.85939 9.31243 1.85939C9.31243 1.85939 9.31243 1.85939 9.31243 1.85939C9.31243 1.85939 9.31243 1.85939 9.31243 1.85939C9.31243 1.85939 9.31243 1.85939 9.31243 1.85939C9.31243 1.85939 9.31243 1.85939 9.31243 1.85939C9.31244 1.85939 9.31244 1.85939 9.31244 1.85939C9.31244 1.85939 9.31244 1.85939 9.31244 1.85939C9.31244 1.85939 9.31244 1.85939 9.31244 1.85939C9.31244 1.85939 9.31244 1.85939 9.31244 1.85939C9.31244 1.85939 9.31244 1.85939 9.31244 1.8594C9.31244 1.8594 9.31244 1.8594 9.31244 1.8594C9.31244 1.8594 9.31244 1.8594 9.31244 1.8594C9.31244 1.8594 9.31244 1.8594 9.31244 1.8594C9.31244 1.8594 9.31244 1.8594 9.31244 1.8594C9.31244 1.8594 9.31244 1.8594 9.31244 1.8594C9.31244 1.8594 9.31244 1.8594 9.31244 1.8594L9.65585 1.49598ZM9.31931 1.48973C8.50287 2.20572 6.50915 4.05022 4.71765 6.48236C2.93062 8.90842 1.3184 11.9545 1.3184 15.068H1.8184C1.8184 12.1153 3.35427 9.17634 5.12022 6.77889C6.8817 4.38751 8.84585 2.56996 9.64898 1.86565L9.31931 1.48973ZM1.3184 15.068C1.3184 19.5791 4.98699 23.2475 9.4979 23.2475V22.7475C5.26312 22.7475 1.8184 19.3029 1.8184 15.068H1.3184ZM9.4979 23.2475C14.0088 23.2475 17.6774 19.5789 17.6774 15.068H17.1774C17.1774 19.3027 13.7327 22.7475 9.4979 22.7475V23.2475ZM17.6774 15.0681C17.6784 12.2135 16.0527 9.18936 14.2612 6.71539C12.4629 4.23194 10.464 2.25788 9.65563 1.49578L9.31265 1.8596C10.1101 2.61141 12.0839 4.56112 13.8562 7.00865C15.6354 9.46566 17.1784 12.3797 17.1774 15.0679L17.6774 15.0681Z" fill="#4AF6CD"/>
</svg>
