<svg width="52" height="33" viewBox="0 0 52 33" fill="none" xmlns="http://www.w3.org/2000/svg">
<path fill-rule="evenodd" clip-rule="evenodd" d="M49.75 22.2763V25.0228L49.7496 25.023C50.3199 25.1389 50.7496 25.6395 50.7496 26.2348V27.2225C50.7496 27.8216 50.3199 28.3203 49.7496 28.4362V28.4613H43.1851C42.8218 30.7014 40.8628 32.4197 38.4995 32.4197C36.1362 32.4197 34.1773 30.7014 33.8159 28.4613H16.4349C16.0716 30.7014 14.1127 32.4197 11.7494 32.4197C9.38609 32.4197 7.42517 30.6995 7.06384 28.4613H3.24939L2.50134 28.4633C1.80994 28.4633 1.24939 27.9066 1.24939 27.2244V26.2367C1.24939 25.5525 1.81189 24.9978 2.50134 24.9978H3.24939V13.867C3.24939 10.4556 6.05414 7.6801 9.50139 7.6801L15.2709 7.67624V5.70286C9.18539 5.12885 4.02894 4.05614 2.46839 2.51185C2.23597 2.2838 2.18128 1.93202 2.33362 1.64403C2.48597 1.35798 2.8063 1.19949 3.13052 1.25748C8.10702 2.13881 15.8455 2.25671 22.7555 2.25671C24.2243 2.25671 25.6677 2.25284 27.0544 2.24705C27.407 2.24599 27.7559 2.24478 28.1008 2.24359L28.1009 2.24359L28.101 2.24359L28.1011 2.24359L28.1014 2.24359L28.1017 2.24359L28.1018 2.24359C29.0154 2.24044 29.9006 2.23738 30.7497 2.23738L37.1872 2.23931H37.1891C41.5466 2.23931 44.2302 2.21032 47.7106 2.04217C48.0544 2.02861 48.3727 2.24896 48.4684 2.57946C48.5641 2.90998 48.4176 3.26369 48.1149 3.43184C47.613 3.71016 46.988 3.96915 46.2477 4.20881V5.7106C46.2477 6.37936 45.8883 6.95724 45.2848 7.25876C45.029 7.38632 44.7594 7.4501 44.4919 7.4501C44.1286 7.4501 43.7673 7.33413 43.4548 7.10414L41.0349 5.32793C37.9529 5.77248 34.1366 6.05467 29.7499 6.15517V7.68205L34.9979 7.68012C38.3419 7.68012 41.4258 8.78761 43.9024 10.6489L44.1074 10.8074C46.1797 12.4211 47.8047 14.5723 48.7676 17.0482L48.7735 17.0598L48.7871 17.0926C48.8007 17.1309 48.8154 17.168 48.83 17.205L48.8301 17.2051L48.8301 17.2052L48.8302 17.2053L48.8302 17.2054L48.8303 17.2056C48.8429 17.2375 48.8555 17.2692 48.8672 17.3014L49.166 18.0687H49.1231C49.5293 19.4023 49.75 20.8152 49.75 22.2763ZM36.0002 16.5861H46.9317H46.9319C46.0921 14.8718 44.8811 13.3506 43.3792 12.133H36.0002C35.8654 12.133 35.7502 12.247 35.7502 12.3804V16.3387C35.7502 16.4721 35.8654 16.5861 36.0002 16.5861ZM44.75 5.71061C44.75 5.81305 44.7051 5.8865 44.6113 5.93288C44.5176 5.97927 44.4336 5.97154 44.3496 5.90969L43.0918 4.98774C43.6817 4.87564 44.2344 4.75581 44.75 4.63018L44.75 5.71061ZM26.0908 3.73625L26.0906 3.73625C25.0042 3.73959 23.8892 3.74302 22.758 3.74302L22.7585 3.74298C18.319 3.74298 13.5376 3.69273 9.33647 3.42408C13.3715 4.17789 19.1745 4.71133 26.0005 4.71133C32.2735 4.71133 37.7601 4.348 41.7425 3.70823C40.385 3.7237 38.9182 3.7295 37.1917 3.7295H37.1897L30.7502 3.7237C29.5823 3.7237 28.3459 3.72756 27.0608 3.73336L26.0908 3.73625ZM16.7715 5.83624C19.7813 6.07397 22.957 6.19574 26 6.19574C26.7637 6.19574 27.5137 6.18994 28.25 6.18027V7.68009H16.7715V5.83624ZM8.50002 27.7194C8.50002 29.4937 9.95707 30.9355 11.75 30.9355C13.543 30.9355 15 29.4937 15 27.7194C15 25.9451 13.543 24.5032 11.75 24.5032C9.95707 24.5032 8.50002 25.9451 8.50002 27.7194ZM38.5 30.9355C36.7071 30.9355 35.25 29.4937 35.25 27.7194C35.25 25.9451 36.7071 24.5032 38.5 24.5032C40.293 24.5032 41.75 25.9451 41.75 27.7194C41.75 29.4937 40.293 30.9355 38.5 30.9355ZM38.5 23.0189C40.8633 23.0189 42.8242 24.7371 43.1856 26.9772H49.25V26.4824H44.75V24.998H48.25V22.2786C48.25 20.8058 48 19.393 47.5469 18.071H35.9999C35.035 18.071 34.2499 17.294 34.2499 16.3392V12.3808C34.2499 11.4261 35.035 10.6491 35.9999 10.6491H41.1114C39.2811 9.70393 37.201 9.1647 34.9979 9.1647H9.50187C6.88077 9.1647 4.74992 11.2753 4.74992 13.8672V16.5866H12.2849V18.071H4.74992V24.998H5.74992V26.4824H2.74992V26.9772H7.06437C7.42767 24.7371 9.38662 23.0189 11.7499 23.0189C14.1132 23.0189 16.0741 24.7371 16.4355 26.9772H33.8145C34.1778 24.7371 36.1367 23.0189 38.5 23.0189Z" fill="white"/>
<path d="M49.75 25.0228L49.8336 25.3109L50.05 25.2481V25.0228H49.75ZM49.7496 25.023L49.666 24.7348L49.6898 25.3169L49.7496 25.023ZM49.7496 28.4362L49.6898 28.1422L49.4496 28.1911V28.4362H49.7496ZM49.7496 28.4613V28.7613H50.0496V28.4613H49.7496ZM43.1851 28.4613V28.1614H42.9298L42.889 28.4133L43.1851 28.4613ZM33.8159 28.4613L34.1121 28.4136L34.0714 28.1614H33.8159V28.4613ZM16.4349 28.4613V28.1614H16.1797L16.1388 28.4133L16.4349 28.4613ZM7.06384 28.4613L7.36 28.4135L7.31929 28.1614H7.06384V28.4613ZM3.24939 28.4613V28.1613L3.24861 28.1614L3.24939 28.4613ZM2.50134 28.4633V28.7633L2.50211 28.7633L2.50134 28.4633ZM3.24939 24.9978V25.2978H3.54939V24.9978H3.24939ZM9.50139 7.6801V7.9801L9.50159 7.9801L9.50139 7.6801ZM15.2709 7.67624L15.2711 7.97624L15.5709 7.97604V7.67624H15.2709ZM15.2709 5.70286H15.5709V5.42982L15.2991 5.40418L15.2709 5.70286ZM2.46839 2.51185L2.67941 2.29861L2.6785 2.29771L2.46839 2.51185ZM2.33362 1.64403L2.06884 1.50301L2.06844 1.50375L2.33362 1.64403ZM3.13052 1.25748L3.07771 1.55279L3.07821 1.55288L3.13052 1.25748ZM27.0544 2.24705L27.0535 1.94705L27.0531 1.94705L27.0544 2.24705ZM28.1008 2.24359L28.1018 2.54359L28.1019 2.54359L28.1008 2.24359ZM28.1011 2.24359L28.1 1.94359L28.1 1.94359L28.1011 2.24359ZM28.1014 2.24359L28.1005 1.94359L28.1004 1.94359L28.1014 2.24359ZM28.1017 2.24359L28.1026 2.54359L28.1028 2.54359L28.1017 2.24359ZM28.1018 2.24359L28.1007 1.94359L28.1006 1.94359L28.1018 2.24359ZM30.7497 2.23738L30.7498 1.93738H30.7497V2.23738ZM37.1872 2.23931L37.1871 2.53931H37.1872V2.23931ZM47.7106 2.04217L47.6988 1.74239L47.6962 1.74252L47.7106 2.04217ZM48.4684 2.57946L48.7566 2.49603V2.49602L48.4684 2.57946ZM48.1149 3.43184L48.2604 3.69421L48.2606 3.6941L48.1149 3.43184ZM46.2477 4.20881L46.1553 3.9234L45.9477 3.99061V4.20881H46.2477ZM45.2848 7.25876L45.4187 7.52724L45.4189 7.52713L45.2848 7.25876ZM43.4548 7.10414L43.6326 6.86252L43.6323 6.86229L43.4548 7.10414ZM41.0349 5.32793L41.2124 5.08609L41.1135 5.01349L40.992 5.03101L41.0349 5.32793ZM29.7499 6.15517L29.743 5.85525L29.4499 5.86197V6.15517H29.7499ZM29.7499 7.68205H29.4499V7.98216L29.75 7.98205L29.7499 7.68205ZM34.9979 7.68012V7.38012H34.9978L34.9979 7.68012ZM43.9024 10.6489L44.0858 10.4115L44.0826 10.409L43.9024 10.6489ZM44.1074 10.8074L44.2918 10.5707L44.2909 10.57L44.1074 10.8074ZM48.7676 17.0482L48.488 17.1569L48.4933 17.1705L48.4998 17.1835L48.7676 17.0482ZM48.7735 17.0598L49.0504 16.9445L49.0462 16.9343L49.0412 16.9245L48.7735 17.0598ZM48.7871 17.0926L49.0698 16.9923L49.0672 16.9847L49.0641 16.9774L48.7871 17.0926ZM48.83 17.205L48.5511 17.3154L48.5515 17.3164L48.83 17.205ZM48.8301 17.2051L49.1099 17.0968L49.1086 17.0937L48.8301 17.2051ZM48.8301 17.2052L48.5503 17.3135L48.5516 17.3166L48.8301 17.2052ZM48.8302 17.2053L49.11 17.097L49.1087 17.0939L48.8302 17.2053ZM48.8302 17.2054L48.5504 17.3137L48.5517 17.3168L48.8302 17.2054ZM48.8303 17.2056L49.1092 17.0951L49.1088 17.0941L48.8303 17.2056ZM48.8672 17.3014L48.5853 17.4042L48.5877 17.4102L48.8672 17.3014ZM49.166 18.0687V18.3687H49.6048L49.4456 17.9598L49.166 18.0687ZM49.1231 18.0687V17.7687H48.7181L48.8361 18.1561L49.1231 18.0687ZM46.9319 16.5861V16.8861H47.4129L47.2013 16.4542L46.9319 16.5861ZM43.3792 12.133L43.5681 11.9L43.4855 11.833H43.3792V12.133ZM44.6113 5.93288L44.4783 5.664L44.4783 5.664L44.6113 5.93288ZM44.75 5.71061L44.45 5.71061V5.71061H44.75ZM44.3496 5.90969L44.5275 5.66813L44.527 5.66773L44.3496 5.90969ZM43.0918 4.98774L43.0358 4.69302L42.358 4.82183L42.9145 5.22971L43.0918 4.98774ZM44.75 4.63018L45.05 4.63018L45.05 4.2483L44.679 4.33871L44.75 4.63018ZM26.0906 3.73625L26.0915 4.03625L26.0918 4.03625L26.0906 3.73625ZM26.0908 3.73625L26.0899 3.43625L26.0896 3.43625L26.0908 3.73625ZM22.758 3.74302L22.7309 3.44426L22.758 4.04302V3.74302ZM22.7585 3.74298L22.7856 4.04175L22.7585 3.44298V3.74298ZM9.33647 3.42408L9.35561 3.12469L9.28138 3.71897L9.33647 3.42408ZM41.7425 3.70823L41.7901 4.00444L41.739 3.40825L41.7425 3.70823ZM37.1897 3.7295L37.1894 4.0295H37.1897V3.7295ZM30.7502 3.7237L30.7505 3.4237H30.7502V3.7237ZM27.0608 3.73336L27.0617 4.03336L27.0621 4.03336L27.0608 3.73336ZM16.7715 5.83624L16.7951 5.53717L16.4715 5.51161V5.83624H16.7715ZM28.25 6.18027H28.55V5.87631L28.2461 5.8803L28.25 6.18027ZM28.25 7.68009V7.98009H28.55V7.68009H28.25ZM16.7715 7.68009H16.4715V7.98009H16.7715V7.68009ZM43.1856 26.9772L42.8894 27.025L42.9301 27.2772H43.1856V26.9772ZM49.25 26.9772V27.2772H49.55V26.9772H49.25ZM49.25 26.4824H49.55V26.1824H49.25V26.4824ZM44.75 26.4824H44.45V26.7824H44.75V26.4824ZM44.75 24.998V24.698H44.45V24.998H44.75ZM48.25 24.998V25.298H48.55V24.998H48.25ZM47.5469 18.071L47.8307 17.9737L47.7612 17.771H47.5469V18.071ZM41.1114 10.6491V10.9491L41.249 10.3825L41.1114 10.6491ZM4.74992 16.5866H4.44992V16.8866H4.74992V16.5866ZM12.2849 16.5866H12.5849V16.2866H12.2849V16.5866ZM12.2849 18.071V18.371H12.5849V18.071H12.2849ZM4.74992 18.071V17.771H4.44992V18.071H4.74992ZM4.74992 24.998H4.44992V25.298H4.74992V24.998ZM5.74992 24.998H6.04992V24.698H5.74992V24.998ZM5.74992 26.4824V26.7824H6.04992V26.4824H5.74992ZM2.74992 26.4824V26.1824H2.44992V26.4824H2.74992ZM2.74992 26.9772H2.44992V27.2772H2.74992V26.9772ZM7.06437 26.9772V27.2772H7.31963L7.3605 27.0252L7.06437 26.9772ZM16.4355 26.9772L16.1393 27.025L16.18 27.2772H16.4355V26.9772ZM33.8145 26.9772V27.2772H34.0697L34.1106 27.0252L33.8145 26.9772ZM50.05 25.0228V22.2763H49.45V25.0228H50.05ZM49.8332 25.3111L49.8336 25.3109L49.6664 24.7347L49.666 24.7348L49.8332 25.3111ZM51.0496 26.2348C51.0496 25.4914 50.5141 24.8723 49.8094 24.729L49.6898 25.3169C50.1257 25.4056 50.4496 25.7876 50.4496 26.2348H51.0496ZM51.0496 27.2225V26.2348H50.4496V27.2225H51.0496ZM49.8094 28.7302C50.5141 28.5869 51.0496 27.9697 51.0496 27.2225H50.4496C50.4496 27.6735 50.1257 28.0536 49.6898 28.1422L49.8094 28.7302ZM50.0496 28.4613V28.4362H49.4496V28.4613H50.0496ZM43.1851 28.7613H49.7496V28.1614H43.1851V28.7613ZM38.4995 32.7197C41.011 32.7197 43.0945 30.8937 43.4812 28.5094L42.889 28.4133C42.549 30.5092 40.7146 32.1197 38.4995 32.1197V32.7197ZM33.5198 28.5091C33.9044 30.8937 35.9881 32.7197 38.4995 32.7197V32.1197C36.2844 32.1197 34.4501 30.5092 34.1121 28.4136L33.5198 28.5091ZM16.4349 28.7613H33.8159V28.1614H16.4349V28.7613ZM11.7494 32.7197C14.2609 32.7197 16.3444 30.8937 16.7311 28.5094L16.1388 28.4133C15.7989 30.5092 13.9645 32.1197 11.7494 32.1197V32.7197ZM6.76767 28.5092C7.15233 30.8918 9.23799 32.7197 11.7494 32.7197V32.1197C9.53419 32.1197 7.69801 30.5072 7.36 28.4135L6.76767 28.5092ZM3.24939 28.7613H7.06384V28.1614H3.24939V28.7613ZM2.50211 28.7633L3.25016 28.7613L3.24861 28.1614L2.50056 28.1633L2.50211 28.7633ZM0.94939 27.2244C0.94939 28.075 1.64692 28.7633 2.50134 28.7633V28.1633C1.97296 28.1633 1.54939 27.7383 1.54939 27.2244H0.94939ZM0.94939 26.2367V27.2244H1.54939V26.2367H0.94939ZM2.50134 24.6978C1.64948 24.6978 0.94939 25.3836 0.94939 26.2367H1.54939C1.54939 25.7215 1.9743 25.2978 2.50134 25.2978V24.6978ZM3.24939 24.6978H2.50134V25.2978H3.24939V24.6978ZM2.94939 13.867V24.9978H3.54939V13.867H2.94939ZM9.50139 7.3801C5.89143 7.3801 2.94939 10.2869 2.94939 13.867H3.54939C3.54939 10.6242 6.21685 7.9801 9.50139 7.9801V7.3801ZM15.2707 7.37624L9.50119 7.3801L9.50159 7.9801L15.2711 7.97624L15.2707 7.37624ZM14.9709 5.70286V7.67624H15.5709V5.70286H14.9709ZM2.25737 2.72509C2.68842 3.15164 3.34535 3.52626 4.15769 3.85886C4.97484 4.19341 5.97196 4.49446 7.10349 4.7631C9.36682 5.30045 12.1923 5.71381 15.2427 6.00153L15.2991 5.40418C12.264 5.1179 9.46849 4.70791 7.24208 4.17932C6.12874 3.915 5.1638 3.62244 4.38503 3.30359C3.60147 2.98278 3.02864 2.6442 2.67941 2.29861L2.25737 2.72509ZM2.06844 1.50375C1.85405 1.90903 1.93111 2.40497 2.25828 2.72598L2.6785 2.29771C2.54083 2.16263 2.50851 1.955 2.59881 1.78432L2.06844 1.50375ZM3.18334 0.962163C2.73018 0.881119 2.28199 1.1028 2.06884 1.50301L2.59841 1.78506C2.68996 1.61316 2.88243 1.51787 3.07771 1.55279L3.18334 0.962163ZM22.7555 1.95671C15.8393 1.95671 8.12849 1.83794 3.18284 0.962074L3.07821 1.55288C8.08556 2.43968 15.8518 2.55671 22.7555 2.55671V1.95671ZM27.0531 1.94705C25.6667 1.95285 24.2238 1.95671 22.7555 1.95671V2.55671C24.2248 2.55671 25.6686 2.55284 27.0556 2.54704L27.0531 1.94705ZM28.0998 1.94359C27.7549 1.94478 27.406 1.94599 27.0535 1.94705L27.0553 2.54704C27.408 2.54598 27.757 2.54478 28.1018 2.54359L28.0998 1.94359ZM28.0998 1.94359L28.0997 1.94359L28.1019 2.54359L28.102 2.54359L28.0998 1.94359ZM28.0999 1.94359L28.0998 1.94359L28.102 2.54359L28.1021 2.54359L28.0999 1.94359ZM28.1 1.94359L28.0999 1.94359L28.1021 2.54359L28.1022 2.54359L28.1 1.94359ZM28.1004 1.94359L28.1 1.94359L28.1022 2.54359L28.1025 2.54359L28.1004 1.94359ZM28.1007 1.94359L28.1005 1.94359L28.1024 2.54359L28.1026 2.54359L28.1007 1.94359ZM28.1006 1.94359L28.1005 1.94359L28.1028 2.54359L28.1029 2.54359L28.1006 1.94359ZM30.7497 1.93738C29.9 1.93738 29.0143 1.94044 28.1007 1.94359L28.1028 2.54359C29.0166 2.54043 29.9012 2.53738 30.7497 2.53738V1.93738ZM37.1873 1.93931L30.7498 1.93738L30.7496 2.53738L37.1871 2.53931L37.1873 1.93931ZM37.1891 1.93931H37.1872V2.53931H37.1891V1.93931ZM47.6962 1.74252C44.2229 1.91032 41.545 1.93931 37.1891 1.93931V2.53931C41.5482 2.53931 44.2374 2.51032 47.7251 2.34182L47.6962 1.74252ZM48.7566 2.49602C48.6209 2.02752 48.1746 1.72364 47.6988 1.7424L47.7225 2.34194C47.9341 2.33359 48.1245 2.47039 48.1803 2.66291L48.7566 2.49602ZM48.2606 3.6941C48.6847 3.45853 48.8915 2.9619 48.7566 2.49603L48.1803 2.6629C48.2368 2.85807 48.1506 3.06885 47.9692 3.16958L48.2606 3.6941ZM46.3401 4.49423C47.0923 4.25071 47.7365 3.98472 48.2604 3.69421L47.9694 3.16947C47.4895 3.4356 46.8837 3.68758 46.1553 3.9234L46.3401 4.49423ZM46.5477 5.7106V4.20881H45.9477V5.7106H46.5477ZM45.4189 7.52713C46.1229 7.17537 46.5477 6.49429 46.5477 5.7106H45.9477C45.9477 6.26444 45.6537 6.73911 45.1507 6.99039L45.4189 7.52713ZM44.4919 7.7501C44.8077 7.7501 45.1229 7.67471 45.4187 7.52724L45.151 6.99028C44.935 7.09793 44.7112 7.1501 44.4919 7.1501V7.7501ZM43.2769 7.34575C43.6404 7.61323 44.0639 7.7501 44.4919 7.7501V7.1501C44.1934 7.1501 43.8942 7.05504 43.6326 6.86252L43.2769 7.34575ZM40.8573 5.56978L43.2772 7.34598L43.6323 6.86229L41.2124 5.08609L40.8573 5.56978ZM29.7567 6.4551C34.1512 6.35441 37.9802 6.07164 41.0777 5.62486L40.992 5.03101C37.9255 5.47332 34.1219 5.75493 29.743 5.85525L29.7567 6.4551ZM30.0499 7.68205V6.15517H29.4499V7.68205H30.0499ZM34.9978 7.38012L29.7498 7.38205L29.75 7.98205L34.998 7.98012L34.9978 7.38012ZM44.0826 10.409C41.556 8.51014 38.4092 7.38012 34.9979 7.38012V7.98012C38.2746 7.98012 41.2957 9.06509 43.7221 10.8887L44.0826 10.409ZM44.2909 10.57L44.0858 10.4115L43.7189 10.8862L43.924 11.0447L44.2909 10.57ZM49.0472 16.9394C48.0642 14.412 46.4058 12.2169 44.2918 10.5707L43.9231 11.0441C45.9536 12.6252 47.5451 14.7326 48.488 17.1569L49.0472 16.9394ZM49.0412 16.9245L49.0354 16.9129L48.4998 17.1835L48.5057 17.1951L49.0412 16.9245ZM49.0641 16.9774L49.0504 16.9445L48.4965 17.175L48.5101 17.2079L49.0641 16.9774ZM49.109 17.0945C49.094 17.0568 49.0813 17.0246 49.0698 16.9923L48.5044 17.193C48.5201 17.2371 48.5368 17.2792 48.5511 17.3154L49.109 17.0945ZM49.1086 17.0937L49.1086 17.0935L48.5515 17.3164L48.5515 17.3165L49.1086 17.0937ZM49.1099 17.0969L49.1099 17.0968L48.5503 17.3134L48.5504 17.3135L49.1099 17.0969ZM49.1087 17.0939L49.1087 17.0938L48.5516 17.3166L48.5516 17.3168L49.1087 17.0939ZM49.11 17.0971L49.11 17.097L48.5504 17.3136L48.5504 17.3137L49.11 17.0971ZM49.1088 17.0941L49.1088 17.094L48.5517 17.3168L48.5517 17.317L49.1088 17.0941ZM49.149 17.1985C49.1357 17.1619 49.1216 17.1264 49.1092 17.0951L48.5513 17.316C48.5642 17.3485 48.5753 17.3765 48.5854 17.4042L49.149 17.1985ZM49.4456 17.9598L49.1468 17.1925L48.5877 17.4102L48.8865 18.1775L49.4456 17.9598ZM49.1231 18.3687H49.166V17.7687H49.1231V18.3687ZM50.05 22.2763C50.05 20.7848 49.8247 19.3425 49.41 17.9813L48.8361 18.1561C49.2339 19.4621 49.45 20.8455 49.45 22.2763H50.05ZM46.9317 16.2861H36.0002V16.8861H46.9317V16.2861ZM46.9319 16.2861H46.9317V16.8861H46.9319V16.2861ZM43.1902 12.366C44.6585 13.5564 45.8419 15.0431 46.6625 16.7181L47.2013 16.4542C46.3422 14.7005 45.1037 13.1449 43.5681 11.9L43.1902 12.366ZM36.0002 12.433H43.3792V11.833H36.0002V12.433ZM36.0502 12.3804C36.0502 12.4014 36.0413 12.4143 36.0356 12.4199C36.03 12.4256 36.0184 12.433 36.0002 12.433V11.833C35.7027 11.833 35.4502 12.0784 35.4502 12.3804H36.0502ZM36.0502 16.3387V12.3804H35.4502V16.3387H36.0502ZM36.0002 16.2861C36.0184 16.2861 36.03 16.2936 36.0356 16.2992C36.0413 16.3048 36.0502 16.3177 36.0502 16.3387H35.4502C35.4502 16.6407 35.7027 16.8861 36.0002 16.8861V16.2861ZM44.7444 6.20177C44.8315 6.15867 44.9129 6.09407 44.9707 6.001C45.0285 5.90793 45.05 5.80669 45.05 5.71061H44.45C44.45 5.71434 44.4496 5.71266 44.451 5.70714C44.4525 5.70127 44.4556 5.69318 44.461 5.68453C44.4663 5.67588 44.4722 5.66966 44.4766 5.66585C44.4807 5.66228 44.4821 5.66211 44.4783 5.664L44.7444 6.20177ZM44.1717 6.15125C44.248 6.20744 44.3411 6.25094 44.4501 6.26068C44.5592 6.27044 44.6588 6.24411 44.7444 6.20177L44.4783 5.664C44.4737 5.66626 44.4743 5.66539 44.4794 5.66429C44.4849 5.6631 44.4934 5.66216 44.5036 5.66307C44.5137 5.66398 44.5218 5.66639 44.5269 5.66848C44.5315 5.6704 44.5318 5.67125 44.5275 5.66813L44.1717 6.15125ZM42.9145 5.22971L44.1723 6.15165L44.527 5.66773L43.2692 4.74578L42.9145 5.22971ZM44.679 4.33871C44.1687 4.46306 43.6209 4.58182 43.0358 4.69302L43.1478 5.28247C43.7424 5.16947 44.3002 5.04857 44.821 4.92165L44.679 4.33871ZM45.05 5.71062L45.05 4.63018L44.45 4.63018L44.45 5.71061L45.05 5.71062ZM26.0918 4.03625L26.092 4.03625L26.0896 3.43625L26.0895 3.43625L26.0918 4.03625ZM22.758 4.04302C23.8897 4.04302 25.0052 4.03959 26.0915 4.03625L26.0897 3.43625C25.0032 3.4396 23.8887 3.44302 22.758 3.44302V4.04302ZM22.7313 3.44421L22.7309 3.44426L22.7852 4.04179L22.7856 4.04175L22.7313 3.44421ZM9.31732 3.72346C13.5287 3.99277 18.3181 4.04298 22.7585 4.04298V3.44298C18.3198 3.44298 13.5466 3.39269 9.35561 3.12469L9.31732 3.72346ZM26.0005 4.41133C19.1881 4.41133 13.4041 3.8788 9.39156 3.12918L9.28138 3.71897C13.3388 4.47698 19.1609 5.01133 26.0005 5.01133V4.41133ZM41.6949 3.41203C37.7337 4.04839 32.2643 4.41133 26.0005 4.41133V5.01133C32.2826 5.01133 37.7864 4.64761 41.7901 4.00444L41.6949 3.41203ZM37.1917 4.0295C38.9188 4.0295 40.3869 4.0237 41.7459 4.00822L41.739 3.40825C40.3832 3.4237 38.9176 3.4295 37.1917 3.4295V4.0295ZM37.1897 4.0295H37.1917V3.4295H37.1897V4.0295ZM30.7499 4.0237L37.1894 4.0295L37.19 3.4295L30.7505 3.4237L30.7499 4.0237ZM27.0621 4.03336C28.347 4.02756 29.5829 4.0237 30.7502 4.0237V3.4237C29.5816 3.4237 28.3448 3.42756 27.0594 3.43336L27.0621 4.03336ZM26.0917 4.03625L27.0617 4.03336L27.0599 3.43336L26.0899 3.43625L26.0917 4.03625ZM26 5.89574C22.9646 5.89574 19.7968 5.77426 16.7951 5.53717L16.7479 6.13531C19.7658 6.37368 22.9494 6.49574 26 6.49574V5.89574ZM28.2461 5.8803C27.5108 5.88995 26.7622 5.89574 26 5.89574V6.49574C26.7652 6.49574 27.5165 6.48993 28.254 6.48025L28.2461 5.8803ZM28.55 7.68009V6.18027H27.95V7.68009H28.55ZM16.7715 7.98009H28.25V7.38009H16.7715V7.98009ZM16.4715 5.83624V7.68009H17.0715V5.83624H16.4715ZM11.75 30.6355C10.1198 30.6355 8.80002 29.325 8.80002 27.7194H8.20002C8.20002 29.6623 9.79435 31.2355 11.75 31.2355V30.6355ZM14.7 27.7194C14.7 29.325 13.3802 30.6355 11.75 30.6355V31.2355C13.7057 31.2355 15.3 29.6623 15.3 27.7194H14.7ZM11.75 24.8032C13.3802 24.8032 14.7 26.1138 14.7 27.7194H15.3C15.3 25.7765 13.7057 24.2032 11.75 24.2032V24.8032ZM8.80002 27.7194C8.80002 26.1138 10.1198 24.8032 11.75 24.8032V24.2032C9.79435 24.2032 8.20002 25.7765 8.20002 27.7194H8.80002ZM34.95 27.7194C34.95 29.6623 36.5443 31.2355 38.5 31.2355V30.6355C36.8698 30.6355 35.55 29.325 35.55 27.7194H34.95ZM38.5 24.2032C36.5443 24.2032 34.95 25.7765 34.95 27.7194H35.55C35.55 26.1138 36.8698 24.8032 38.5 24.8032V24.2032ZM42.05 27.7194C42.05 25.7765 40.4557 24.2032 38.5 24.2032V24.8032C40.1302 24.8032 41.45 26.1138 41.45 27.7194H42.05ZM38.5 31.2355C40.4557 31.2355 42.05 29.6623 42.05 27.7194H41.45C41.45 29.325 40.1302 30.6355 38.5 30.6355V31.2355ZM43.4817 26.9294C43.0971 24.5447 41.0113 22.7189 38.5 22.7189V23.3189C40.7153 23.3189 42.5514 24.9295 42.8894 27.025L43.4817 26.9294ZM49.25 26.6772H43.1856V27.2772H49.25V26.6772ZM48.95 26.4824V26.9772H49.55V26.4824H48.95ZM44.75 26.7824H49.25V26.1824H44.75V26.7824ZM44.45 24.998V26.4824H45.05V24.998H44.45ZM48.25 24.698H44.75V25.298H48.25V24.698ZM47.95 22.2786V24.998H48.55V22.2786H47.95ZM47.2631 18.1682C47.7058 19.4601 47.95 20.8401 47.95 22.2786H48.55C48.55 20.7716 48.2941 19.3259 47.8307 17.9737L47.2631 18.1682ZM35.9999 18.371H47.5469V17.771H35.9999V18.371ZM33.9499 16.3392C33.9499 17.4626 34.8723 18.371 35.9999 18.371V17.771C35.1977 17.771 34.5499 17.1253 34.5499 16.3392H33.9499ZM33.9499 12.3808V16.3392H34.5499V12.3808H33.9499ZM35.9999 10.3491C34.8723 10.3491 33.9499 11.2574 33.9499 12.3808H34.5499C34.5499 11.5947 35.1977 10.9491 35.9999 10.9491V10.3491ZM41.1114 10.3491H35.9999V10.9491H41.1114V10.3491ZM34.9979 9.4647C37.1515 9.4647 39.1846 9.99174 40.9737 10.9156L41.249 10.3825C39.3776 9.41612 37.2504 8.8647 34.9979 8.8647V9.4647ZM9.50187 9.4647H34.9979V8.8647H9.50187V9.4647ZM5.04992 13.8672C5.04992 11.4438 7.04356 9.4647 9.50187 9.4647V8.8647C6.71797 8.8647 4.44992 11.1067 4.44992 13.8672H5.04992ZM5.04992 16.5866V13.8672H4.44992V16.5866H5.04992ZM12.2849 16.2866H4.74992V16.8866H12.2849V16.2866ZM12.5849 18.071V16.5866H11.9849V18.071H12.5849ZM4.74992 18.371H12.2849V17.771H4.74992V18.371ZM5.04992 24.998V18.071H4.44992V24.998H5.04992ZM5.74992 24.698H4.74992V25.298H5.74992V24.698ZM6.04992 26.4824V24.998H5.44992V26.4824H6.04992ZM2.74992 26.7824H5.74992V26.1824H2.74992V26.7824ZM3.04992 26.9772V26.4824H2.44992V26.9772H3.04992ZM7.06437 26.6772H2.74992V27.2772H7.06437V26.6772ZM11.7499 22.7189C9.23842 22.7189 7.15492 24.5449 6.76823 26.9292L7.3605 27.0252C7.70041 24.9294 9.53481 23.3189 11.7499 23.3189V22.7189ZM16.7316 26.9294C16.347 24.5447 14.2612 22.7189 11.7499 22.7189V23.3189C13.9652 23.3189 15.8013 24.9295 16.1393 27.025L16.7316 26.9294ZM33.8145 26.6772H16.4355V27.2772H33.8145V26.6772ZM38.5 22.7189C35.9885 22.7189 33.905 24.5449 33.5183 26.9292L34.1106 27.0252C34.4505 24.9294 36.2849 23.3189 38.5 23.3189V22.7189Z" fill="#222532"/>
<path fill-rule="evenodd" clip-rule="evenodd" d="M23.75 12.3805V16.3388C23.75 17.2936 22.9648 18.0706 22 18.0706H17C16.0351 18.0706 15.25 17.2936 15.25 16.3388V12.3805C15.25 11.4257 16.0351 10.6487 17 10.6487H22C22.9648 10.6487 23.75 11.4257 23.75 12.3805ZM16.75 12.3805V16.3388C16.75 16.4741 16.8652 16.5862 17 16.5862H22C22.1348 16.5862 22.25 16.4721 22.25 16.3388V12.3805C22.25 12.2471 22.1348 12.1331 22 12.1331H17C16.8652 12.1331 16.75 12.2471 16.75 12.3805Z" fill="white"/>
<path d="M24.05 16.3388V12.3805H23.45V16.3388H24.05ZM22 18.3706C23.1276 18.3706 24.05 17.4622 24.05 16.3388H23.45C23.45 17.1249 22.8021 17.7706 22 17.7706V18.3706ZM17 18.3706H22V17.7706H17V18.3706ZM14.95 16.3388C14.95 17.4622 15.8724 18.3706 17 18.3706V17.7706C16.1979 17.7706 15.55 17.1249 15.55 16.3388H14.95ZM14.95 12.3805V16.3388H15.55V12.3805H14.95ZM17 10.3487C15.8724 10.3487 14.95 11.257 14.95 12.3805H15.55C15.55 11.5943 16.1979 10.9487 17 10.9487V10.3487ZM22 10.3487H17V10.9487H22V10.3487ZM24.05 12.3805C24.05 11.257 23.1276 10.3487 22 10.3487V10.9487C22.8021 10.9487 23.45 11.5943 23.45 12.3805H24.05ZM17.05 16.3388V12.3805H16.45V16.3388H17.05ZM17 16.2862C17.0167 16.2862 17.0284 16.293 17.0349 16.2994C17.0417 16.3061 17.05 16.3195 17.05 16.3388H16.45C16.45 16.6442 16.704 16.8862 17 16.8862V16.2862ZM22 16.2862H17V16.8862H22V16.2862ZM21.95 16.3388C21.95 16.3178 21.9589 16.3049 21.9645 16.2993C21.9702 16.2936 21.9818 16.2862 22 16.2862V16.8862C22.2975 16.8862 22.55 16.6408 22.55 16.3388H21.95ZM21.95 12.3805V16.3388H22.55V12.3805H21.95ZM22 12.4331C21.9818 12.4331 21.9702 12.4256 21.9645 12.42C21.9589 12.4144 21.95 12.4015 21.95 12.3805H22.55C22.55 12.0785 22.2975 11.8331 22 11.8331V12.4331ZM17 12.4331H22V11.8331H17V12.4331ZM17.05 12.3805C17.05 12.4015 17.0411 12.4144 17.0355 12.42C17.0298 12.4256 17.0182 12.4331 17 12.4331V11.8331C16.7025 11.8331 16.45 12.0785 16.45 12.3805H17.05Z" fill="#222532"/>
<path fill-rule="evenodd" clip-rule="evenodd" d="M26.5 10.6487H31.5C32.4648 10.6487 33.25 11.4257 33.25 12.3805V16.3388C33.25 17.2936 32.4648 18.0706 31.5 18.0706H26.5C25.5351 18.0706 24.75 17.2936 24.75 16.3388V12.3805C24.75 11.4257 25.5351 10.6487 26.5 10.6487ZM31.5 16.5862C31.6348 16.5862 31.75 16.4721 31.75 16.3388V12.3805C31.75 12.2471 31.6348 12.1331 31.5 12.1331H26.5C26.3652 12.1331 26.25 12.2471 26.25 12.3805V16.3388C26.25 16.4721 26.3652 16.5862 26.5 16.5862H31.5Z" fill="white"/>
<path d="M31.5 10.3487H26.5V10.9487H31.5V10.3487ZM33.55 12.3805C33.55 11.257 32.6276 10.3487 31.5 10.3487V10.9487C32.3021 10.9487 32.95 11.5943 32.95 12.3805H33.55ZM33.55 16.3388V12.3805H32.95V16.3388H33.55ZM31.5 18.3706C32.6276 18.3706 33.55 17.4622 33.55 16.3388H32.95C32.95 17.1249 32.3021 17.7706 31.5 17.7706V18.3706ZM26.5 18.3706H31.5V17.7706H26.5V18.3706ZM24.45 16.3388C24.45 17.4622 25.3724 18.3706 26.5 18.3706V17.7706C25.6979 17.7706 25.05 17.1249 25.05 16.3388H24.45ZM24.45 12.3805V16.3388H25.05V12.3805H24.45ZM26.5 10.3487C25.3724 10.3487 24.45 11.257 24.45 12.3805H25.05C25.05 11.5943 25.6979 10.9487 26.5 10.9487V10.3487ZM31.45 16.3388C31.45 16.3178 31.4589 16.3049 31.4645 16.2993C31.4702 16.2936 31.4818 16.2862 31.5 16.2862V16.8862C31.7975 16.8862 32.05 16.6408 32.05 16.3388H31.45ZM31.45 12.3805V16.3388H32.05V12.3805H31.45ZM31.5 12.4331C31.4818 12.4331 31.4702 12.4256 31.4645 12.42C31.4589 12.4144 31.45 12.4015 31.45 12.3805H32.05C32.05 12.0785 31.7975 11.8331 31.5 11.8331V12.4331ZM26.5 12.4331H31.5V11.8331H26.5V12.4331ZM26.55 12.3805C26.55 12.4015 26.5411 12.4144 26.5355 12.42C26.5298 12.4256 26.5182 12.4331 26.5 12.4331V11.8331C26.2025 11.8331 25.95 12.0785 25.95 12.3805H26.55ZM26.55 16.3388V12.3805H25.95V16.3388H26.55ZM26.5 16.2862C26.5182 16.2862 26.5298 16.2936 26.5355 16.2993C26.5411 16.3049 26.55 16.3178 26.55 16.3388H25.95C25.95 16.6408 26.2025 16.8862 26.5 16.8862V16.2862ZM31.5 16.2862H26.5V16.8862H31.5V16.2862Z" fill="#222532"/>
<path fill-rule="evenodd" clip-rule="evenodd" d="M36.5 27.7189C36.5 26.6269 37.3965 25.7397 38.5 25.7397C39.6035 25.7397 40.5 26.6288 40.5 27.7189C40.5 28.8109 39.6035 29.6981 38.5 29.6981C37.3965 29.6981 36.5 28.8109 36.5 27.7189ZM38 27.7189C38 27.9914 38.2246 28.2137 38.5 28.2137C38.7754 28.2137 39 27.9914 39 27.7189C39 27.4464 38.7754 27.2241 38.5 27.2241C38.2246 27.2241 38 27.4464 38 27.7189Z" fill="white"/>
<path d="M38.5 25.4397C37.2338 25.4397 36.2 26.4583 36.2 27.7189H36.8C36.8 26.7955 37.5592 26.0397 38.5 26.0397V25.4397ZM40.8 27.7189C40.8 26.4604 39.7664 25.4397 38.5 25.4397V26.0397C39.4406 26.0397 40.2 26.7973 40.2 27.7189H40.8ZM38.5 29.9981C39.7662 29.9981 40.8 28.9796 40.8 27.7189H40.2C40.2 28.6423 39.4408 29.3981 38.5 29.3981V29.9981ZM36.2 27.7189C36.2 28.9796 37.2338 29.9981 38.5 29.9981V29.3981C37.5592 29.3981 36.8 28.6423 36.8 27.7189H36.2ZM38.5 27.9137C38.3873 27.9137 38.3 27.8228 38.3 27.7189H37.7C37.7 28.1601 38.0619 28.5137 38.5 28.5137V27.9137ZM38.7 27.7189C38.7 27.8228 38.6127 27.9137 38.5 27.9137V28.5137C38.9381 28.5137 39.3 28.1601 39.3 27.7189H38.7ZM38.5 27.5241C38.6127 27.5241 38.7 27.615 38.7 27.7189H39.3C39.3 27.2778 38.9381 26.9241 38.5 26.9241V27.5241ZM38.3 27.7189C38.3 27.615 38.3873 27.5241 38.5 27.5241V26.9241C38.0619 26.9241 37.7 27.2778 37.7 27.7189H38.3Z" fill="#222532"/>
<path fill-rule="evenodd" clip-rule="evenodd" d="M9.75 27.7189C9.75 26.6269 10.6465 25.7397 11.75 25.7397C12.8535 25.7397 13.75 26.6288 13.75 27.7189C13.75 28.8109 12.8535 29.6981 11.75 29.6981C10.6465 29.6981 9.75 28.809 9.75 27.7189ZM11.25 27.7189C11.25 27.9914 11.4746 28.2137 11.75 28.2137C12.0254 28.2137 12.25 27.9914 12.25 27.7189C12.25 27.4464 12.0254 27.2241 11.75 27.2241C11.4746 27.2241 11.25 27.4464 11.25 27.7189Z" fill="white"/>
<path d="M11.75 25.4397C10.4838 25.4397 9.45 26.4583 9.45 27.7189H10.05C10.05 26.7955 10.8092 26.0397 11.75 26.0397V25.4397ZM14.05 27.7189C14.05 26.4604 13.0164 25.4397 11.75 25.4397V26.0397C12.6906 26.0397 13.45 26.7973 13.45 27.7189H14.05ZM11.75 29.9981C13.0162 29.9981 14.05 28.9796 14.05 27.7189H13.45C13.45 28.6423 12.6908 29.3981 11.75 29.3981V29.9981ZM9.45 27.7189C9.45 28.9774 10.4836 29.9981 11.75 29.9981V29.3981C10.8094 29.3981 10.05 28.6405 10.05 27.7189H9.45ZM11.75 27.9137C11.6373 27.9137 11.55 27.8228 11.55 27.7189H10.95C10.95 28.1601 11.3119 28.5137 11.75 28.5137V27.9137ZM11.95 27.7189C11.95 27.8228 11.8627 27.9137 11.75 27.9137V28.5137C12.1881 28.5137 12.55 28.1601 12.55 27.7189H11.95ZM11.75 27.5241C11.8627 27.5241 11.95 27.615 11.95 27.7189H12.55C12.55 27.2778 12.1881 26.9241 11.75 26.9241V27.5241ZM11.55 27.7189C11.55 27.615 11.6373 27.5241 11.75 27.5241V26.9241C11.3119 26.9241 10.95 27.2778 10.95 27.7189H11.55Z" fill="#222532"/>
<path d="M17.25 24.9976H32.75V26.4819H17.25V24.9976Z" fill="white" stroke="#222532" stroke-width="0.6"/>
</svg>
