<svg width="47" height="48" viewBox="0 0 47 48" fill="none" xmlns="http://www.w3.org/2000/svg">
<g filter="url(#filter0_d_902_5150)">
<path d="M42.0371 32.1882H33.7503C33.4851 32.1882 33.2688 32.4062 33.2688 32.6735C33.2688 32.9409 33.4851 33.1589 33.7503 33.1589H42.0371C42.3022 33.1589 42.5185 32.9409 42.5185 32.6735C42.5185 32.4062 42.3022 32.1882 42.0371 32.1882Z" fill="white"/>
<path d="M42.037 38.3401H32.7459C32.4807 38.3401 32.2644 38.5581 32.2644 38.8254C32.2644 39.0927 32.4807 39.3107 32.7459 39.3107H42.037C42.3022 39.3107 42.5185 39.0927 42.5185 38.8254C42.5185 38.5581 42.3022 38.3401 42.037 38.3401Z" fill="white"/>
<path d="M4.48148 35.6918H11.9743C12.2395 35.6918 12.4558 35.4738 12.4558 35.2065C12.4558 34.9392 12.2395 34.7212 11.9743 34.7212H4.48148C4.21629 34.7212 4 34.9392 4 35.2065C4 35.4757 4.21629 35.6918 4.48148 35.6918Z" fill="white"/>
<path fill-rule="evenodd" clip-rule="evenodd" d="M7.74484 0.534824C7.93101 0.441935 8.15295 0.479848 8.29965 0.627719L8.29989 0.627947C8.44471 0.775793 8.48232 1.00139 8.38828 1.18907C8.08924 1.79193 7.93878 2.43458 7.93878 3.1C7.93878 5.47727 9.86846 7.41286 12.2383 7.41286C12.9022 7.41286 13.5435 7.25931 14.1454 6.95977C14.3315 6.86688 14.5535 6.9048 14.7002 7.05267C14.8469 7.20051 14.8826 7.42611 14.7905 7.6119C13.8933 9.42616 12.0878 10.5522 10.0791 10.5522C7.17683 10.5522 4.81647 8.18045 4.81647 5.26666C4.81647 3.24764 5.93928 1.43533 7.74484 0.534824ZM13.1277 8.30724C12.8342 8.35842 12.5389 8.38307 12.238 8.38307L12.2381 8.38324C9.33597 8.38324 6.9756 6.01339 6.97748 3.0996C6.97748 2.79628 7.00193 2.49862 7.05271 2.20478C6.24775 2.99909 5.77943 4.09106 5.77943 5.26644C5.77943 7.64561 7.70911 9.58119 10.0789 9.58119C11.2506 9.58119 12.3359 9.11296 13.1277 8.30724Z" fill="white"/>
<path fill-rule="evenodd" clip-rule="evenodd" d="M42.039 24.4101H42.0371C41.7719 24.4101 41.5575 24.6262 41.5556 24.8935L41.5443 27.485L23.677 0.923621C23.4984 0.656319 23.0602 0.656319 22.8796 0.923621L5.02532 27.466L5.03661 24.7153C5.03849 24.448 4.8222 24.2281 4.55701 24.2281H4.55513C4.28994 24.2281 4.07553 24.4442 4.07365 24.7115L4.05672 29.0528C4.05484 29.267 4.19402 29.4547 4.39526 29.5191C4.44228 29.5343 4.4893 29.54 4.5382 29.54C4.69431 29.54 4.84477 29.4623 4.93693 29.3277L7.7468 25.1513V29.0566C7.7468 29.3239 7.9631 29.5419 8.22829 29.5419H18.9523C19.4996 31.3315 21.1603 32.6358 23.1201 32.6358C23.1267 32.6358 23.1328 32.6353 23.1389 32.6348L23.1389 32.6348C23.145 32.6344 23.1512 32.6339 23.1577 32.6339C23.1605 32.6339 23.1638 32.6343 23.1671 32.6348L23.1671 32.6348L23.1672 32.6348C23.1705 32.6353 23.1737 32.6358 23.1765 32.6358C23.1825 32.6358 23.1885 32.6352 23.1944 32.6344L23.2048 32.6329C23.2142 32.6315 23.2236 32.6301 23.233 32.6301C25.1419 32.5808 26.75 31.2955 27.2861 29.5419H38.3303C38.5955 29.5419 38.8118 29.3239 38.8118 29.0566V25.1513L41.6217 29.3277C41.7402 29.504 41.9583 29.5817 42.1596 29.5191C42.3608 29.4566 42.5 29.2689 42.5 29.0566L42.5188 24.8973C42.5207 24.6281 42.3063 24.4119 42.0392 24.4101L42.039 24.4101ZM23.2328 31.6597L23.2274 31.6601C23.2031 31.6619 23.1803 31.6635 23.1576 31.6635C22.3225 31.6521 21.6454 30.9696 21.6454 30.1318C21.6454 29.5801 22.4504 28.3099 23.1764 27.3525C23.9024 28.3099 24.7074 29.58 24.7074 30.1318C24.7074 30.9564 24.051 31.6294 23.2328 31.6597L23.2328 31.6597ZM25.6684 30.1298C25.6684 30.2739 25.6496 30.4104 25.6271 30.5469L25.6271 30.5469C26.1781 29.9403 26.5166 29.1384 26.5129 28.2568C26.5129 26.8028 24.3236 23.7089 23.1162 22.1695C21.9106 23.7089 19.7195 26.8047 19.7195 28.2568C19.7195 29.2123 20.1163 30.0768 20.7501 30.6967C20.7088 30.5128 20.6805 30.3251 20.6805 30.1298C20.6805 28.9013 22.4504 26.6928 22.804 26.2624C22.9864 26.0406 23.3626 26.0406 23.545 26.2624C23.9005 26.6928 25.6684 28.9014 25.6684 30.1298ZM23.4905 21.089C23.3081 20.8672 22.9319 20.8672 22.7494 21.089C22.3413 21.5838 18.7603 25.997 18.7603 28.2572C18.7603 28.3333 18.7651 28.4084 18.7699 28.4832V28.4833C18.7718 28.5128 18.7737 28.5423 18.7753 28.5719H13.9268V25.3718C14.555 24.8599 16.637 23.0855 18.7455 20.4521C20.457 18.3156 22.4111 15.2957 23.297 11.8528C24.1828 15.2974 26.1369 18.3153 27.8485 20.4521C29.9568 23.0854 32.0388 24.8598 32.6671 25.3718V28.5719H27.4628C27.4703 28.4676 27.4778 28.3633 27.4778 28.2572C27.4797 25.9974 23.8987 21.5841 23.4906 21.089H23.4905ZM33.6278 28.5716H37.8483L37.8508 23.7204L23.2802 2.06121L8.70957 23.7204V28.5716H12.962V25.1365C12.962 24.9849 13.0316 24.8427 13.1501 24.7517L13.1504 24.7514C13.2667 24.6595 22.8134 17.1172 22.8134 8.19028C22.8134 7.92298 23.0297 7.70496 23.2949 7.70496C23.5601 7.70496 23.7764 7.92298 23.7764 8.19028C23.7764 17.1141 33.3165 24.6543 33.4393 24.7513L33.4397 24.7517C33.5582 24.8446 33.6278 24.9868 33.6278 25.1365V28.5716Z" fill="white"/>
<path fill-rule="evenodd" clip-rule="evenodd" d="M30.596 34.4332C30.6393 34.5545 30.6299 34.691 30.5734 34.8067L30.5738 34.8067C30.5154 34.9242 30.4158 35.0133 30.2916 35.055L28.5105 35.6484L30.2221 36.1356C30.3462 36.1717 30.4515 36.2551 30.5136 36.3688C30.5756 36.4826 30.5888 36.6153 30.5531 36.7404L29.9381 38.8295C29.876 39.04 29.6861 39.1765 29.4773 39.1765C29.434 39.1765 29.3889 39.1689 29.3456 39.1575L23.2178 37.4115L17.5941 39.2864C17.5452 39.3035 17.4944 39.311 17.4437 39.311C17.2443 39.311 17.0581 39.1859 16.9923 38.985L16.2832 36.9243C16.2399 36.8029 16.2493 36.6664 16.3058 36.5508C16.3622 36.4333 16.4637 36.3461 16.586 36.3044L18.0718 35.8096L16.2869 35.3015C16.1628 35.2655 16.0575 35.1821 15.9954 35.0683C15.9334 34.9546 15.9202 34.8219 15.9559 34.6967L16.5709 32.6076C16.6462 32.3517 16.9095 32.2057 17.1634 32.2777L23.3644 34.0446L29.2813 32.0711C29.5315 31.9877 29.8004 32.1223 29.8869 32.3725L30.596 34.4332ZM17.3591 33.3413L17.0168 34.4996L19.7026 35.2654L21.7338 34.5887L17.3591 33.3413ZM29.4901 36.9356L29.1478 38.0939L24.8483 36.8674L26.8796 36.1906L29.4901 36.9356ZM17.3498 37.0721L17.7429 38.2152L29.5262 34.2872L29.1331 33.144L17.3498 37.0721Z" fill="white"/>
</g>
<defs>
<filter id="filter0_d_902_5150" x="0" y="0.484375" width="46.5188" height="46.8267" filterUnits="userSpaceOnUse" color-interpolation-filters="sRGB">
<feFlood flood-opacity="0" result="BackgroundImageFix"/>
<feColorMatrix in="SourceAlpha" type="matrix" values="0 0 0 0 0 0 0 0 0 0 0 0 0 0 0 0 0 0 127 0" result="hardAlpha"/>
<feOffset dy="4"/>
<feGaussianBlur stdDeviation="2"/>
<feColorMatrix type="matrix" values="0 0 0 0 0 0 0 0 0 0 0 0 0 0 0 0 0 0 0.25 0"/>
<feBlend mode="normal" in2="BackgroundImageFix" result="effect1_dropShadow_902_5150"/>
<feBlend mode="normal" in="SourceGraphic" in2="effect1_dropShadow_902_5150" result="shape"/>
</filter>
</defs>
</svg>
