<svg id="surf" width="59" height="46" viewBox="0 0 59 46" fill="none" xmlns="http://www.w3.org/2000/svg">
<path fill-rule="evenodd" clip-rule="evenodd" d="M58.2605 42.4858C58.2511 42.5143 58.2394 42.5427 58.2253 42.5689L58.2257 42.5685C58.2116 42.597 58.1975 42.6231 58.1693 42.642C58.1583 42.6595 58.1473 42.6747 58.1364 42.69C58.1309 42.6977 58.1254 42.7053 58.1199 42.7132C58.1011 42.737 58.0799 42.7631 58.0588 42.7868C58.0399 42.8058 58.0211 42.8248 58 42.8438C57.9764 42.8675 57.9506 42.8889 57.9247 42.9079C57.9139 42.9151 57.9019 42.923 57.8895 42.9309C57.8777 42.9384 57.8657 42.946 57.8542 42.9529C57.8471 42.9565 57.8402 42.9602 57.8333 42.964C57.8285 42.9666 57.8238 42.9693 57.819 42.972C57.8031 42.9808 57.7871 42.9898 57.7695 42.998C57.76 43.0028 57.7502 43.0071 57.7403 43.0111C57.7295 43.0154 57.7185 43.0194 57.7074 43.0235C57.6983 43.0268 57.6892 43.0301 57.6801 43.0336C57.6739 43.036 57.6678 43.0386 57.6618 43.0413C57.6561 43.0438 57.6504 43.0463 57.6445 43.0486C57.6379 43.0511 57.6311 43.0533 57.6237 43.055C57.619 43.0562 57.6148 43.0562 57.6107 43.0562H57.6095C57.6058 43.0562 57.602 43.0563 57.5978 43.0574C57.5249 43.0764 57.4497 43.0882 57.3721 43.0882C57.2662 43.0882 57.2286 43.1048 57.2286 43.1048C57.1853 43.1554 57.1068 43.4085 57.057 43.5688L57.0522 43.5842C56.8688 44.1776 56.4855 45.4116 54.9357 45.4116C53.61 45.4116 52.9516 44.5234 52.4698 43.8736L52.4664 43.869C52.0148 43.2543 51.8431 43.0882 51.5045 43.0882C51.1658 43.0882 50.9965 43.2543 50.5426 43.8666L50.5392 43.8711C50.0574 44.521 49.3989 45.4092 48.0709 45.4092C46.7453 45.4092 46.0868 44.521 45.605 43.8711L45.6016 43.8666C45.15 43.2543 44.9784 43.0882 44.6397 43.0882C44.3034 43.0882 44.1317 43.2543 43.6778 43.869C43.1981 44.5192 42.5372 45.4116 41.2085 45.4116C39.8805 45.4116 39.222 44.5234 38.7402 43.8736L38.7368 43.869C38.2853 43.2567 38.1136 43.0906 37.7749 43.0906C37.4363 43.0906 37.2669 43.2567 36.8131 43.869C36.3333 44.5192 35.6748 45.4116 34.3437 45.4116C33.0181 45.4116 32.3596 44.5234 31.8778 43.8736L31.8744 43.869C31.4228 43.2567 31.2512 43.0906 30.9125 43.0906C30.5762 43.0906 30.4045 43.2568 29.9506 43.8714C29.4709 44.5217 28.8101 45.414 27.4813 45.414C26.1557 45.414 25.4972 44.5259 25.0154 43.876L25.012 43.8714C24.5604 43.2591 24.3887 43.093 24.0501 43.093C23.7138 43.093 23.5421 43.2592 23.0882 43.8738C22.6084 44.5241 21.9476 45.4165 20.6189 45.4165C20.1979 45.4165 19.8146 45.2432 19.5441 44.93C18.888 44.1753 19.0197 42.889 19.2901 40.8527L19.2947 40.8175C19.3913 40.0808 19.5386 38.9572 19.49 38.4107C17.7333 38.757 15.2405 42.31 13.947 44.8945C13.7871 45.2173 13.4602 45.4166 13.1075 45.4166C13.0887 45.4166 13.0699 45.4166 13.051 45.4142C12.6771 45.3929 12.3502 45.1484 12.2232 44.7925C12.0069 44.1892 10.1584 38.8188 12.0798 35.8475C12.7994 34.7368 13.9659 34.0984 15.4569 34.0011C16.7526 33.9156 17.3453 33.5644 17.4582 33.2867C17.5334 33.1016 17.4135 32.786 17.1501 32.4846C16.4493 31.68 14.883 31.0345 13.1004 31.5234C10.6286 32.1978 7.85832 35.5416 6.92468 38.9781C6.59777 40.1861 6.24497 42.4217 7.58078 43.8052C7.94294 44.1826 7.93354 44.783 7.56197 45.1485C7.18804 45.514 6.59543 45.5068 6.23091 45.1295C4.75637 43.6036 4.35893 41.2399 5.10913 38.4774C6.08022 34.8985 9.15171 30.6338 12.6088 29.6916C15.1839 28.9892 17.4533 29.9574 18.5633 31.2319C19.3323 32.1123 19.5628 33.1257 19.1983 34.0133C18.8808 34.7847 17.9965 35.7387 15.579 35.8977C14.6783 35.9571 14.0504 36.2822 13.6576 36.8873C12.8651 38.1119 13.0485 40.2834 13.4083 42.0159C14.8195 39.7304 17.2958 36.4103 19.8592 36.491C20.2731 36.5052 20.647 36.6856 20.9104 37.0012C21.1738 37.3145 21.3032 37.7203 21.3502 38.2234C23.0811 37.0677 25.6071 35.9237 30.5927 35.4159C25.1883 13.321 35.3479 0.882848 35.8089 0.33463C35.8128 0.330668 35.8167 0.327532 35.8205 0.324533C35.8257 0.320347 35.8306 0.316428 35.8348 0.310897C35.863 0.280044 35.8912 0.253938 35.9218 0.227833C35.9406 0.208847 35.9594 0.192234 35.9806 0.177994C36.0095 0.158553 36.0384 0.142297 36.0685 0.125312L36.0887 0.113916C36.1076 0.102049 36.1264 0.0901831 36.1475 0.0806901C36.1922 0.0617041 36.2369 0.0474644 36.2839 0.0355983C36.2949 0.0340163 36.3059 0.0303251 36.3169 0.0266338L36.3169 0.0266198C36.3224 0.0247783 36.3278 0.0229374 36.3333 0.0213591C36.3968 0.00711929 36.4627 0 36.5309 0L36.6696 0.00474619C36.9471 0.00474619 37.2081 0.125783 37.3869 0.339373C37.8478 0.884955 47.9579 13.2596 42.65 35.2475C56.5297 36.0685 58.2276 41.6575 58.2935 41.902C58.2958 41.9115 58.2958 41.9233 58.2982 41.9328L58.3123 42.0254C58.317 42.0586 58.3217 42.0918 58.3217 42.1251C58.3217 42.1274 58.3218 42.1297 58.322 42.132L58.3229 42.1393C58.3232 42.1418 58.3235 42.1444 58.3237 42.147C58.3239 42.1492 58.324 42.1513 58.324 42.1535C58.324 42.1599 58.3238 42.1659 58.3233 42.1719C58.3226 42.1821 58.3214 42.1919 58.3201 42.2024L58.3193 42.2081L58.3191 42.2115C58.3168 42.2438 58.3144 42.2781 58.3076 42.3102C58.3064 42.3174 58.305 42.3246 58.3036 42.3318C58.3024 42.3378 58.3011 42.3439 58.2997 42.35C58.2963 42.3652 58.2925 42.3804 58.2888 42.3956L58.2839 42.4121L58.2806 42.4237C58.2746 42.445 58.2687 42.466 58.2605 42.4858ZM37.4711 38.1712H39.9028C45.2579 20.4981 40.2202 8.58419 37.4711 3.85428V38.1712ZM35.5897 4.10337V38.1712H33.2967C28.0453 20.842 32.8193 9.00388 35.5897 4.10337ZM55.262 43.0447L55.2668 43.0292L55.266 43.0293C55.3766 42.6733 55.5647 42.0895 56.028 41.6789C54.9864 40.3499 51.7011 37.6206 42.1648 37.1246C41.9578 37.877 41.7344 38.6388 41.4898 39.4124C41.3651 39.8064 41.003 40.0745 40.5938 40.0745H32.6029C32.1937 40.0745 31.8315 39.8064 31.7069 39.4124C31.4811 38.691 31.2742 37.9813 31.079 37.2813C25.0326 37.8556 22.869 39.3863 21.2157 40.6773C21.2084 40.7329 21.2014 40.7881 21.1944 40.8438C21.1834 40.9308 21.1722 41.019 21.1593 41.1116C21.0676 41.8046 20.9265 42.8726 20.9547 43.4422C21.1264 43.3401 21.3004 43.1313 21.5826 42.7468L21.586 42.7423C22.0678 42.0924 22.7263 41.2042 24.0543 41.2042C25.38 41.2042 26.0384 42.0924 26.5202 42.7422L26.5236 42.7468C26.9752 43.3591 27.1469 43.5252 27.4855 43.5252C27.8242 43.5252 27.9935 43.3591 28.4474 42.7468L28.4508 42.7423C28.9326 42.0924 29.5911 41.2042 30.9191 41.2042C32.2447 41.2042 32.9032 42.0924 33.385 42.7422L33.3884 42.7468C33.8423 43.3591 34.014 43.5252 34.3503 43.5252C34.6889 43.5252 34.8583 43.3591 35.3122 42.7468C35.7919 42.0965 36.4504 41.2042 37.7815 41.2042C39.1071 41.2042 39.7656 42.0924 40.2474 42.7422L40.2508 42.7468C40.7047 43.3615 40.8764 43.5276 41.2151 43.5276C41.5537 43.5276 41.7231 43.3615 42.1769 42.7492L42.1803 42.7447C42.6621 42.0948 43.3207 41.2066 44.6486 41.2066C45.9743 41.2066 46.6328 42.0948 47.1146 42.7447L47.118 42.7492C47.5695 43.3615 47.7412 43.5276 48.0798 43.5276C48.4185 43.5276 48.5902 43.3615 49.0441 42.7468C49.5238 42.0965 50.1847 41.2042 51.5134 41.2042C52.8414 41.2042 53.4999 42.0924 53.9817 42.7422L53.9851 42.7468C54.439 43.3591 54.6107 43.5252 54.947 43.5252C55.0528 43.5252 55.0904 43.5086 55.0904 43.5086C55.1337 43.458 55.2122 43.205 55.262 43.0447Z" fill="white"/>
<path d="M5.95129 29.7604C5.83135 29.6157 4.74017 28.3555 3.34325 28.3555C2.69654 28.3555 1.77229 28.6236 1.04562 29.8981L0.234253 31.3221H7.25405L5.95129 29.7604Z" fill="white"/>
<path fill-rule="evenodd" clip-rule="evenodd" d="M4.12681 33.1992L5.09338 33.3012L4.97113 34.2742C4.61599 36.9038 1.86918 39.6781 1.7516 39.7968L0.479306 41.0688L0.164174 39.2889C-0.209754 37.1957 0.0559871 35.5866 0.952004 34.5068C2.20545 32.9951 4.12681 33.1992 4.12681 33.1992ZM2.39829 35.7243C2.23132 35.9237 2.10668 36.1776 2.01966 36.4766L2.01967 36.4767C2.21957 36.1753 2.41241 35.8596 2.57703 35.5416C2.51588 35.5962 2.45473 35.6555 2.39829 35.7243Z" fill="white"/>
<path fill-rule="evenodd" clip-rule="evenodd" d="M11.3695 27.9161C11.3695 28.9081 10.5676 29.715 9.58458 29.715C8.60157 29.715 7.802 28.9081 7.802 27.9161C7.802 26.9241 8.60157 26.1172 9.58458 26.1172C10.5699 26.1172 11.3695 26.9241 11.3695 27.9161ZM9.68336 27.9161C9.68336 27.8615 9.63867 27.8164 9.58458 27.8164C9.53049 27.8164 9.48816 27.8615 9.48816 27.9161C9.48816 28.0252 9.68336 28.0252 9.68336 27.9161Z" fill="white"/>
</svg>
