<svg id="first-link" width="61" height="48" viewBox="0 0 61 48" fill="none" xmlns="http://www.w3.org/2000/svg">
<path fill-rule="evenodd" clip-rule="evenodd" d="M59.5976 43.8613C59.5882 43.8898 59.5764 43.9182 59.5623 43.9443L59.5628 43.944C59.5487 43.9724 59.5345 43.9986 59.5063 44.0175C59.4953 44.0349 59.4844 44.0502 59.4734 44.0655C59.4679 44.0732 59.4624 44.0808 59.4569 44.0887C59.4381 44.1125 59.417 44.1386 59.3958 44.1623C59.377 44.1813 59.3582 44.2003 59.337 44.2193C59.3135 44.243 59.2876 44.2644 59.2617 44.2833C59.2509 44.2906 59.2389 44.2985 59.2266 44.3064C59.2148 44.3139 59.2027 44.3215 59.1912 44.3284C59.1841 44.332 59.1772 44.3357 59.1704 44.3395C59.1656 44.3421 59.1608 44.3448 59.156 44.3475C59.1402 44.3563 59.1241 44.3653 59.1065 44.3735C59.097 44.3783 59.0873 44.3826 59.0773 44.3866C59.0665 44.3909 59.0555 44.3949 59.0444 44.399C59.0354 44.4023 59.0263 44.4056 59.0172 44.4091C59.0109 44.4115 59.0049 44.4141 58.9989 44.4168C58.9932 44.4193 58.9874 44.4218 58.9815 44.4241C58.975 44.4266 58.9681 44.4288 58.9607 44.4305C58.956 44.4317 58.9519 44.4317 58.9478 44.4317H58.9465C58.9428 44.4317 58.9391 44.4318 58.9349 44.4329C58.862 44.4518 58.7867 44.4637 58.7091 44.4637C58.6033 44.4637 58.5656 44.4803 58.5656 44.4803C58.5224 44.5309 58.4438 44.784 58.394 44.9443L58.3893 44.9597C58.2058 45.553 57.8225 46.7871 56.2727 46.7871C54.9471 46.7871 54.2886 45.8989 53.8068 45.2491L53.8034 45.2445C53.3518 44.6298 53.1802 44.4636 52.8415 44.4636C52.5029 44.4636 52.3335 44.6298 51.8796 45.242L51.8763 45.2466C51.3945 45.8964 50.7359 46.7847 49.408 46.7847C48.0823 46.7847 47.4238 45.8965 46.942 45.2466L46.9386 45.242C46.4871 44.6298 46.3154 44.4636 45.9767 44.4636C45.6404 44.4636 45.4687 44.6298 45.0149 45.2445C44.5351 45.8947 43.8742 46.7871 42.5455 46.7871C41.2175 46.7871 40.559 45.8989 40.0772 45.249L40.0738 45.2445C39.6223 44.6322 39.4506 44.4661 39.112 44.4661C38.7733 44.4661 38.604 44.6322 38.1501 45.2445C37.6703 45.8947 37.0118 46.7871 35.6808 46.7871C34.3551 46.7871 33.6966 45.8989 33.2148 45.2491L33.2114 45.2445C32.7599 44.6322 32.5882 44.4661 32.2495 44.4661C31.9132 44.4661 31.7416 44.6322 31.2877 45.2469C30.8079 45.8972 30.1471 46.7895 28.8183 46.7895C27.4927 46.7895 26.8342 45.9013 26.3524 45.2515L26.349 45.2469C25.8974 44.6346 25.7258 44.4685 25.3871 44.4685C25.0508 44.4685 24.8791 44.6347 24.4252 45.2493C23.9455 45.8996 23.2846 46.792 21.9559 46.792C21.5349 46.792 21.1516 46.6187 20.8811 46.3055C20.225 45.5508 20.3567 44.2645 20.6272 42.2282L20.6318 42.193C20.7284 41.4563 20.8757 40.3327 20.8271 39.7862C19.0704 40.1325 16.5775 43.6855 15.2841 46.27C15.1242 46.5927 14.7973 46.7921 14.4445 46.7921C14.4257 46.7921 14.4069 46.7921 14.3881 46.7897C14.0142 46.7684 13.6873 46.5239 13.5603 46.1679C13.3439 45.5646 11.4955 40.1943 13.4168 37.223C14.1364 36.1122 15.3029 35.4739 16.7939 35.3766C18.0897 35.2911 18.6823 34.9399 18.7952 34.6622C18.8705 34.4771 18.7505 34.1614 18.4871 33.86C17.7863 33.0555 16.22 32.41 14.4374 32.8989C11.9656 33.5733 9.19536 36.9171 8.26171 40.3536C7.9348 41.5616 7.58201 43.7972 8.91782 45.1807C9.27998 45.5581 9.27058 46.1585 8.899 46.524C8.52507 46.8895 7.93247 46.8823 7.56795 46.505C6.09341 44.9791 5.69596 42.6154 6.44617 39.8529C7.41726 36.274 10.4888 32.0093 13.9458 31.0671C16.5209 30.3647 18.7903 31.3329 19.9003 32.6074C20.6694 33.4878 20.8998 34.5012 20.5353 35.3888C20.2179 36.1601 19.3336 37.1142 16.916 37.2732C16.0153 37.3325 15.3874 37.6576 14.9947 38.2628C14.2021 39.4874 14.3856 41.6589 14.7454 43.3914C16.1565 41.1059 18.6329 37.7858 21.1963 37.8665C21.6102 37.8807 21.9841 38.0611 22.2475 38.3767C22.5109 38.69 22.6402 39.0958 22.6872 39.5989C24.4181 38.4432 26.9442 37.2992 31.9298 36.7914C26.5253 14.6965 36.685 2.25834 37.1459 1.71012C37.1498 1.70616 37.1538 1.70302 37.1575 1.70002C37.1628 1.69584 37.1677 1.69192 37.1718 1.68639C37.2 1.65553 37.2282 1.62943 37.2588 1.60332C37.2776 1.58434 37.2964 1.56772 37.3176 1.55348C37.3465 1.53404 37.3754 1.51778 37.4056 1.5008L37.4258 1.4894C37.4446 1.47754 37.4634 1.46567 37.4846 1.45618C37.5293 1.43719 37.5739 1.42295 37.621 1.41109C37.6319 1.4095 37.6429 1.40581 37.6539 1.40212L37.6539 1.40211C37.6594 1.40027 37.6649 1.39843 37.6704 1.39685C37.7338 1.38261 37.7997 1.37549 37.8679 1.37549L38.0066 1.38023C38.2841 1.38023 38.5452 1.50127 38.7239 1.71486C39.1848 2.26044 49.2949 14.6351 43.9871 36.6229C57.8667 37.444 59.5647 43.033 59.6305 43.2775C59.6329 43.2869 59.6329 43.2988 59.6352 43.3083L59.6493 43.4009C59.654 43.4341 59.6587 43.4673 59.6587 43.5005C59.6587 43.5028 59.6589 43.5052 59.6591 43.5075L59.6599 43.5148C59.6602 43.5173 59.6605 43.5199 59.6608 43.5225C59.661 43.5246 59.6611 43.5268 59.6611 43.529C59.6611 43.5354 59.6608 43.5414 59.6604 43.5474C59.6596 43.5575 59.6584 43.5674 59.6571 43.5779L59.6564 43.5836L59.6561 43.587C59.6539 43.6192 59.6514 43.6536 59.6446 43.6857C59.6434 43.6929 59.6421 43.7001 59.6406 43.7073C59.6394 43.7133 59.6381 43.7194 59.6368 43.7254C59.6333 43.7407 59.6296 43.7559 59.6258 43.7711L59.621 43.7876L59.6177 43.7992C59.6117 43.8205 59.6058 43.8415 59.5976 43.8613ZM38.8081 39.5467H41.2398C46.5949 21.8736 41.5573 9.95968 38.8081 5.22977V39.5467ZM36.9267 5.47886V39.5467H34.6338C29.3824 22.2175 34.1564 10.3794 36.9267 5.47886ZM56.5991 44.42L56.6038 44.4047L56.6031 44.4048C56.7136 44.0488 56.9017 43.465 57.365 43.0544C56.3235 41.7254 53.0381 38.9961 43.5018 38.5001C43.2949 39.2524 43.0714 40.0143 42.8269 40.7879C42.7022 41.1818 42.34 41.45 41.9308 41.45H33.94C33.5307 41.45 33.1686 41.1819 33.0439 40.7879C32.8182 40.0664 32.6112 39.3568 32.416 38.6567C26.3696 39.2311 24.206 40.7618 22.5528 42.0528C22.5454 42.1084 22.5385 42.1636 22.5314 42.2193C22.5204 42.3063 22.5092 42.3945 22.4963 42.4871C22.4046 43.1801 22.2635 44.2481 22.2917 44.8176C22.4634 44.7156 22.6375 44.5068 22.9197 44.1223L22.923 44.1178C23.4048 43.4679 24.0634 42.5797 25.3913 42.5797C26.717 42.5797 27.3755 43.4679 27.8573 44.1177L27.8607 44.1223C28.3122 44.7346 28.4839 44.9007 28.8226 44.9007C29.1612 44.9007 29.3306 44.7346 29.7844 44.1223L29.7878 44.1178C30.2696 43.4679 30.9282 42.5797 32.2561 42.5797C33.5818 42.5797 34.2402 43.4678 34.722 44.1177L34.7254 44.1223C35.1794 44.7346 35.351 44.9007 35.6873 44.9007C36.026 44.9007 36.1953 44.7346 36.6492 44.1223C37.129 43.472 37.7875 42.5797 39.1185 42.5797C40.4442 42.5797 41.1027 43.4678 41.5845 44.1177L41.5879 44.1223C42.0418 44.737 42.2134 44.9031 42.5521 44.9031C42.8907 44.9031 43.0601 44.737 43.514 44.1247L43.5173 44.1202C43.9992 43.4703 44.6577 42.5821 45.9857 42.5821C47.3113 42.5821 47.9698 43.4703 48.4516 44.1202L48.455 44.1247C48.9065 44.737 49.0782 44.9031 49.4169 44.9031C49.7555 44.9031 49.9272 44.737 50.3811 44.1223C50.8609 43.472 51.5217 42.5797 52.8504 42.5797C54.1784 42.5797 54.8369 43.4679 55.3187 44.1177L55.3221 44.1223C55.776 44.7346 55.9477 44.9007 56.284 44.9007C56.3898 44.9007 56.4274 44.8841 56.4274 44.8841C56.4707 44.8335 56.5493 44.5804 56.5991 44.42Z" fill="white"/>
<path d="M59.5623 43.9443L59.1224 43.7066L59.8802 44.3303L59.5623 43.9443ZM59.5976 43.8613L59.1354 43.6705L59.1285 43.6872L59.1228 43.7045L59.5976 43.8613ZM59.5628 43.944L60.0108 44.166L59.2449 43.558L59.5628 43.944ZM59.5063 44.0175L59.2272 43.6027L59.1396 43.6616L59.0834 43.7509L59.5063 44.0175ZM59.4734 44.0655L59.8796 44.3571L59.8797 44.357L59.4734 44.0655ZM59.4569 44.0887L59.8487 44.3994L59.8587 44.3869L59.8677 44.3738L59.4569 44.0887ZM59.3958 44.1623L59.7509 44.5142L59.7602 44.5049L59.769 44.4951L59.3958 44.1623ZM59.337 44.2193L59.0031 43.8471L58.9922 43.8569L58.9818 43.8673L59.337 44.2193ZM59.2617 44.2833L59.5408 44.6982L59.5493 44.6925L59.5576 44.6864L59.2617 44.2833ZM59.2266 44.3064L58.9573 43.8851L58.9572 43.8851L59.2266 44.3064ZM59.1912 44.3284L59.4164 44.7748L59.4337 44.7661L59.4501 44.7561L59.1912 44.3284ZM59.1704 44.3395L58.9294 43.9014L58.9292 43.9015L59.1704 44.3395ZM59.156 44.3475L58.9117 43.9112L58.9116 43.9113L59.156 44.3475ZM59.1065 44.3735L58.8954 43.9203L58.8883 43.9236L58.8813 43.9271L59.1065 44.3735ZM59.0773 44.3866L58.8912 43.9225L58.8911 43.9226L59.0773 44.3866ZM59.0444 44.399L58.873 43.9293L58.873 43.9293L59.0444 44.399ZM59.0172 44.4091L59.194 44.8768L59.1981 44.8752L59.0172 44.4091ZM58.9989 44.4168L59.1997 44.8747L59.1999 44.8746L58.9989 44.4168ZM58.9815 44.4241L59.1607 44.8908L59.161 44.8907L58.9815 44.4241ZM58.9607 44.4305L58.8513 43.9424L58.8383 43.9457L58.9607 44.4305ZM58.9465 44.4317V43.9317L58.9449 43.9317L58.9465 44.4317ZM58.9349 44.4329L58.8128 43.948L58.8088 43.949L58.9349 44.4329ZM58.5656 44.4803L58.3637 44.0229L58.2597 44.0688L58.1858 44.1552L58.5656 44.4803ZM58.394 44.9443L58.8715 45.0927L58.8716 45.0925L58.394 44.9443ZM58.3893 44.9597L57.9118 44.8114L57.9116 44.812L58.3893 44.9597ZM53.8068 45.2491L53.405 45.5466L53.4051 45.5468L53.8068 45.2491ZM53.8034 45.2445L53.4004 45.5405L53.4016 45.5421L53.8034 45.2445ZM51.8796 45.242L52.2812 45.5399L52.2813 45.5398L51.8796 45.242ZM51.8763 45.2466L51.4747 44.9487L51.4746 44.9488L51.8763 45.2466ZM46.942 45.2466L47.3437 44.9488L47.3436 44.9487L46.942 45.2466ZM46.9386 45.242L46.5362 45.5388L46.5371 45.54L46.9386 45.242ZM45.0149 45.2445L44.6126 44.9475L44.6125 44.9476L45.0149 45.2445ZM40.0772 45.249L40.4789 44.9513L40.4789 44.9512L40.0772 45.249ZM40.0738 45.2445L39.6714 45.5412L39.6722 45.5423L40.0738 45.2445ZM38.1501 45.2445L37.7484 44.9467L37.7477 44.9476L38.1501 45.2445ZM33.2148 45.2491L33.6165 44.9513L33.6164 44.9512L33.2148 45.2491ZM33.2114 45.2445L32.809 45.5412L32.8098 45.5423L33.2114 45.2445ZM31.2877 45.2469L30.8854 44.9499L30.8853 44.9501L31.2877 45.2469ZM26.3524 45.2515L26.7541 44.9537L26.754 44.9536L26.3524 45.2515ZM26.349 45.2469L25.9466 45.5437L25.9474 45.5448L26.349 45.2469ZM24.4252 45.2493L24.023 44.9523L24.0229 44.9525L24.4252 45.2493ZM20.8811 46.3055L21.2596 45.9787L21.2585 45.9774L20.8811 46.3055ZM20.6272 42.2282L21.1228 42.2941L21.1229 42.2932L20.6272 42.2282ZM20.6318 42.193L20.136 42.128L20.136 42.128L20.6318 42.193ZM20.8271 39.7862L21.3251 39.7419L21.2758 39.1881L20.7303 39.2956L20.8271 39.7862ZM15.2841 46.27L14.8369 46.0462L14.836 46.048L15.2841 46.27ZM14.3881 46.7897L14.4506 46.2936L14.4337 46.2915L14.4166 46.2905L14.3881 46.7897ZM13.5603 46.1679L14.0312 45.9999L14.0309 45.9992L13.5603 46.1679ZM13.4168 37.223L12.9972 36.9511L12.997 36.9515L13.4168 37.223ZM16.7939 35.3766L16.8265 35.8755L16.8268 35.8755L16.7939 35.3766ZM18.7952 34.6622L19.2584 34.8505L19.2584 34.8505L18.7952 34.6622ZM18.4871 33.86L18.1101 34.1885L18.1106 34.1891L18.4871 33.86ZM14.4374 32.8989L14.5691 33.3813L14.5697 33.3811L14.4374 32.8989ZM8.26171 40.3536L7.7792 40.2225L7.77907 40.2229L8.26171 40.3536ZM8.91782 45.1807L9.27855 44.8345L9.27752 44.8334L8.91782 45.1807ZM8.899 46.524L9.24849 46.8815L9.24962 46.8804L8.899 46.524ZM7.56795 46.505L7.92756 46.1576L7.9275 46.1575L7.56795 46.505ZM6.44617 39.8529L6.92869 39.9839L6.92872 39.9838L6.44617 39.8529ZM13.9458 31.0671L14.0773 31.5495L14.0774 31.5495L13.9458 31.0671ZM19.9003 32.6074L19.5233 32.9358L19.5238 32.9363L19.9003 32.6074ZM20.5353 35.3888L20.9977 35.5791L20.9978 35.5787L20.5353 35.3888ZM16.916 37.2732L16.8832 36.7743L16.8831 36.7743L16.916 37.2732ZM14.9947 38.2628L14.5752 37.9906L14.5749 37.9912L14.9947 38.2628ZM14.7454 43.3914L14.2558 43.4931L14.5112 44.7225L15.1708 43.6541L14.7454 43.3914ZM21.1963 37.8665L21.2134 37.3667L21.212 37.3667L21.1963 37.8665ZM22.2475 38.3767L21.8636 38.6971L21.8648 38.6985L22.2475 38.3767ZM22.6872 39.5989L22.1894 39.6455L22.2675 40.4804L22.9649 40.0147L22.6872 39.5989ZM31.9298 36.7914L31.9805 37.2888L32.552 37.2306L32.4155 36.6726L31.9298 36.7914ZM37.1459 1.71012L36.7908 1.35815L36.7764 1.37268L36.7632 1.38835L37.1459 1.71012ZM37.1575 1.70002L37.4695 2.09073L37.4695 2.09073L37.1575 1.70002ZM37.1718 1.68639L36.8028 1.34893L36.7857 1.36771L36.7705 1.38813L37.1718 1.68639ZM37.2588 1.60332L37.5835 1.98356L37.5993 1.97005L37.614 1.95526L37.2588 1.60332ZM37.3176 1.55348L37.0385 1.13862L37.0385 1.13863L37.3176 1.55348ZM37.4056 1.5008L37.6507 1.93657L37.6513 1.93625L37.4056 1.5008ZM37.4258 1.4894L37.6715 1.92485L37.6822 1.91884L37.6925 1.91231L37.4258 1.4894ZM37.4846 1.45618L37.289 0.995906L37.28 0.999963L37.4846 1.45618ZM37.621 1.41109L37.5496 0.916203L37.5239 0.919914L37.4987 0.926277L37.621 1.41109ZM37.6539 1.40212L37.8133 1.87605L37.8178 1.87448L37.6539 1.40212ZM37.6539 1.40211L37.4945 0.928166L37.49 0.929753L37.6539 1.40211ZM37.6704 1.39685L37.5609 0.908967L37.5463 0.912251L37.5319 0.916406L37.6704 1.39685ZM37.8679 1.37549L37.885 0.875781L37.8764 0.875488H37.8679V1.37549ZM38.0066 1.38023L37.9896 1.87994L37.9981 1.88023H38.0066V1.38023ZM38.7239 1.71486L38.3405 2.03574L38.342 2.03754L38.7239 1.71486ZM43.9871 36.6229L43.501 36.5056L43.3608 37.0868L43.9576 37.1221L43.9871 36.6229ZM59.6305 43.2775L60.116 43.1573L60.1133 43.1474L59.6305 43.2775ZM59.6352 43.3083L60.1295 43.233L60.1261 43.2104L60.1206 43.1882L59.6352 43.3083ZM59.6493 43.4009L60.1444 43.3308L60.1436 43.3255L59.6493 43.4009ZM59.6591 43.5075L59.161 43.5527L59.1623 43.5637L59.6591 43.5075ZM59.6599 43.5148L59.1631 43.571L59.1637 43.5762L59.6599 43.5148ZM59.6608 43.5225L60.1589 43.479L60.1588 43.4787L59.6608 43.5225ZM59.6604 43.5474L59.1617 43.5111L59.1617 43.5112L59.6604 43.5474ZM59.6571 43.5779L59.161 43.5157L59.1609 43.516L59.6571 43.5779ZM59.6564 43.5836L59.1602 43.5217L59.1586 43.5349L59.1576 43.5483L59.6564 43.5836ZM59.6561 43.587L59.1574 43.5517L59.1574 43.5518L59.6561 43.587ZM59.6446 43.6857L59.1555 43.5818L59.1532 43.5929L59.1513 43.6042L59.6446 43.6857ZM59.6406 43.7073L60.1308 43.806L60.1308 43.8059L59.6406 43.7073ZM59.6368 43.7254L59.1489 43.6161L59.1489 43.6161L59.6368 43.7254ZM59.6258 43.7711L60.1055 43.9121L60.1085 43.9018L60.1111 43.8914L59.6258 43.7711ZM59.621 43.7876L59.1412 43.6465L59.1399 43.6514L59.621 43.7876ZM59.6177 43.7992L59.1366 43.663L59.1364 43.6637L59.6177 43.7992ZM41.2398 39.5467V40.0467H41.6107L41.7183 39.6917L41.2398 39.5467ZM38.8081 39.5467H38.3081V40.0467H38.8081V39.5467ZM38.8081 5.22977L39.2404 4.97851L38.3081 3.37452V5.22977H38.8081ZM36.9267 39.5467V40.0467H37.4267V39.5467H36.9267ZM36.9267 5.47886H37.4267V3.57839L36.4915 5.2328L36.9267 5.47886ZM34.6338 39.5467L34.1553 39.6917L34.2629 40.0467H34.6338V39.5467ZM56.6038 44.4047L57.0814 44.5528L57.3126 43.8073L56.5387 43.9089L56.6038 44.4047ZM56.599 44.4202L57.0765 44.5684L57.0766 44.5683L56.599 44.4202ZM56.6031 44.4048L56.1255 44.2565L55.8941 45.0022L56.6682 44.9005L56.6031 44.4048ZM57.365 43.0544L57.6966 43.4286L58.0489 43.1164L57.7586 42.746L57.365 43.0544ZM43.5018 38.5001L43.5278 38.0008L43.1263 37.9799L43.0197 38.3675L43.5018 38.5001ZM42.8269 40.7879L43.3036 40.9388L43.3036 40.9386L42.8269 40.7879ZM33.0439 40.7879L32.5668 40.9372L32.5672 40.9387L33.0439 40.7879ZM32.416 38.6567L32.8976 38.5225L32.7853 38.1194L32.3687 38.159L32.416 38.6567ZM22.5528 42.0528L22.245 41.6588L22.0839 41.7846L22.0571 41.9874L22.5528 42.0528ZM22.5314 42.2193L23.0275 42.2821V42.2821L22.5314 42.2193ZM22.4963 42.4871L22.0011 42.4181L22.0007 42.4215L22.4963 42.4871ZM22.2917 44.8176L21.7924 44.8424L21.8334 45.6716L22.5472 45.2475L22.2917 44.8176ZM22.9197 44.1223L22.5179 43.8246L22.5166 43.8264L22.9197 44.1223ZM22.923 44.1178L22.5214 43.82L22.5213 43.8201L22.923 44.1178ZM27.8573 44.1177L27.4556 44.4155L27.4557 44.4156L27.8573 44.1177ZM27.8607 44.1223L28.2631 43.8255L28.2623 43.8244L27.8607 44.1223ZM29.7844 44.1223L30.1861 44.4201L30.1862 44.42L29.7844 44.1223ZM29.7878 44.1178L29.3861 43.82L29.3861 43.8201L29.7878 44.1178ZM34.722 44.1177L34.3204 44.4155L34.3204 44.4156L34.722 44.1177ZM34.7254 44.1223L35.1271 43.8245L35.127 43.8244L34.7254 44.1223ZM36.6492 44.1223L37.0509 44.4201L37.0515 44.4192L36.6492 44.1223ZM41.5845 44.1177L41.9863 43.8201L41.9861 43.8199L41.5845 44.1177ZM41.5879 44.1223L41.9901 43.8253L41.9897 43.8247L41.5879 44.1223ZM43.514 44.1247L43.1123 43.827L43.1123 43.827L43.514 44.1247ZM43.5173 44.1202L43.1157 43.8224L43.1157 43.8224L43.5173 44.1202ZM48.4516 44.1202L48.0499 44.4179L48.05 44.418L48.4516 44.1202ZM48.455 44.1247L48.8574 43.828L48.8566 43.8269L48.455 44.1247ZM50.3811 44.1223L50.7833 44.4193L50.7834 44.4192L50.3811 44.1223ZM55.3187 44.1177L54.9171 44.4155L54.9171 44.4156L55.3187 44.1177ZM55.3221 44.1223L55.7238 43.8245L55.7237 43.8244L55.3221 44.1223ZM56.4274 44.8841L56.6294 45.3415L56.7334 45.2956L56.8073 45.2092L56.4274 44.8841ZM60.0022 44.1821C60.0328 44.1255 60.0555 44.069 60.0724 44.0181L59.1228 43.7045C59.122 43.707 59.1213 43.7087 59.121 43.7094C59.1207 43.7102 59.121 43.7092 59.1224 43.7066L60.0022 44.1821ZM59.2449 43.558L59.2445 43.5584L59.8802 44.3303L59.8806 44.3299L59.2449 43.558ZM59.7854 44.4324C59.9333 44.3329 59.9958 44.1961 60.0108 44.166L59.1147 43.722C59.1015 43.7488 59.1358 43.6642 59.2272 43.6027L59.7854 44.4324ZM59.8797 44.357C59.8897 44.343 59.9092 44.3161 59.9293 44.2842L59.0834 43.7509C59.0828 43.7518 59.0815 43.7537 59.079 43.7574C59.0762 43.7615 59.073 43.7659 59.0671 43.7741L59.8797 44.357ZM59.8677 44.3738C59.8706 44.3697 59.8738 44.3652 59.8796 44.3571L59.0672 43.774C59.0621 43.7812 59.0543 43.792 59.0461 43.8037L59.8677 44.3738ZM59.769 44.4951C59.7999 44.4603 59.8283 44.4252 59.8487 44.3994L59.0651 43.7781C59.048 43.7998 59.034 43.8168 59.0226 43.8295L59.769 44.4951ZM59.6709 44.5914C59.7046 44.5612 59.7333 44.532 59.7509 44.5142L59.0406 43.8104C59.0206 43.8306 59.0117 43.8394 59.0031 43.8471L59.6709 44.5914ZM59.5576 44.6864C59.5988 44.6562 59.6458 44.618 59.6921 44.5712L58.9818 43.8673C58.9817 43.8674 58.9804 43.8688 58.9776 43.8712C58.9747 43.8736 58.9709 43.8766 58.9659 43.8803L59.5576 44.6864ZM59.4958 44.7277C59.5112 44.7178 59.5265 44.7078 59.5408 44.6982L58.9827 43.8685C58.9753 43.8734 58.9666 43.8792 58.9573 43.8851L59.4958 44.7277ZM59.4501 44.7561C59.4656 44.7468 59.4812 44.737 59.4959 44.7277L58.9572 43.8851C58.9483 43.8908 58.9398 43.8962 58.9322 43.9007L59.4501 44.7561ZM59.4113 44.7776C59.4154 44.7753 59.4167 44.7747 59.4164 44.7748L58.9659 43.882C58.9516 43.8893 58.9391 43.8961 58.9294 43.9014L59.4113 44.7776ZM59.4003 44.7837C59.4053 44.7809 59.4086 44.7791 59.4115 44.7775L58.9292 43.9015C58.9226 43.9051 58.9163 43.9087 58.9117 43.9112L59.4003 44.7837ZM59.3177 44.8268C59.3548 44.8095 59.3865 44.7914 59.4004 44.7837L58.9116 43.9113C58.9031 43.916 58.8993 43.9181 58.8961 43.9198C58.8935 43.9213 58.8936 43.9211 58.8954 43.9203L59.3177 44.8268ZM59.2634 44.8506C59.2821 44.8431 59.3058 44.833 59.3318 44.8199L58.8813 43.9271C58.8883 43.9236 58.8924 43.922 58.8912 43.9225L59.2634 44.8506ZM59.2158 44.8687C59.2256 44.8651 59.2442 44.8584 59.2636 44.8506L58.8911 43.9226C58.8889 43.9234 58.8854 43.9248 58.873 43.9293L59.2158 44.8687ZM59.1981 44.8752C59.2017 44.8738 59.2061 44.8722 59.2158 44.8687L58.873 43.9293C58.8647 43.9323 58.8508 43.9373 58.8363 43.943L59.1981 44.8752ZM59.1999 44.8746C59.2034 44.8731 59.2034 44.8731 59.2028 44.8733C59.202 44.8737 59.1987 44.875 59.194 44.8768L58.8403 43.9414C58.8199 43.9492 58.8021 43.9571 58.7978 43.959L59.1999 44.8746ZM59.161 44.8907C59.1794 44.8837 59.1955 44.8765 59.1997 44.8747L58.7981 43.9589C58.7948 43.9603 58.7946 43.9604 58.7949 43.9603C58.7955 43.96 58.7981 43.9589 58.802 43.9574L59.161 44.8907ZM59.0701 44.9184C59.1075 44.91 59.1383 44.8994 59.1607 44.8908L58.8023 43.9573C58.8116 43.9537 58.8287 43.9477 58.8514 43.9426L59.0701 44.9184ZM58.9478 44.9317C58.9484 44.9317 59.0107 44.9336 59.0832 44.9152L58.8383 43.9457C58.9013 43.9298 58.9553 43.9317 58.9478 43.9317V44.9317ZM58.9465 44.9317H58.9478V43.9317H58.9465V44.9317ZM59.0569 44.9177C58.9997 44.9321 58.9533 44.9316 58.948 44.9317L58.9449 43.9317C58.9323 43.9317 58.8784 43.9315 58.8128 43.948L59.0569 44.9177ZM58.7091 44.9637C58.8379 44.9637 58.9561 44.944 59.0609 44.9167L58.8088 43.949C58.7678 43.9597 58.7355 43.9637 58.7091 43.9637V44.9637ZM58.5656 44.4803C58.7676 44.9377 58.7673 44.9378 58.7671 44.9379C58.767 44.938 58.7668 44.9381 58.7667 44.9381C58.7663 44.9383 58.766 44.9384 58.7657 44.9385C58.7651 44.9388 58.7645 44.9391 58.7639 44.9393C58.7627 44.9399 58.7615 44.9404 58.7603 44.9409C58.7579 44.9419 58.7555 44.9429 58.7532 44.9438C58.7486 44.9456 58.7442 44.9473 58.74 44.9489C58.7315 44.952 58.7239 44.9545 58.7171 44.9566C58.7036 44.9606 58.6936 44.9628 58.6879 44.9638C58.6768 44.9659 58.6821 44.9637 58.7091 44.9637V43.9637C58.6303 43.9637 58.5639 43.9699 58.5074 43.9802C58.4791 43.9854 58.4531 43.9917 58.4292 43.9989C58.4173 44.0025 58.4058 44.0063 58.3949 44.0103C58.3895 44.0123 58.3841 44.0144 58.3789 44.0165C58.3763 44.0175 58.3738 44.0186 58.3712 44.0197C58.3699 44.0202 58.3687 44.0207 58.3674 44.0213C58.3668 44.0216 58.3662 44.0218 58.3656 44.0221C58.3652 44.0222 58.3649 44.0224 58.3646 44.0225C58.3645 44.0226 58.3642 44.0227 58.3642 44.0227C58.3639 44.0228 58.3637 44.0229 58.5656 44.4803ZM58.8716 45.0925C58.897 45.0107 58.9265 44.9158 58.9544 44.8358C58.9684 44.7955 58.9796 44.7662 58.9874 44.7478C58.9914 44.7386 58.9922 44.7376 58.9898 44.742C58.9886 44.7444 58.985 44.7509 58.9793 44.7601C58.974 44.7683 58.9629 44.7851 58.9455 44.8054L58.1858 44.1552C58.1184 44.2339 58.0795 44.3276 58.0677 44.3554C58.0471 44.4037 58.0274 44.4572 58.0102 44.5065C57.9755 44.6058 57.9409 44.7176 57.9165 44.7961L58.8716 45.0925ZM58.8667 45.1081L58.8715 45.0927L57.9165 44.796L57.9118 44.8114L58.8667 45.1081ZM56.2727 47.2871C57.205 47.2871 57.8279 46.9054 58.2306 46.4122C58.6123 45.9448 58.7769 45.3986 58.8669 45.1074L57.9116 44.812C57.8181 45.1142 57.6994 45.4817 57.4561 45.7797C57.2339 46.0518 56.8902 46.2871 56.2727 46.2871V47.2871ZM53.4051 45.5468C53.8791 46.1861 54.6727 47.2871 56.2727 47.2871V46.2871C55.2214 46.2871 54.6981 45.6117 54.2084 44.9513L53.4051 45.5468ZM53.4016 45.5421L53.405 45.5466L54.2086 44.9515L54.2052 44.9469L53.4016 45.5421ZM52.8415 44.9636C52.884 44.9636 52.8991 44.9687 52.9036 44.9703C52.9079 44.9718 52.9245 44.978 52.9596 45.0073C53.047 45.0804 53.1686 45.2249 53.4004 45.5405L54.2064 44.9485C53.9866 44.6493 53.7966 44.4035 53.6007 44.2398C53.3657 44.0436 53.1236 43.9636 52.8415 43.9636V44.9636ZM52.2813 45.5398C52.5148 45.2248 52.6364 45.0804 52.7242 45.007C52.7594 44.9777 52.7759 44.9716 52.7799 44.9702C52.7841 44.9687 52.799 44.9636 52.8415 44.9636V43.9636C52.5591 43.9636 52.3177 44.0437 52.0833 44.2394C51.8884 44.4022 51.6983 44.647 51.478 44.9443L52.2813 45.5398ZM52.2779 45.5444L52.2812 45.5399L51.478 44.9442L51.4747 44.9487L52.2779 45.5444ZM49.408 47.2847C51.0101 47.2847 51.8038 46.1839 52.2779 45.5444L51.4746 44.9488C50.9852 45.609 50.4617 46.2847 49.408 46.2847V47.2847ZM46.5404 45.5444C47.0143 46.1837 47.8079 47.2847 49.408 47.2847V46.2847C48.3567 46.2847 47.8333 45.6093 47.3437 44.9488L46.5404 45.5444ZM46.5371 45.54L46.5405 45.5445L47.3436 44.9487L47.3402 44.9441L46.5371 45.54ZM45.9767 44.9636C46.0192 44.9636 46.0344 44.9687 46.039 44.9703C46.0435 44.9719 46.0601 44.9781 46.0953 45.0074C46.1828 45.0803 46.3044 45.2244 46.5362 45.5388L47.341 44.9453C47.1213 44.6474 46.9312 44.4023 46.7354 44.2391C46.5006 44.0435 46.2587 43.9636 45.9767 43.9636V44.9636ZM45.4171 45.5415C45.6501 45.2259 45.7724 45.0808 45.8605 45.0073C45.8959 44.9777 45.9125 44.9715 45.9166 44.9701C45.9207 44.9686 45.9352 44.9636 45.9767 44.9636V43.9636C45.6949 43.9636 45.4536 44.0442 45.2193 44.2398C45.024 44.4031 44.8335 44.6484 44.6126 44.9475L45.4171 45.5415ZM42.5455 47.2871C44.149 47.2871 44.9449 46.1815 45.4172 45.5413L44.6125 44.9476C44.1253 45.6079 43.5994 46.2871 42.5455 46.2871V47.2871ZM39.6756 45.5468C40.1497 46.1864 40.9433 47.2871 42.5455 47.2871V46.2871C41.4917 46.2871 40.9683 45.6114 40.4789 44.9513L39.6756 45.5468ZM39.6722 45.5423L39.6756 45.5468L40.4789 44.9512L40.4755 44.9467L39.6722 45.5423ZM39.112 44.9661C39.1545 44.9661 39.1696 44.9711 39.1743 44.9728C39.1787 44.9743 39.1954 44.9805 39.2305 45.0098C39.3181 45.0828 39.4396 45.2269 39.6714 45.5412L40.4762 44.9477C40.2565 44.6498 40.0665 44.4047 39.8706 44.2415C39.6358 44.0459 39.394 43.9661 39.112 43.9661V44.9661ZM38.5518 45.5422C38.7853 45.2272 38.9069 45.0828 38.9947 45.0095C39.0299 44.9801 39.0463 44.9741 39.0504 44.9726C39.0546 44.9711 39.0695 44.9661 39.112 44.9661V43.9661C38.8296 43.9661 38.5882 44.0462 38.3538 44.2419C38.1588 44.4046 37.9688 44.6494 37.7484 44.9467L38.5518 45.5422ZM35.6808 47.2871C37.2868 47.2871 38.0803 46.1812 38.5524 45.5413L37.7477 44.9476C37.2603 45.6082 36.7369 46.2871 35.6808 46.2871V47.2871ZM32.8132 45.5468C33.2871 46.1861 34.0807 47.2871 35.6808 47.2871V46.2871C34.6295 46.2871 34.1061 45.6117 33.6165 44.9513L32.8132 45.5468ZM32.8098 45.5423L32.8132 45.5469L33.6164 44.9512L33.613 44.9466L32.8098 45.5423ZM32.2495 44.9661C32.292 44.9661 32.3072 44.9711 32.3118 44.9728C32.3163 44.9743 32.333 44.9805 32.3681 45.0098C32.4556 45.0828 32.5772 45.2269 32.809 45.5412L33.6138 44.9477C33.3941 44.6498 33.2041 44.4047 33.0082 44.2415C32.7734 44.0459 32.5315 43.9661 32.2495 43.9661V44.9661ZM31.6899 45.5439C31.9229 45.2284 32.0452 45.0832 32.1333 45.0097C32.1687 44.9801 32.1854 44.974 32.1894 44.9725C32.1936 44.971 32.208 44.9661 32.2495 44.9661V43.9661C31.9677 43.9661 31.7264 44.0466 31.4921 44.2423C31.2968 44.4055 31.1063 44.6508 30.8854 44.9499L31.6899 45.5439ZM28.8183 47.2895C30.4219 47.2895 31.2177 46.1839 31.69 45.5438L30.8853 44.9501C30.3981 45.6104 29.8723 46.2895 28.8183 46.2895V47.2895ZM25.9508 45.5493C26.4247 46.1885 27.2183 47.2895 28.8183 47.2895V46.2895C27.7671 46.2895 27.2437 45.6142 26.7541 44.9537L25.9508 45.5493ZM25.9474 45.5448L25.9508 45.5493L26.754 44.9536L26.7506 44.949L25.9474 45.5448ZM25.3871 44.9685C25.4296 44.9685 25.4448 44.9735 25.4494 44.9752C25.4538 44.9768 25.4705 44.983 25.5057 45.0122C25.5932 45.0852 25.7148 45.2293 25.9466 45.5437L26.7514 44.9501C26.5317 44.6522 26.3416 44.4072 26.1458 44.244C25.911 44.0483 25.6691 43.9685 25.3871 43.9685V44.9685ZM24.8275 45.5463C25.0605 45.2308 25.1828 45.0857 25.2708 45.0121C25.3063 44.9826 25.3229 44.9764 25.327 44.9749C25.3311 44.9735 25.3456 44.9685 25.3871 44.9685V43.9685C25.1052 43.9685 24.8639 44.049 24.6297 44.2447C24.4343 44.4079 24.2439 44.6532 24.023 44.9523L24.8275 45.5463ZM21.9559 47.292C23.5594 47.292 24.3552 46.1864 24.8276 45.5462L24.0229 44.9525C23.5357 45.6128 23.0098 46.292 21.9559 46.292V47.292ZM20.5027 46.6322C20.8702 47.0579 21.3928 47.292 21.9559 47.292V46.292C21.677 46.292 21.433 46.1795 21.2596 45.9787L20.5027 46.6322ZM20.1315 42.1624C19.9974 43.1719 19.8905 44.0425 19.9068 44.7589C19.9232 45.4792 20.0646 46.1284 20.5038 46.6335L21.2585 45.9774C21.0416 45.7279 20.9207 45.3566 20.9066 44.7361C20.8923 44.1116 20.9864 43.3209 21.1228 42.2941L20.1315 42.1624ZM20.136 42.128L20.1314 42.1633L21.1229 42.2932L21.1275 42.258L20.136 42.128ZM20.329 39.8305C20.3487 40.0521 20.3292 40.4273 20.2862 40.87C20.2443 41.3015 20.1845 41.7583 20.136 42.128L21.1275 42.258C21.1757 41.8909 21.2378 41.4176 21.2815 40.9666C21.3242 40.5266 21.354 40.0668 21.3251 39.7419L20.329 39.8305ZM15.7312 46.4937C16.3642 45.229 17.2923 43.7251 18.2721 42.5013C18.7621 41.8893 19.2562 41.3585 19.724 40.9643C20.2007 40.5625 20.6076 40.3391 20.9238 40.2767L20.7303 39.2956C20.1681 39.4065 19.6047 39.757 19.0795 40.1996C18.5454 40.6498 18.006 41.2337 17.4915 41.8763C16.4624 43.1617 15.4974 44.7265 14.8369 46.0462L15.7312 46.4937ZM14.4445 47.2921C14.9862 47.2921 15.4873 46.986 15.7321 46.4919L14.836 46.048C14.761 46.1994 14.6084 46.2921 14.4445 46.2921V47.2921ZM14.3255 47.2858C14.3806 47.2927 14.4308 47.2921 14.4445 47.2921V46.2921C14.4395 46.2921 14.4368 46.2921 14.4344 46.2921C14.4322 46.292 14.4316 46.292 14.4321 46.292C14.4328 46.2921 14.4399 46.2923 14.4506 46.2936L14.3255 47.2858ZM13.0893 46.3359C13.2836 46.8804 13.7842 47.2561 14.3596 47.2889L14.4166 46.2905C14.2441 46.2807 14.091 46.1674 14.0312 45.9999L13.0893 46.3359ZM12.997 36.9515C11.9329 38.5969 11.9395 40.84 12.1917 42.6524C12.4475 44.4908 12.9764 46.021 13.0896 46.3367L14.0309 45.9992C13.9278 45.7116 13.4243 44.2549 13.1821 42.5145C12.9363 40.7481 12.9793 38.8203 13.8367 37.4945L12.997 36.9515ZM16.7613 34.8776C15.1357 34.9837 13.8146 35.6895 12.9972 36.9511L13.8364 37.4948C14.4583 36.535 15.47 35.964 16.8265 35.8755L16.7613 34.8776ZM18.332 34.4739C18.3526 34.4232 18.3335 34.5117 18.0481 34.629C17.7883 34.7357 17.373 34.8373 16.761 34.8776L16.8268 35.8755C17.5106 35.8304 18.0395 35.7136 18.4281 35.554C18.7912 35.4048 19.1249 35.1789 19.2584 34.8505L18.332 34.4739ZM18.1106 34.1891C18.2128 34.306 18.2733 34.4106 18.3012 34.4835C18.315 34.5194 18.3172 34.5382 18.3174 34.5406C18.3176 34.5433 18.3148 34.5163 18.332 34.4739L19.2584 34.8505C19.3651 34.588 19.3085 34.3177 19.2351 34.1259C19.156 33.9194 19.0248 33.7155 18.8636 33.531L18.1106 34.1891ZM14.5697 33.3811C16.1783 32.9399 17.5429 33.5373 18.1101 34.1885L18.8641 33.5316C18.0297 32.5737 16.2618 31.8801 14.3052 32.4167L14.5697 33.3811ZM8.74422 40.4846C9.1905 38.8421 10.0804 37.21 11.1578 35.9094C12.2431 34.5995 13.4724 33.6805 14.5691 33.3813L14.3058 32.4165C12.9307 32.7917 11.539 33.8818 10.3877 35.2715C9.22864 36.6706 8.26657 38.4286 7.7792 40.2225L8.74422 40.4846ZM9.27752 44.8334C8.72401 44.2601 8.50063 43.4912 8.46578 42.6799C8.43093 41.8683 8.58779 41.0627 8.74435 40.4842L7.77907 40.2229C7.60873 40.8524 7.42573 41.7686 7.46671 42.7228C7.50769 43.6771 7.77581 44.7178 8.55811 45.528L9.27752 44.8334ZM9.24962 46.8804C9.81628 46.3231 9.83035 45.4095 9.27855 44.8345L8.55708 45.527C8.72961 45.7067 8.72487 45.9939 8.54838 46.1675L9.24962 46.8804ZM7.20834 46.8524C7.76603 47.4297 8.6768 47.4403 9.24849 46.8815L8.54951 46.1664C8.37335 46.3386 8.09891 46.335 7.92756 46.1576L7.20834 46.8524ZM5.96364 39.7219C5.18552 42.5872 5.56975 45.1567 7.2084 46.8524L7.9275 46.1575C6.61707 44.8015 6.20641 42.6436 6.92869 39.9839L5.96364 39.7219ZM13.8143 30.5847C11.9466 31.0937 10.2324 32.481 8.87522 34.1565C7.51341 35.8377 6.46873 37.8604 5.96362 39.722L6.92872 39.9838C7.3947 38.2665 8.3713 36.3674 9.65228 34.786C10.9379 33.1988 12.488 31.9827 14.0773 31.5495L13.8143 30.5847ZM20.2774 32.279C19.0424 30.8611 16.5759 29.8314 13.8142 30.5847L14.0774 31.5495C16.4659 30.8979 18.5381 31.8047 19.5233 32.9358L20.2774 32.279ZM20.9978 35.5787C21.4513 34.4745 21.1381 33.2644 20.2769 32.2785L19.5238 32.9363C20.2006 33.7112 20.3483 34.528 20.0728 35.1988L20.9978 35.5787ZM16.9488 37.7721C18.2171 37.6887 19.1289 37.3939 19.7798 36.9836C20.4362 36.5699 20.802 36.0544 20.9977 35.5791L20.0729 35.1985C19.9511 35.4945 19.7161 35.8417 19.2466 36.1376C18.7716 36.437 18.0325 36.6987 16.8832 36.7743L16.9488 37.7721ZM15.4141 38.535C15.7001 38.0943 16.163 37.8239 16.9489 37.7721L16.8831 36.7743C15.8676 36.8412 15.0747 37.221 14.5752 37.9906L15.4141 38.535ZM15.2349 43.2897C15.0592 42.4438 14.9301 41.5056 14.9379 40.6412C14.9458 39.7646 15.0944 39.029 15.4144 38.5345L14.5749 37.9912C14.1024 38.7212 13.9465 39.6836 13.9379 40.6321C13.9293 41.5927 14.0717 42.6066 14.2558 43.4931L15.2349 43.2897ZM21.212 37.3667C19.7158 37.3196 18.3265 38.2572 17.1868 39.3864C16.03 40.5326 15.0339 41.9724 14.3199 43.1287L15.1708 43.6541C15.868 42.5249 16.8157 41.1619 17.8906 40.0968C18.9827 39.0147 20.1134 38.3326 21.1805 38.3662L21.212 37.3667ZM22.6314 38.0564C22.2751 37.6294 21.7669 37.3858 21.2134 37.3667L21.1791 38.3662C21.4534 38.3756 21.693 38.4927 21.8636 38.6971L22.6314 38.0564ZM23.1851 39.5524C23.1328 38.9935 22.9834 38.475 22.6302 38.0549L21.8648 38.6985C22.0384 38.9049 22.1476 39.198 22.1894 39.6455L23.1851 39.5524ZM31.8791 36.2939C26.8274 36.8085 24.2199 37.9743 22.4096 39.1831L22.9649 40.0147C24.6163 38.912 27.0609 37.7899 31.9805 37.2888L31.8791 36.2939ZM36.7632 1.38835C36.243 2.00707 25.9882 14.605 31.4441 36.9102L32.4155 36.6726C27.0625 14.7881 37.127 2.5096 37.5286 2.03189L36.7632 1.38835ZM36.8455 1.30931C36.8436 1.31088 36.8179 1.33078 36.7908 1.35815L37.5011 2.06209C37.4907 2.07251 37.4818 2.0804 37.476 2.08536C37.471 2.08963 37.4668 2.0929 37.4695 2.09073L36.8455 1.30931ZM36.7705 1.38813C36.792 1.35924 36.8129 1.33827 36.8274 1.32499C36.8396 1.31382 36.8504 1.30538 36.8455 1.30931L37.4695 2.09073C37.4699 2.09047 37.4858 2.07798 37.5028 2.06242C37.5221 2.04476 37.5475 2.01906 37.5731 1.98464L36.7705 1.38813ZM36.9341 1.22308C36.8934 1.25785 36.8491 1.29841 36.8028 1.34893L37.5407 2.02384C37.551 2.01266 37.5631 2.001 37.5835 1.98356L36.9341 1.22308ZM37.0385 1.13863C36.9813 1.1771 36.937 1.21776 36.9036 1.25138L37.614 1.95526C37.6183 1.95091 37.6115 1.95834 37.5967 1.96834L37.0385 1.13863ZM37.1604 1.06503C37.1327 1.08063 37.0866 1.10629 37.0385 1.13862L37.5967 1.96834C37.6064 1.96179 37.6181 1.95494 37.6507 1.93657L37.1604 1.06503ZM37.18 1.05395L37.1599 1.06535L37.6513 1.93625L37.6715 1.92485L37.18 1.05395ZM37.28 0.999963C37.2215 1.02617 37.1738 1.05721 37.159 1.0665L37.6925 1.91231C37.6975 1.90914 37.7003 1.9074 37.7028 1.90587C37.705 1.90448 37.7057 1.90408 37.7055 1.90423C37.705 1.90452 37.699 1.908 37.6892 1.91239L37.28 0.999963ZM37.4987 0.926277C37.4319 0.943108 37.362 0.964983 37.289 0.995996L37.6801 1.91636C37.6965 1.9094 37.7159 1.9028 37.7433 1.8959L37.4987 0.926277ZM37.4945 0.928219C37.4871 0.930682 37.4921 0.928935 37.4989 0.926968C37.5067 0.924714 37.5249 0.919766 37.5496 0.916203L37.6923 1.90597C37.7563 1.89675 37.8111 1.87678 37.8133 1.87603L37.4945 0.928219ZM37.49 0.929753L37.4899 0.929767L37.8178 1.87448L37.8179 1.87446L37.49 0.929753ZM37.5319 0.916406C37.5141 0.921532 37.4982 0.926964 37.4946 0.928188L37.8133 1.87603C37.8165 1.87496 37.8166 1.87491 37.8164 1.875C37.8158 1.87517 37.813 1.87608 37.8088 1.87729L37.5319 0.916406ZM37.8679 0.875488C37.7647 0.875488 37.662 0.886293 37.5609 0.908967L37.7798 1.88473C37.8057 1.87892 37.8347 1.87549 37.8679 1.87549V0.875488ZM38.0237 0.880527L37.885 0.875781L37.8508 1.8752L37.9896 1.87994L38.0237 0.880527ZM39.1074 1.39398C38.8331 1.06624 38.4314 0.880234 38.0066 0.880234V1.88023C38.1369 1.88023 38.2573 1.93631 38.3405 2.03574L39.1074 1.39398ZM44.4731 36.7403C49.8316 14.5428 39.6269 2.00889 39.1059 1.39219L38.342 2.03754C38.7428 2.51199 48.7583 14.7273 43.501 36.5056L44.4731 36.7403ZM60.1133 43.1474C60.0531 42.9238 59.5494 41.3621 57.2773 39.758C55.0118 38.1585 51.0188 36.538 44.0166 36.1238L43.9576 37.1221C50.8349 37.5289 54.6307 39.1135 56.7006 40.5749C58.7638 42.0316 59.1421 43.3867 59.1477 43.4075L60.1133 43.1474ZM60.1206 43.1882C60.1255 43.2083 60.1279 43.2239 60.1289 43.2307C60.1294 43.2345 60.1297 43.2373 60.1299 43.2383C60.13 43.2392 60.13 43.2398 60.1299 43.2381C60.1297 43.2371 60.1294 43.2339 60.129 43.2304C60.1285 43.2266 60.1279 43.2212 60.127 43.2149C60.1253 43.2029 60.122 43.1821 60.1159 43.1573L59.1452 43.3976C59.1402 43.3775 59.1378 43.3619 59.1368 43.355C59.1363 43.3513 59.136 43.3485 59.1358 43.3474C59.1357 43.3465 59.1357 43.346 59.1359 43.3476C59.136 43.3487 59.1363 43.3519 59.1367 43.3554C59.1372 43.3591 59.1378 43.3645 59.1388 43.3709C59.1404 43.3829 59.1437 43.4036 59.1499 43.4284L60.1206 43.1882ZM60.1436 43.3255L60.1295 43.233L59.1409 43.3837L59.155 43.4762L60.1436 43.3255ZM60.1587 43.5005C60.1587 43.4261 60.1482 43.3579 60.1444 43.3308L59.1543 43.471C59.1555 43.4796 59.1564 43.4858 59.1571 43.4916C59.1579 43.4971 59.1583 43.5009 59.1586 43.5035C59.1592 43.509 59.1587 43.507 59.1587 43.5005H60.1587ZM60.157 43.4622C60.1577 43.4699 60.1587 43.4834 60.1587 43.5005H59.1587C59.1587 43.5223 59.16 43.5405 59.1611 43.5527L60.157 43.4622ZM60.1567 43.4585L60.1559 43.4512L59.1623 43.5637L59.1631 43.571L60.1567 43.4585ZM60.1588 43.4787C60.1577 43.4658 60.1563 43.4545 60.1561 43.4534L59.1637 43.5762C59.1639 43.5778 59.1638 43.5769 59.1636 43.5756C59.1634 43.5741 59.1631 43.5707 59.1627 43.5662L60.1588 43.4787ZM60.1611 43.529C60.1611 43.508 60.1599 43.4906 60.1589 43.479L59.1627 43.5659C59.162 43.5587 59.1611 43.5457 59.1611 43.529H60.1611ZM60.1591 43.5837C60.1602 43.5677 60.1611 43.5494 60.1611 43.529H59.1611C59.1611 43.5213 59.1614 43.5151 59.1617 43.5111L60.1591 43.5837ZM60.1532 43.6402C60.1542 43.6318 60.1572 43.609 60.1591 43.5836L59.1617 43.5112C59.1619 43.5078 59.1622 43.506 59.1621 43.5068C59.1619 43.508 59.1617 43.5099 59.161 43.5157L60.1532 43.6402ZM60.1525 43.6455L60.1532 43.6399L59.1609 43.516L59.1602 43.5217L60.1525 43.6455ZM60.1549 43.6223L60.1551 43.6189L59.1576 43.5483L59.1574 43.5517L60.1549 43.6223ZM60.1337 43.7895C60.149 43.7176 60.1531 43.648 60.1549 43.6222L59.1574 43.5518C59.1568 43.5602 59.1564 43.5662 59.1559 43.572C59.1555 43.5775 59.1551 43.5814 59.1548 43.5842C59.1542 43.5904 59.1541 43.5885 59.1555 43.5818L60.1337 43.7895ZM60.1308 43.8059C60.1332 43.7941 60.1356 43.7811 60.1379 43.7671L59.1513 43.6042C59.1512 43.6047 59.151 43.6061 59.1505 43.6087L60.1308 43.8059ZM60.1246 43.8348C60.1267 43.8259 60.1287 43.8162 60.1308 43.806L59.1505 43.6085C59.1501 43.6104 59.1496 43.6129 59.1489 43.6161L60.1246 43.8348ZM60.1111 43.8914C60.1147 43.877 60.1198 43.8564 60.1247 43.8348L59.1489 43.6161C59.1469 43.6249 59.1445 43.6347 59.1405 43.6508L60.1111 43.8914ZM60.1007 43.9286L60.1055 43.9121L59.1461 43.6301L59.1413 43.6465L60.1007 43.9286ZM60.0988 43.9354L60.1021 43.9238L59.1399 43.6514L59.1366 43.663L60.0988 43.9354ZM60.0597 44.0521C60.081 44.0006 60.0944 43.9509 60.0989 43.9347L59.1364 43.6637C59.1348 43.6693 59.1338 43.6729 59.1329 43.6761C59.132 43.6792 59.1315 43.6808 59.1313 43.6814C59.1308 43.683 59.1321 43.6784 59.1354 43.6705L60.0597 44.0521ZM41.2398 39.0467H38.8081V40.0467H41.2398V39.0467ZM38.3758 5.48102C41.0722 10.1201 46.0673 21.8905 40.7613 39.4017L41.7183 39.6917C47.1225 21.8568 42.0424 9.7993 39.2404 4.97851L38.3758 5.48102ZM39.3081 39.5467V5.22977H38.3081V39.5467H39.3081ZM37.4267 39.5467V5.47886H36.4267V39.5467H37.4267ZM34.6338 40.0467H36.9267V39.0467H34.6338V40.0467ZM36.4915 5.2328C33.6698 10.2241 28.8557 22.2036 34.1553 39.6917L35.1123 39.4017C29.909 22.2314 34.6429 10.5347 37.362 5.72492L36.4915 5.2328ZM56.1263 44.2566L56.1215 44.272L57.0766 44.5683L57.0814 44.5528L56.1263 44.2566ZM56.6682 44.9005L56.6689 44.9004L56.5387 43.9089L56.538 43.909L56.6682 44.9005ZM57.0334 42.6802C56.454 43.1936 56.2342 43.9064 56.1255 44.2565L57.0806 44.553C57.193 44.1911 57.3494 43.7363 57.6966 43.4286L57.0334 42.6802ZM43.4758 38.9994C52.9292 39.4911 56.051 42.1883 56.9715 43.3628L57.7586 42.746C56.5959 41.2624 53.1471 38.5011 43.5278 38.0008L43.4758 38.9994ZM43.3036 40.9386C43.5502 40.1585 43.7754 39.3906 43.9839 38.6327L43.0197 38.3675C42.8143 39.1143 42.5926 39.8701 42.3501 40.6372L43.3036 40.9386ZM41.9308 41.95C42.5618 41.95 43.1142 41.537 43.3036 40.9388L42.3502 40.637C42.2901 40.8267 42.1183 40.95 41.9308 40.95V41.95ZM33.94 41.95H41.9308V40.95H33.94V41.95ZM32.5672 40.9387C32.7565 41.537 33.309 41.95 33.94 41.95V40.95C33.7525 40.95 33.5806 40.8267 33.5207 40.6371L32.5672 40.9387ZM31.9344 38.791C32.1306 39.495 32.3391 40.2097 32.5668 40.9372L33.5211 40.6386C33.2972 39.9232 33.0918 39.2187 32.8976 38.5225L31.9344 38.791ZM22.8605 42.4469C23.6731 41.8124 24.5853 41.1391 26.0265 40.5487C27.4733 39.956 29.4754 39.4383 32.4633 39.1545L32.3687 38.159C29.3102 38.4495 27.2073 38.9843 25.6474 39.6233C24.0819 40.2646 23.0857 41.0023 22.245 41.6588L22.8605 42.4469ZM23.0275 42.2821C23.0345 42.2261 23.0413 42.1723 23.0485 42.1183L22.0571 41.9874C22.0495 42.0445 22.0424 42.1011 22.0354 42.1566L23.0275 42.2821ZM22.9916 42.5561C23.005 42.4599 23.0165 42.3687 23.0275 42.2821L22.0354 42.1566C22.0243 42.244 22.0135 42.3291 22.0011 42.4181L22.9916 42.5561ZM22.7911 44.7929C22.7657 44.2804 22.8972 43.2691 22.992 42.5527L22.0007 42.4215C21.912 43.0911 21.7613 44.2157 21.7924 44.8424L22.7911 44.7929ZM22.5166 43.8264C22.219 44.2319 22.1039 44.3476 22.0363 44.3878L22.5472 45.2475C22.823 45.0836 23.0559 44.7816 23.3227 44.4182L22.5166 43.8264ZM22.5213 43.8201L22.5179 43.8246L23.3214 44.42L23.3248 44.4154L22.5213 43.8201ZM25.3913 42.0797C23.7892 42.0797 22.9955 43.1804 22.5214 43.82L23.3247 44.4156C23.8141 43.7554 24.3376 43.0797 25.3913 43.0797V42.0797ZM28.2589 43.8199C27.785 43.1807 26.9914 42.0797 25.3913 42.0797V43.0797C26.4426 43.0797 26.966 43.755 27.4556 44.4155L28.2589 43.8199ZM28.2623 43.8244L28.2589 43.8199L27.4557 44.4156L27.4591 44.4202L28.2623 43.8244ZM28.8226 44.4007C28.7801 44.4007 28.7649 44.3957 28.7603 44.394C28.7558 44.3924 28.7392 44.3862 28.704 44.357C28.6165 44.284 28.4949 44.1399 28.2631 43.8255L27.4583 44.4191C27.678 44.717 27.868 44.962 28.0639 45.1252C28.2987 45.3209 28.5406 45.4007 28.8226 45.4007V44.4007ZM29.3828 43.8245C29.1492 44.1396 29.0277 44.284 28.9398 44.3573C28.9047 44.3867 28.8882 44.3927 28.8841 44.3942C28.8799 44.3957 28.8651 44.4007 28.8226 44.4007V45.4007C29.1049 45.4007 29.3463 45.3206 29.5807 45.1249C29.7757 44.9621 29.9657 44.7173 30.1861 44.4201L29.3828 43.8245ZM29.3861 43.8201L29.3827 43.8246L30.1862 44.42L30.1895 44.4154L29.3861 43.8201ZM32.2561 42.0797C30.6539 42.0797 29.8603 43.1804 29.3861 43.82L30.1894 44.4156C30.6789 43.7554 31.2024 43.0797 32.2561 43.0797V42.0797ZM35.1237 43.8199C34.6498 43.1807 33.8561 42.0797 32.2561 42.0797V43.0797C33.3074 43.0797 33.8307 43.755 34.3204 44.4155L35.1237 43.8199ZM35.127 43.8244L35.1236 43.8199L34.3204 44.4156L34.3238 44.4202L35.127 43.8244ZM35.6873 44.4007C35.6458 44.4007 35.6312 44.3958 35.627 44.3942C35.6228 44.3927 35.606 44.3865 35.5706 44.357C35.4825 44.2836 35.3602 44.1389 35.1271 43.8245L34.3238 44.4201C34.5446 44.7179 34.7351 44.9625 34.9304 45.1252C35.1645 45.3203 35.4056 45.4007 35.6873 45.4007V44.4007ZM36.2475 43.8245C36.014 44.1396 35.8924 44.284 35.8046 44.3573C35.7694 44.3867 35.753 44.3927 35.7489 44.3942C35.7447 44.3957 35.7298 44.4007 35.6873 44.4007V45.4007C35.9697 45.4007 36.2111 45.3206 36.4455 45.1249C36.6405 44.9621 36.8305 44.7173 37.0509 44.4201L36.2475 43.8245ZM39.1185 42.0797C37.5125 42.0797 36.719 43.1856 36.2469 43.8254L37.0515 44.4192C37.539 43.7585 38.0624 43.0797 39.1185 43.0797V42.0797ZM41.9861 43.8199C41.5122 43.1807 40.7186 42.0797 39.1185 42.0797V43.0797C40.1698 43.0797 40.6931 43.755 41.1828 44.4155L41.9861 43.8199ZM41.9897 43.8247L41.9863 43.8201L41.1827 44.4153L41.1861 44.4199L41.9897 43.8247ZM42.5521 44.4031C42.5096 44.4031 42.4945 44.3981 42.4899 44.3965C42.4855 44.3949 42.4687 44.3886 42.4334 44.3592C42.3454 44.2858 42.2232 44.1409 41.9901 43.8253L41.1856 44.4193C41.4065 44.7184 41.5971 44.9639 41.793 45.1273C42.028 45.3232 42.2699 45.4031 42.5521 45.4031V44.4031ZM43.1123 43.827C42.8788 44.142 42.7572 44.2864 42.6694 44.3597C42.6342 44.3891 42.6177 44.3951 42.6137 44.3966C42.6095 44.3981 42.5946 44.4031 42.5521 44.4031V45.4031C42.8345 45.4031 43.0759 45.3231 43.3103 45.1273C43.5052 44.9646 43.6953 44.7198 43.9156 44.4225L43.1123 43.827ZM43.1157 43.8224L43.1123 43.827L43.9156 44.4225L43.919 44.418L43.1157 43.8224ZM45.9857 42.0821C44.3835 42.0821 43.5898 43.1829 43.1157 43.8224L43.919 44.418C44.4085 43.7578 44.9319 43.0821 45.9857 43.0821V42.0821ZM48.8532 43.8224C48.3793 43.1831 47.5857 42.0821 45.9857 42.0821V43.0821C47.0369 43.0821 47.5603 43.7575 48.0499 44.4179L48.8532 43.8224ZM48.8566 43.8269L48.8532 43.8223L48.05 44.418L48.0534 44.4226L48.8566 43.8269ZM49.4169 44.4031C49.3744 44.4031 49.3592 44.3981 49.3546 44.3964C49.3502 44.3949 49.3335 44.3887 49.2983 44.3594C49.2108 44.2864 49.0892 44.1423 48.8574 43.828L48.0526 44.4215C48.2723 44.7194 48.4624 44.9645 48.6582 45.1277C48.893 45.3233 49.1349 45.4031 49.4169 45.4031V44.4031ZM49.9789 43.8253C49.7458 44.1409 49.6236 44.2858 49.5356 44.3592C49.5002 44.3886 49.4835 44.3949 49.479 44.3965C49.4745 44.3981 49.4594 44.4031 49.4169 44.4031V45.4031C49.6991 45.4031 49.9409 45.3232 50.1759 45.1273C50.3719 44.9639 50.5625 44.7183 50.7833 44.4193L49.9789 43.8253ZM52.8504 42.0797C51.2469 42.0797 50.4511 43.1853 49.9788 43.8254L50.7834 44.4192C51.2706 43.7588 51.7965 43.0797 52.8504 43.0797V42.0797ZM55.7204 43.8199C55.2462 43.1804 54.4526 42.0797 52.8504 42.0797V43.0797C53.9042 43.0797 54.4276 43.7553 54.9171 44.4155L55.7204 43.8199ZM55.7237 43.8244L55.7203 43.8199L54.9171 44.4156L54.9205 44.4202L55.7237 43.8244ZM56.284 44.4007C56.2425 44.4007 56.2279 44.3958 56.2236 44.3942C56.2194 44.3927 56.2027 44.3865 56.1672 44.357C56.0792 44.2836 55.9569 44.1389 55.7238 43.8245L54.9204 44.4201C55.1413 44.7179 55.3318 44.9625 55.5271 45.1252C55.7612 45.3203 56.0022 45.4007 56.284 45.4007V44.4007ZM56.4274 44.8841C56.2255 44.4267 56.2257 44.4266 56.2259 44.4265C56.226 44.4264 56.2262 44.4263 56.2264 44.4263C56.2267 44.4261 56.227 44.426 56.2273 44.4259C56.2279 44.4256 56.2285 44.4253 56.2292 44.4251C56.2304 44.4246 56.2316 44.424 56.2328 44.4235C56.2352 44.4225 56.2375 44.4216 56.2398 44.4206C56.2444 44.4188 56.2488 44.4171 56.2531 44.4155C56.2615 44.4124 56.2692 44.4099 56.276 44.4078C56.2895 44.4038 56.2995 44.4016 56.3052 44.4006C56.3163 44.3986 56.311 44.4007 56.284 44.4007V45.4007C56.3628 45.4007 56.4292 45.3945 56.4856 45.3842C56.5139 45.379 56.54 45.3727 56.5639 45.3655C56.5758 45.3619 56.5872 45.3581 56.5982 45.3541C56.6036 45.3521 56.609 45.35 56.6142 45.3479C56.6168 45.3469 56.6193 45.3458 56.6219 45.3447C56.6231 45.3442 56.6244 45.3437 56.6257 45.3431C56.6263 45.3428 56.6269 45.3426 56.6275 45.3423C56.6278 45.3422 56.6282 45.342 56.6285 45.3419C56.6286 45.3418 56.6289 45.3417 56.6289 45.3417C56.6292 45.3416 56.6294 45.3415 56.4274 44.8841ZM56.1215 44.2719C56.0961 44.3538 56.0666 44.4486 56.0387 44.5286C56.0246 44.5689 56.0134 44.5983 56.0056 44.6166C56.0017 44.6258 56.0009 44.6268 56.0032 44.6224C56.0045 44.62 56.008 44.6134 56.0138 44.6043C56.0191 44.5961 56.0302 44.5793 56.0476 44.559L56.8073 45.2092C56.8746 45.1305 56.9135 45.0368 56.9254 45.0091C56.946 44.9607 56.9657 44.9073 56.9829 44.858C57.0175 44.7587 57.0522 44.6469 57.0765 44.5684L56.1215 44.2719Z" fill="#222532"/>
<path d="M7.28833 31.1359C7.16839 30.9912 6.0772 29.731 4.68029 29.731C4.03358 29.731 3.10932 29.9991 2.38266 31.2736L1.57129 32.6976H8.59108L7.28833 31.1359Z" fill="white" stroke="#222532"/>
<path fill-rule="evenodd" clip-rule="evenodd" d="M5.46384 34.5747L6.43042 34.6767L6.30817 35.6497C5.95302 38.2793 3.20622 41.0536 3.08864 41.1722L1.81634 42.4443L1.50121 40.6644C1.12728 38.5712 1.39302 36.9621 2.28904 35.8823C3.54249 34.3706 5.46384 34.5747 5.46384 34.5747ZM3.73533 37.0998C3.56835 37.2992 3.44371 37.5531 3.3567 37.8521L3.35671 37.8521C3.5566 37.5507 3.74944 37.2351 3.91406 36.9171C3.85291 36.9716 3.79177 37.031 3.73533 37.0998Z" fill="white"/>
<path d="M6.43042 34.6767L6.92652 34.739L6.9901 34.233L6.48292 34.1795L6.43042 34.6767ZM5.46384 34.5747L5.41103 35.0719L5.41135 35.0719L5.46384 34.5747ZM6.30817 35.6497L6.80369 35.7166L6.80427 35.712L6.30817 35.6497ZM3.08864 41.1722L3.44216 41.5258L3.4438 41.5242L3.08864 41.1722ZM1.81634 42.4443L1.324 42.5315L1.49129 43.4764L2.16987 42.7979L1.81634 42.4443ZM1.50121 40.6644L1.99355 40.5772L1.99342 40.5765L1.50121 40.6644ZM2.28904 35.8823L2.67382 36.2016L2.67394 36.2014L2.28904 35.8823ZM3.3567 37.8521L2.87661 37.7124L2.82251 37.8984L2.90774 38.0722L3.3567 37.8521ZM3.73533 37.0998L4.11866 37.4209L4.12195 37.4169L3.73533 37.0998ZM3.35671 37.8521L2.90775 38.0722L3.29151 38.8551L3.77339 38.1285L3.35671 37.8521ZM3.91406 36.9171L4.3581 37.1469L3.58111 36.544L3.91406 36.9171ZM6.48292 34.1795L5.51634 34.0774L5.41135 35.0719L6.37792 35.1739L6.48292 34.1795ZM6.80427 35.712L6.92652 34.739L5.93432 34.6144L5.81207 35.5874L6.80427 35.712ZM3.4438 41.5242C3.51087 41.4565 4.24753 40.7121 5.01526 39.6445C5.77355 38.59 6.60918 37.1567 6.80367 35.7166L5.81267 35.5828C5.65201 36.7723 4.93667 38.0409 4.20338 39.0606C3.47952 40.0672 2.78398 40.7693 2.73347 40.8203L3.4438 41.5242ZM2.16987 42.7979L3.44216 41.5258L2.73511 40.8187L1.46282 42.0907L2.16987 42.7979ZM1.00887 40.7516L1.324 42.5315L2.30869 42.3572L1.99355 40.5772L1.00887 40.7516ZM1.90426 35.563C0.874425 36.8041 0.622631 38.5895 1.009 40.7523L1.99342 40.5765C1.63193 38.5529 1.91162 37.1201 2.67382 36.2016L1.90426 35.563ZM5.46384 34.5747C5.51666 34.0775 5.51645 34.0774 5.51623 34.0774C5.51614 34.0774 5.51591 34.0774 5.51575 34.0774C5.51541 34.0773 5.51505 34.0773 5.51466 34.0772C5.51387 34.0772 5.51296 34.0771 5.51194 34.077C5.50989 34.0768 5.50736 34.0765 5.50438 34.0762C5.49841 34.0757 5.49058 34.075 5.48099 34.0743C5.4618 34.0728 5.43549 34.071 5.40271 34.0694C5.3372 34.0663 5.24549 34.064 5.13282 34.0665C4.90812 34.0716 4.59631 34.0959 4.24067 34.1729C3.5301 34.3268 2.62262 34.6966 1.90414 35.5631L2.67394 36.2014C3.20891 35.5562 3.88883 35.2723 4.4523 35.1502C4.73368 35.0893 4.98055 35.0702 5.15528 35.0663C5.24232 35.0643 5.3105 35.0661 5.35496 35.0683C5.37717 35.0693 5.39336 35.0705 5.40293 35.0712C5.40771 35.0716 5.41083 35.0719 5.41221 35.072C5.4129 35.0721 5.41315 35.0721 5.41296 35.0721C5.41286 35.072 5.41265 35.072 5.41233 35.072C5.41217 35.072 5.41198 35.072 5.41176 35.0719C5.41165 35.0719 5.41147 35.0719 5.41142 35.0719C5.41122 35.0719 5.41103 35.0719 5.46384 34.5747ZM3.83679 37.9918C3.9098 37.7409 4.00697 37.5542 4.11864 37.4208L3.35202 36.7788C3.12973 37.0442 2.97763 37.3653 2.87661 37.7124L3.83679 37.9918ZM3.80567 37.6321L3.80566 37.6321L2.90774 38.0722L2.90775 38.0722L3.80567 37.6321ZM3.47003 36.6872C3.31612 36.9845 3.13341 37.2842 2.94002 37.5758L3.77339 38.1285C3.97979 37.8173 4.18277 37.4856 4.3581 37.1469L3.47003 36.6872ZM4.12195 37.4169C4.15577 37.3756 4.19615 37.3355 4.24702 37.2901L3.58111 36.544C3.50967 36.6078 3.42777 36.6863 3.34871 36.7827L4.12195 37.4169Z" fill="#222532"/>
<path fill-rule="evenodd" clip-rule="evenodd" d="M12.7066 29.2916C12.7066 30.2836 11.9046 31.0905 10.9216 31.0905C9.93861 31.0905 9.13904 30.2836 9.13904 29.2916C9.13904 28.2996 9.93861 27.4927 10.9216 27.4927C11.907 27.4927 12.7066 28.2996 12.7066 29.2916ZM11.0204 29.2916C11.0204 29.237 10.9757 29.1919 10.9216 29.1919C10.8675 29.1919 10.8252 29.237 10.8252 29.2916C10.8252 29.4007 11.0204 29.4007 11.0204 29.2916Z" fill="white"/>
<path d="M10.9216 31.5905C12.1842 31.5905 13.2066 30.5563 13.2066 29.2916H12.2066C12.2066 30.0109 11.6251 30.5905 10.9216 30.5905V31.5905ZM8.63904 29.2916C8.63904 30.5554 9.65818 31.5905 10.9216 31.5905V30.5905C10.219 30.5905 9.63904 30.0117 9.63904 29.2916H8.63904ZM10.9216 26.9927C9.65818 26.9927 8.63904 28.0277 8.63904 29.2916H9.63904C9.63904 28.5714 10.219 27.9927 10.9216 27.9927V26.9927ZM13.2066 29.2916C13.2066 28.0273 12.187 26.9927 10.9216 26.9927V27.9927C11.627 27.9927 12.2066 28.5718 12.2066 29.2916H13.2066ZM10.9216 29.6919C10.6953 29.6919 10.5204 29.5088 10.5204 29.2916H11.5204C11.5204 28.9651 11.2561 28.6919 10.9216 28.6919V29.6919ZM11.3252 29.2916C11.3252 29.4929 11.1634 29.6919 10.9216 29.6919V28.6919C10.5716 28.6919 10.3252 28.981 10.3252 29.2916H11.3252ZM10.5204 29.2916C10.5204 29.1495 10.5923 29.0258 10.691 28.9521C10.7754 28.8892 10.8619 28.8734 10.9228 28.8734C10.9837 28.8734 11.0702 28.8892 11.1546 28.9521C11.2533 29.0258 11.3252 29.1495 11.3252 29.2916H10.3252C10.3252 29.4882 10.4215 29.6529 10.5568 29.7538C10.6778 29.844 10.8131 29.8734 10.9228 29.8734C11.0325 29.8734 11.1678 29.844 11.2888 29.7538C11.4241 29.6529 11.5204 29.4882 11.5204 29.2916H10.5204Z" fill="#222532"/>
</svg>
