<?xml version="1.0" encoding="utf-8"?><svg width="17" height="45" fill="none" xmlns="http://www.w3.org/2000/svg" viewBox="0 0 17 45"><path fill-rule="evenodd" clip-rule="evenodd" d="M1 21.139C1 8.058 6.422 1 8.639 1c2.217 0 7.639 7.057 7.639 20.139 0 13.217-4.743 22.177-4.945 22.552l-.196.364H6.141l-.197-.364C5.744 43.316 1 34.356 1 21.139zM7.945 2.844zm0 0V24.61h1.389V2.844c1.777 1.587 5.555 7.36 5.555 18.295 0 3.65-.384 6.979-.93 9.887-.804-1.144-2.282-2.701-4.974-4.24-6.547-3.741-6.467-8.878-6.462-9.095h-.002C3.204 8.974 6.365 4.256 7.945 2.844zM2.525 24.78a51.331 51.331 0 01-.113-2.526c.993 1.845 2.755 3.951 5.883 5.74 4.446 2.54 5.207 5.053 5.226 5.117a52.626 52.626 0 01-1.087 4.023c-.585-1.037-1.616-2.31-3.437-3.396-5.485-3.266-6.35-8.003-6.472-8.958zm6.808 17.887h.96c.276-.57.835-1.789 1.47-3.542-.135-.578-.784-2.59-3.478-4.195-2.45-1.46-4.061-3.197-5.125-4.826 1.137 6.662 3.2 11.275 3.824 12.563h.96v-4.861h1.39v4.86z" fill="#fff"/><path d="M8.639 1V.75 1zm2.694 42.69l.22.12v-.001l-.22-.118zm-.196.365v.25h.15l.07-.131-.22-.119zm-4.996 0l-.22.119.07.131h.15v-.25zm-.197-.364l-.22.118.22-.118zm2-40.847l-.08-.237-.17.058v.179h.25zm0 0l.167.186-.247-.423.08.237zm0 21.767h-.25v.25h.25v-.25zm1.39 0v.25h.25v-.25h-.25zm0-21.767l.166-.187-.416-.372v.559h.25zm4.625 28.182l-.205.144.34.485.11-.583-.245-.046zm-4.974-4.24l-.124.217.124-.217zm-6.462-9.095l.25.006.006-.256h-.256v.25zm-.002 0l-.249-.02-.021.27h.27v-.25zm-.109 4.563l.22-.119-.47.124.25-.005zm.113 2.526l-.25.018.002.013.248-.031zm5.77 3.213l-.124.217.124-.217zm5.226 5.118l-.24.072.24-.072zm0 0l.244.056.015-.065-.02-.063-.239.072zm-1.087 4.023l-.217.123.283.502.173-.55-.239-.075zm-3.437-3.396l.128-.215-.128.215zm1.297 8.929v.25h.431l-.215-.375-.216.125zm-.96 0h-.25v.25h.25v-.25zm.96 0l-.226-.11-.057.12.066.114.216-.124zm1.47-3.542l.235.085.025-.07-.017-.072-.243.057zm-3.48-4.195l-.127.215.128-.215zM3.16 30.104l.21-.137-.457.18.247-.043zm3.824 12.563l-.224.109.068.14h.156v-.25zm.96 0v.25h.25v-.25h-.25zm0-4.861v-.25h-.25v.25h.25zm1.39 0h.25v-.25h-.25v.25zM8.638.75c-.34 0-.713.134-1.095.365-.384.233-.795.576-1.216 1.02-.841.89-1.74 2.204-2.565 3.921C2.113 9.492.75 14.564.75 21.139h.5c0-6.507 1.348-11.504 2.963-14.867.808-1.682 1.68-2.95 2.478-3.793.4-.421.776-.732 1.113-.936.339-.206.62-.293.835-.293v-.5zm7.889 20.389c0-6.575-1.363-11.647-3.013-15.083-.825-1.717-1.724-3.031-2.566-3.92-.42-.445-.831-.788-1.216-1.02C9.352.883 8.98.75 8.64.75v.5c.214 0 .496.087.835.293.337.204.713.515 1.112.936.799.843 1.67 2.111 2.479 3.793 1.614 3.363 2.963 8.36 2.963 14.867h.5zm-4.974 22.67c.211-.394 4.974-9.396 4.974-22.67h-.5c0 13.16-4.724 22.077-4.915 22.433l.44.237zm-.197.365l.196-.365-.44-.237-.196.365.44.237zm-5.216.131h4.996v-.5H6.141v.5zm-.417-.496l.196.365.44-.237-.195-.365-.44.237zM.75 21.14c0 13.274 4.763 22.276 4.974 22.67l.44-.237c-.19-.356-4.914-9.274-4.914-22.433h-.5zM7.695 2.844h.5-.5zm.17-.237l.16.473-.16-.473zm.246.423l-.333-.373.333.373zm.084 21.581V2.844h-.5V24.61h.5zm1.139-.25h-1.39v.5h1.39v-.5zm-.25-21.517V24.61h.5V2.844h-.5zm6.055 18.295c0-10.987-3.795-16.836-5.639-18.482l-.333.373c1.712 1.528 5.472 7.225 5.472 18.109h.5zm-.935 9.933c.55-2.921.935-6.266.935-9.933h-.5c0 3.632-.382 6.946-.926 9.84l.491.093zm-5.343-4.069c2.662 1.522 4.112 3.055 4.893 4.167l.41-.288c-.827-1.176-2.333-2.757-5.055-4.313l-.248.434zm-6.588-9.318c-.007.27-.067 5.515 6.588 9.318l.248-.434c-6.438-3.68-6.34-8.709-6.336-8.872l-.5-.012zm.248.256h.002v-.5h-.002v.5zM7.778 2.657c-1.64 1.465-4.82 6.251-5.506 15.014l.498.04C3.45 9.04 6.591 4.388 8.111 3.03l-.333-.374zM2.162 22.26c.02.863.054 1.71.113 2.539l.5-.036a51.087 51.087 0 01-.113-2.514l-.5.011zm6.257 5.517c-3.087-1.765-4.816-3.836-5.787-5.64l-.44.236c1.015 1.887 2.81 4.027 5.98 5.838l.247-.434zm5.341 5.262c-.037-.122-.837-2.688-5.34-5.262l-.249.434c4.388 2.508 5.11 4.968 5.11 4.973l.48-.145zm0 0l-.478.145v.001l.478-.145zm-1.087 4.17c.375-1.193.75-2.548 1.092-4.04l-.488-.112a52.37 52.37 0 01-1.081 4.003l.477.15zm-3.804-3.255c1.78 1.06 2.782 2.302 3.348 3.304l.435-.246c-.605-1.071-1.666-2.379-3.527-3.488l-.256.43zM2.277 24.81c.126.996 1.016 5.822 6.592 9.142l.256-.43c-5.393-3.21-6.236-7.861-6.352-8.775l-.496.063zm8.017 17.606h-.96v.5h.96v-.5zm-.217.374l.433-.249-.433.249zm1.452-3.751a37.599 37.599 0 01-1.46 3.517l.45.219a38.07 38.07 0 001.48-3.566l-.47-.17zm-3.372-3.895c2.623 1.562 3.24 3.508 3.364 4.037l.486-.114c-.147-.628-.828-2.706-3.594-4.352l-.256.43zM2.95 30.241c1.083 1.658 2.721 3.423 5.206 4.904l.256-.43c-2.415-1.439-3.999-3.149-5.044-4.748l-.418.274zm4.258 12.317c-.617-1.274-2.67-5.864-3.803-12.496l-.493.084c1.143 6.691 3.214 11.327 3.847 12.63l.45-.218zm.736-.141h-.96v.5h.96v-.5zm-.25-4.611v4.86h.5v-4.86h-.5zm1.638-.25H7.945v.5h1.388v-.5zm.25 5.11v-4.86h-.5v4.86h.5z" fill="#fff"/></svg>