<?xml version="1.0" encoding="utf-8"?><svg width="59" height="46" fill="none" xmlns="http://www.w3.org/2000/svg" viewBox="0 0 59 46"><path fill-rule="evenodd" clip-rule="evenodd" d="M58.26 42.486a.52.52 0 01-.035.083.171.171 0 01-.056.073c-.01.017-.022.033-.033.048l-.016.023-.061.074-.059.057a.644.644 0 01-.167.12l-.014.008c-.016.009-.032.018-.05.026a.382.382 0 01-.029.013l-.033.012-.027.01a.371.371 0 00-.018.008l-.017.008a.158.158 0 01-.021.006l-.013.001h-.002l-.011.001a.892.892 0 01-.226.031c-.106 0-.143.017-.143.017-.044.05-.122.303-.172.464l-.005.015c-.183.594-.566 1.828-2.116 1.828-1.326 0-1.984-.889-2.466-1.538l-.004-.005c-.451-.615-.623-.78-.962-.78-.338 0-.508.165-.961.778l-.004.004c-.482.65-1.14 1.538-2.468 1.538-1.326 0-1.984-.888-2.466-1.538l-.003-.004c-.452-.613-.624-.779-.962-.779-.337 0-.508.166-.962.781-.48.65-1.14 1.543-2.47 1.543-1.328 0-1.986-.889-2.468-1.538l-.003-.005c-.452-.612-.623-.778-.962-.778-.339 0-.508.166-.962.778-.48.65-1.138 1.543-2.47 1.543-1.325 0-1.983-.889-2.465-1.538l-.004-.005c-.451-.612-.623-.778-.961-.778-.337 0-.509.166-.962.78-.48.65-1.14 1.543-2.47 1.543-1.325 0-1.984-.888-2.466-1.538l-.003-.005c-.452-.612-.623-.778-.962-.778-.336 0-.508.166-.962.78-.48.651-1.14 1.544-2.47 1.544a1.4 1.4 0 01-1.074-.487c-.656-.755-.524-2.041-.254-4.077l.005-.035c.096-.737.244-1.86.195-2.407-1.757.346-4.25 3.899-5.543 6.483a.937.937 0 01-.84.523c-.018 0-.037 0-.056-.003a.937.937 0 01-.828-.622c-.216-.603-2.065-5.973-.143-8.945.72-1.11 1.886-1.749 3.377-1.846 1.296-.085 1.888-.437 2.001-.714.075-.185-.044-.501-.308-.802-.7-.805-2.267-1.45-4.05-.962-2.471.675-5.242 4.019-6.175 7.455-.327 1.208-.68 3.444.656 4.827a.957.957 0 01-.019 1.343.934.934 0 01-1.331-.019c-1.475-1.525-1.872-3.89-1.122-6.652.971-3.578 4.043-7.843 7.5-8.785 2.575-.703 4.844.265 5.954 1.54.77.88 1 1.894.635 2.781-.317.772-1.201 1.726-3.619 1.885-.9.06-1.529.384-1.921.99-.793 1.224-.61 3.395-.25 5.128 1.412-2.286 3.888-5.606 6.451-5.525.414.014.788.195 1.051.51.264.314.393.72.44 1.222 1.731-1.155 4.257-2.3 9.243-2.807C25.188 13.32 35.348.883 35.809.335a.12.12 0 01.012-.01l.014-.014a.948.948 0 01.087-.083.384.384 0 01.059-.05c.029-.02.057-.036.087-.053l.02-.011c.02-.012.038-.024.06-.033a.92.92 0 01.169-.054l.016-.006A.9.9 0 0136.531 0l.139.005c.277 0 .538.12.717.334.46.546 10.57 12.92 5.263 34.909 13.88.82 15.578 6.41 15.644 6.654l.004.03.014.093c.005.034.01.067.01.1a.08.08 0 000 .007v.007a.182.182 0 01-.002.063v.01c-.003.032-.006.066-.012.098l-.004.022a.661.661 0 01-.004.018l-.011.046-.005.016-.003.012c-.006.021-.012.042-.02.062zM37.471 38.17h2.432c5.355-17.673.317-29.587-2.432-34.317v34.317zM35.59 4.103v34.068h-2.293c-5.252-17.329-.478-29.167 2.293-34.068zm19.672 38.942l.005-.016h-.001c.11-.356.299-.94.762-1.35-1.042-1.33-4.327-4.058-13.863-4.554-.207.752-.43 1.514-.675 2.287a.942.942 0 01-.896.663h-7.991a.942.942 0 01-.896-.663 70.597 70.597 0 01-.628-2.13c-6.046.574-8.21 2.104-9.863 3.395l-.022.167c-.01.087-.022.175-.035.268-.091.693-.232 1.76-.204 2.33.171-.102.345-.31.628-.695l.003-.005c.482-.65 1.14-1.538 2.468-1.538 1.326 0 1.984.888 2.466 1.538l.004.005c.451.612.623.778.961.778.34 0 .509-.166.962-.778l.004-.005c.482-.65 1.14-1.538 2.468-1.538 1.326 0 1.984.888 2.466 1.538l.003.005c.454.612.626.778.962.778.339 0 .508-.166.962-.778.48-.65 1.138-1.543 2.47-1.543 1.325 0 1.984.888 2.465 1.538l.004.005c.454.614.625.78.964.78.339 0 .508-.166.962-.778l.003-.004c.482-.65 1.14-1.538 2.469-1.538 1.325 0 1.984.888 2.466 1.538l.003.004c.451.612.623.779.962.779.339 0 .51-.166.964-.781.48-.65 1.14-1.543 2.47-1.543 1.327 0 1.986.888 2.468 1.538l.003.005c.454.612.626.778.962.778.106 0 .143-.016.143-.016.044-.051.122-.304.172-.464z" fill="#fff"/><path d="M5.951 29.76c-.12-.144-1.21-1.405-2.608-1.405-.646 0-1.57.269-2.297 1.543l-.812 1.424h7.02L5.951 29.76z" fill="#fff"/><path fill-rule="evenodd" clip-rule="evenodd" d="M4.127 33.2l.966.101-.122.973c-.355 2.63-3.102 5.404-3.22 5.523L.48 41.069l-.315-1.78c-.374-2.093-.108-3.702.788-4.782 1.253-1.512 3.175-1.308 3.175-1.308zm-1.729 2.524c-.167.2-.291.454-.378.753.2-.302.392-.617.557-.935a1.64 1.64 0 00-.179.182zM11.37 27.916c0 .992-.802 1.799-1.785 1.799a1.793 1.793 0 01-1.783-1.799c0-.992.8-1.799 1.783-1.799.985 0 1.784.807 1.784 1.8zm-1.687 0a.1.1 0 00-.098-.1.098.098 0 00-.097.1c0 .11.195.11.195 0z" fill="#fff"/></svg>