<?xml version="1.0" encoding="utf-8"?><svg width="40" height="41" fill="none" xmlns="http://www.w3.org/2000/svg" viewBox="0 0 40 41"><path d="M39.037 32.704H30.75a.484.484 0 000 .97h8.287a.484.484 0 000-.97zM39.037 38.856h-9.291a.484.484 0 000 .97h9.291a.484.484 0 000-.97zM1.481 36.207h7.493a.484.484 0 000-.97H1.481a.484.484 0 00-.481.485c0 .27.216.485.481.485z" fill="#fff" stroke="#fff" stroke-width=".7"/><path fill-rule="evenodd" clip-rule="evenodd" d="M4.745 1.05a.478.478 0 01.555.093.49.49 0 01.088.562 4.263 4.263 0 00-.45 1.91c0 2.378 1.93 4.313 4.3 4.313.664 0 1.306-.153 1.907-.453a.478.478 0 01.555.093.488.488 0 01.09.56 5.231 5.231 0 01-4.71 2.94c-2.903 0-5.264-2.372-5.264-5.286A5.258 5.258 0 014.745 1.05zm5.383 7.773a5.156 5.156 0 01-.89.076c-2.902 0-5.262-2.37-5.26-5.284 0-.303.024-.6.075-.895a4.286 4.286 0 00-1.274 3.062c0 2.38 1.93 4.315 4.3 4.315a4.256 4.256 0 003.049-1.274z" fill="#fff"/><path d="M5.3 1.143l-.249.247.008.007.24-.254zm-.555-.093l.156.314-.156-.314zm.555.094l.25-.246L5.54.89l-.24.255zm.088.56l-.313-.156v.001l.313.156zm5.757 5.771l.156.314-.156-.314zm.555.093l-.248.247.248-.247zm.09.56l-.313-.156.313.156zm-2.552.77v-.35H8.56l.393.553.285-.202zm.89-.075l.25.245.763-.777-1.073.187.06.345zm-.89.076v.35h.678l-.393-.553-.285.203zm-5.26-5.284h.35-.35zm.075-.895l.345.06.185-1.075-.776.766.246.25zM5.548.897a.828.828 0 00-.96-.16l.313.627a.128.128 0 01.15.026l.497-.493zM5.541.889l-.482.508.482-.508zm.16.972A.84.84 0 005.55.9l-.5.49a.14.14 0 01.025.159l.626.313zM5.29 3.616c0-.612.138-1.201.413-1.756l-.627-.31a4.613 4.613 0 00-.486 2.066h.7zm3.95 3.962c-2.176 0-3.95-1.777-3.95-3.962h-.7c0 2.57 2.085 4.662 4.65 4.662v-.7zm1.75-.416a3.896 3.896 0 01-1.75.416v.7c.719 0 1.413-.166 2.062-.49l-.312-.626zm.96.16a.828.828 0 00-.96-.16l.313.627a.128.128 0 01.15.026l.497-.493zm.155.961a.838.838 0 00-.155-.961l-.497.493c.04.04.05.105.025.157l.627.311zm-5.025 3.135a5.581 5.581 0 005.025-3.135l-.627-.31a4.881 4.881 0 01-4.398 2.745v.7zM1.466 5.782c0 3.106 2.516 5.636 5.613 5.636v-.7c-2.707 0-4.913-2.214-4.913-4.936h-.7zM4.59.737a5.608 5.608 0 00-3.123 5.045h.7a4.908 4.908 0 012.735-4.418L4.589.737zM9.238 9.25c.32 0 .636-.027.95-.081l-.12-.69c-.273.048-.548.07-.83.07v.7zm.285-.553l-.57.405.57-.405zM3.627 3.615c-.002 3.106 2.514 5.634 5.611 5.634v-.7c-2.707 0-4.912-2.212-4.91-4.934h-.7zm.08-.954a5.59 5.59 0 00-.08.954h.7c0-.284.023-.562.07-.835l-.69-.12zM3.13 5.782c0-1.081.43-2.084 1.17-2.812l-.492-.499a4.636 4.636 0 00-1.378 3.311h.7zm3.95 3.965c-2.175 0-3.95-1.778-3.95-3.965h-.7c0 2.571 2.086 4.665 4.65 4.665v-.7zm2.799-1.17a3.906 3.906 0 01-2.8 1.17v.7a4.606 4.606 0 003.3-1.379l-.5-.49z" fill="#fff"/><path fill-rule="evenodd" clip-rule="evenodd" d="M39.039 24.926h-.002a.484.484 0 00-.481.483l-.012 2.592L20.677 1.439c-.179-.267-.617-.267-.797 0L2.025 27.982l.012-2.751a.483.483 0 00-.48-.487h-.002a.484.484 0 00-.481.483l-.017 4.341a.486.486 0 00.481.488.485.485 0 00.399-.213l2.81-4.176v3.905c0 .268.216.486.481.486h10.724a4.368 4.368 0 004.168 3.093h.019a.227.227 0 01.019-.002l.01.001.009.001.017-.001.01-.001a4.366 4.366 0 004.081-3.091h11.045a.484.484 0 00.482-.486v-3.905l2.81 4.176a.477.477 0 00.538.192.485.485 0 00.34-.463l.019-4.16a.482.482 0 00-.48-.486zm-18.806 7.25h-.006a.946.946 0 01-.07.003 1.535 1.535 0 01-1.512-1.532c0-.551.805-1.821 1.531-2.779.726.958 1.531 2.228 1.531 2.78 0 .824-.656 1.497-1.474 1.527zm2.435-1.53c0 .143-.018.28-.04.416.55-.606.889-1.408.885-2.29 0-1.454-2.19-4.547-3.397-6.087-1.205 1.54-3.396 4.635-3.396 6.088 0 .955.396 1.82 1.03 2.44a2.574 2.574 0 01-.07-.568c0-1.228 1.77-3.437 2.124-3.867a.496.496 0 01.741 0c.355.43 2.123 2.639 2.123 3.867zm-2.177-9.041a.496.496 0 00-.742 0c-.408.494-3.989 4.908-3.989 7.168 0 .076.005.151.01.226l.005.088h-4.848v-3.2c.628-.512 2.71-2.286 4.819-4.92 1.711-2.136 3.665-5.156 4.551-8.599.886 3.445 2.84 6.463 4.552 8.6 2.108 2.633 4.19 4.407 4.818 4.92v3.2h-5.204c.007-.105.015-.21.015-.315.002-2.26-3.58-6.673-3.987-7.168zm10.137 7.482h4.22l.003-4.851-14.57-21.66L5.71 24.237v4.851h4.252v-3.435c0-.152.07-.294.188-.385.117-.092 9.663-7.634 9.663-16.561 0-.267.217-.485.482-.485s.481.218.481.485c0 8.924 9.54 16.464 9.663 16.56v.001a.49.49 0 01.189.385v3.435z" fill="#fff"/><path d="M39.039 24.926v.35h.016l-.016-.35zm-.483.483l-.35-.002.35.002zm-.012 2.592l-.29.195.635.945.005-1.139-.35-.001zM20.677 1.439l-.29.195.29-.195zm-.797 0l-.29-.196.29.196zM2.025 27.982l-.35-.002-.004 1.156.645-.959-.29-.195zm.012-2.751l-.35-.003v.002h.35zm-.963-.004l-.35-.002.35.002zm-.017 4.341l.35.003v-.001l-.35-.002zm.338.467l.108-.333h-.001l-.107.333zm.542-.192l.289.198.001-.002-.29-.196zm2.81-4.176h.35V24.52l-.64.951.29.196zm11.205 4.39l.335-.102-.076-.247h-.259v.35zm4.187 3.094l.027.348h.002l-.03-.349zm0 0l-.027-.35h-.002l.029.35zm.028 0l-.05.346.011.001.04-.348zm0 0l.044-.348h-.005l-.039.348zm0 0l.05-.347h-.006l-.044.346zm.027-.001l.046.347h.005l-.05-.347zm.01-.001l.05.346h.003l-.052-.346zm.029-.003v.35h.009l-.009-.35zm4.053-3.088v-.35h-.259l-.076.247.335.103zm11.526-4.391l.29-.196-.64-.951v1.147h.35zm2.81 4.176l.29-.195-.29.195zm.538.192l.104.334-.104-.334zm.34-.463l-.35-.001v.001h.35zm.019-4.16l-.35-.002v.001l.35.002zm-.48-.486l.003-.35h-.019l.016.35zm-18.812 7.25l-.025-.35.025.35zm.006 0l.078-.342-.05-.011-.053.003.025.35zm-.075.003l-.005.35h.005v-.35zm.018-4.31l.28-.212-.28-.368-.278.368.278.211zm.057 4.306l-.079.341.045.01h.047l-.013-.35zm2.394-1.112l.338.09.005-.017.002-.016-.345-.058zm0 0l-.338-.09.597.325-.259-.235zm.886-2.29h-.35v.001l.35-.002zm-3.397-6.088l.276-.216-.276-.351-.275.351.275.216zm-2.366 8.527l-.245.25.846.828-.26-1.154-.34.076zm2.054-4.434l-.27-.222.27.222zm.741 0l-.27.222.27-.222zm-.796-5.173l.27.222-.27-.222zm.742 0l-.27.222.104.128h.166v-.35zm-4.721 7.394h.35v-.023l-.35.023zm0 0h-.35v.022l.35-.022zm.005.088v.35h.37l-.02-.368-.35.018zm-4.848 0h-.35v.35h.35v-.35zm0-3.2l-.221-.27-.13.104v.166h.35zm4.819-4.92l-.274-.218.274.219zm4.551-8.599l.339-.087h-.678l.339.087zm4.552 8.6l.273-.219-.273.219zm4.818 4.92h.35v-.167l-.129-.105-.22.271zm0 3.2v.35h.35v-.35h-.35zm-5.204 0l-.35-.026-.026.375h.376v-.35zm.015-.315h-.35.35zm-3.987-7.168l.27-.223-.105-.127h-.165v.35zm14.357 7.482v.35h.35v-.35h-.35zm-4.22 0h-.35v.35h.35v-.35zm4.223-4.851h.35v-.107l-.06-.088-.29.195zM20.28 2.576l.29-.195-.29-.431-.291.431.29.196zM5.71 24.237l-.29-.195-.06.088v.107h.35zm0 4.851h-.35v.35h.35v-.35zm4.252 0v.35h.35v-.35h-.35zm.188-3.82l.213.278.004-.003-.217-.275zm0 0l-.217-.275.217.275zm20.29 0l.217-.274-.218.274zm0 0l-.218.275h.002l.216-.275zm8.597.009h.002v-.7h-.002v.7zm-.131.136c0-.08.062-.136.131-.136v-.7a.834.834 0 00-.831.83l.7.006zm-.012 2.59l.012-2.591-.7-.003-.012 2.591.7.003zM20.387 1.635l17.867 26.56.58-.39L20.968 1.244l-.58.39zm-.217 0c.014-.02.05-.046.109-.046.06 0 .094.025.107.045l.582-.39a.823.823 0 00-.689-.355.826.826 0 00-.69.354l.58.392zM2.316 28.177L20.17 1.635l-.58-.391L1.734 27.786l.58.391zm-.63-2.947l-.01 2.75.7.003.01-2.75-.7-.003zm-.129-.136c.068 0 .13.058.13.134l.7.005a.833.833 0 00-.83-.84v.7zm-.002 0h.002v-.7h-.002v.7zm-.131.136c0-.08.062-.136.131-.136v-.7a.834.834 0 00-.831.83l.7.006zm-.017 4.34l.017-4.341-.7-.003-.017 4.341.7.003zm.095.131a.136.136 0 01-.095-.13l-.7-.006a.836.836 0 00.582.803l.213-.667zm.036.005a.114.114 0 01-.035-.004l-.215.666a.808.808 0 00.25.038v-.7zm.11-.06a.135.135 0 01-.11.06v.7c.272 0 .53-.135.688-.365l-.578-.395zm2.808-4.175l-2.81 4.177.581.39 2.81-4.176-.58-.39zm.64 4.101v-3.905h-.7v3.905h.7zm.132.136a.134.134 0 01-.131-.136h-.7c0 .458.37.835.831.835v-.7zm10.724 0H5.228v.7h10.724v-.7zM20.12 32.8c-1.8 0-3.33-1.198-3.833-2.846l-.67.205A4.718 4.718 0 0020.12 33.5v-.7zm-.008 0h-.002.01v.7a.553.553 0 00.046-.002l-.054-.698zm-.002 0l.058.698-.058-.697zm.048-.002a.55.55 0 00-.046.002l.054.698h.002-.01v-.7zm.059.005a.472.472 0 00-.06-.005v.7a.293.293 0 01-.034-.001l-.006-.001.1-.693zm-.011-.001l-.078.695.078-.695zm.005 0l-.087.695.087-.695zm-.034-.002l.034.002.006.001-.1.693a.472.472 0 00.06.004v-.7zm-.028.002c.001 0 .012-.002.027-.002v.7c.028 0 .05-.002.064-.004l-.091-.694zm.006 0h-.01l.1.693.01-.001-.1-.693zm.078-.007c-.04 0-.076.006-.08.007l.104.692.004-.001h-.003a.233.233 0 01-.025.002v-.7zm3.718-2.84a4.016 4.016 0 01-3.727 2.84l.018.7a4.716 4.716 0 004.379-3.336l-.67-.205zm11.38-.248H24.285v.7H35.33v-.7zm.13-.136a.134.134 0 01-.13.136v.7a.834.834 0 00.83-.836h-.7zm0-3.905v3.905h.7v-3.905h-.7zm3.451 3.98l-2.81-4.175-.58.39 2.81 4.177.58-.391zm.144.054a.127.127 0 01-.144-.053l-.58.39c.203.304.58.44.931.331l-.207-.668zm.094-.129a.135.135 0 01-.094.129l.208.668a.835.835 0 00.586-.797h-.7zm.019-4.16l-.019 4.159.7.003.019-4.16-.7-.003zm-.132-.136c.074 0 .132.059.132.134l.7.005a.832.832 0 00-.827-.84l-.005.7zm.018 0l-.032-.7.032.7zm-18.802 7.249h.005l-.05-.699h-.006l.05.699zm-.095.004c.037 0 .073-.003.095-.004l-.05-.698a.63.63 0 01-.045.002v.7zm-1.863-1.882c0 1.03.832 1.868 1.858 1.882l.01-.7a1.185 1.185 0 01-1.168-1.182h-.7zm1.602-2.99c-.369.486-.76 1.056-1.061 1.578-.151.26-.282.516-.377.747-.091.223-.164.457-.164.665h.7c0-.067.029-.198.111-.4.08-.191.194-.417.336-.662.283-.49.656-1.035 1.013-1.505l-.557-.423zm2.16 2.99c0-.208-.072-.442-.163-.665a6.42 6.42 0 00-.377-.747 15.883 15.883 0 00-1.062-1.578l-.557.423c.356.47.73 1.015 1.013 1.505.141.245.257.47.335.663.083.2.111.332.111.4h.7zm-1.811 1.878a1.882 1.882 0 001.811-1.878h-.7c0 .635-.506 1.155-1.137 1.179l.026.7zm-.092-.009l.157-.682-.157.682zm2.818-1.396c.024-.142.046-.301.046-.475h-.7c0 .115-.015.229-.036.36l.69.115zm-.007.033l-.676-.18.676.18zm.198-2.379c.003.789-.3 1.508-.795 2.053l.518.47c.607-.667.981-1.552.977-2.526l-.7.003zm-3.322-5.873c.598.763 1.439 1.91 2.127 3.042.345.566.647 1.122.863 1.62.219.507.332.92.332 1.21h.7c0-.438-.16-.957-.39-1.488a14.337 14.337 0 00-.907-1.706 33.934 33.934 0 00-2.174-3.11l-.551.432zm-2.771 5.872c0-.29.113-.702.332-1.209a13.7 13.7 0 01.863-1.62 33.482 33.482 0 012.127-3.043l-.551-.432a34.151 34.151 0 00-2.174 3.11 14.388 14.388 0 00-.908 1.707c-.229.53-.39 1.05-.39 1.486h.7zm.925 2.19a3.056 3.056 0 01-.925-2.19h-.7c0 1.054.438 2.007 1.135 2.69l.49-.5zm-.665-.318c0 .23.034.444.079.644l.683-.154a2.225 2.225 0 01-.061-.49h-.7zm2.204-4.09c-.18.22-.721.892-1.219 1.669-.249.388-.491.809-.672 1.218-.179.401-.313.823-.313 1.203h.7c0-.233.088-.548.252-.92.162-.364.384-.752.622-1.124.476-.742.997-1.39 1.17-1.6l-.54-.445zm1.281 0a.845.845 0 00-1.281 0l.54.445c.015-.018.049-.038.1-.038.052 0 .086.02.1.038l.541-.444zm2.203 4.09c0-.38-.133-.802-.311-1.203a9.363 9.363 0 00-.672-1.218 18.334 18.334 0 00-1.22-1.669l-.54.446c.174.21.695.858 1.17 1.6.238.372.46.76.622 1.124.164.371.251.686.251.92h.7zm-2.998-8.818c.015-.018.048-.039.1-.039.052 0 .085.02.1.039l.54-.445a.845.845 0 00-1.28 0l.54.445zm-3.91 6.946c0-.487.197-1.13.534-1.857.332-.718.783-1.482 1.25-2.198a35.253 35.253 0 012.125-2.89l-.54-.446a35.963 35.963 0 00-2.17 2.953c-.478.732-.949 1.526-1.3 2.287-.348.752-.599 1.508-.599 2.15h.7zm.01.203a3.211 3.211 0 01-.01-.203h-.7c0 .089.006.175.01.248l.7-.045zm0 .023h-.7.7zm.005.07a8.385 8.385 0 00-.006-.093l-.698.045.005.085.699-.037zm-5.198.369h4.848v-.7h-4.848v.7zm-.35-3.55v3.2h.7v-3.2h-.7zm4.895-5.139c-2.088 2.608-4.15 4.364-4.766 4.867l.442.543c.64-.521 2.742-2.313 4.87-4.973l-.546-.437zm4.486-8.468c-.868 3.376-2.79 6.35-4.486 8.468l.547.438c1.727-2.156 3.714-5.221 4.617-8.731l-.678-.175zm5.164 8.468c-1.696-2.118-3.618-5.09-4.486-8.468l-.678.175c.903 3.512 2.89 6.574 4.617 8.73l.547-.437zm4.766 4.867c-.617-.503-2.679-2.26-4.766-4.867l-.547.438c2.13 2.659 4.231 4.45 4.871 4.972l.442-.543zm.13 3.471v-3.2h-.7v3.2h.7zm-5.555.35h5.204v-.7h-5.204v.7zm-.335-.664c0 .091-.007.183-.014.29l.698.05c.007-.103.016-.22.016-.34h-.7zm-3.907-6.946c.2.244 1.188 1.46 2.124 2.891.468.717.918 1.48 1.25 2.198.337.727.533 1.37.533 1.857h.7c0-.643-.25-1.4-.597-2.15-.352-.761-.822-1.556-1.3-2.288a35.949 35.949 0 00-2.17-2.953l-.54.445zm.27.128v-.7.7zm14.357 6.782h-4.22v.7h4.22v-.7zm-.347-4.501l-.003 4.851h.7l.003-4.85-.7-.001zM19.99 2.772l14.57 21.66.581-.391-14.57-21.66-.581.391zM6 24.432l14.57-21.66-.58-.39L5.42 24.04l.58.39zm.06 4.655v-4.851h-.7v4.851h.7zm3.902-.35H5.71v.7h4.252v-.7zm-.35-3.085v3.435h.7v-3.435h-.7zm.325-.662a.835.835 0 00-.325.662h.7c0-.044.02-.083.051-.107l-.426-.555zm-.004.003l.434.549-.434-.55zm9.53-16.287c0 4.345-2.327 8.384-4.711 11.375-2.378 2.984-4.77 4.873-4.819 4.911l.434.55c.068-.054 2.507-1.982 4.932-5.024 2.419-3.035 4.864-7.23 4.864-11.812h-.7zm.832-.835a.834.834 0 00-.832.835h.7c0-.077.063-.135.132-.135v-.7zm.831.835a.834.834 0 00-.831-.835v.7c.07 0 .131.058.131.135h.7zm9.53 16.286c-.051-.04-2.444-1.93-4.82-4.914-2.383-2.99-4.71-7.029-4.71-11.372h-.7c0 4.58 2.444 8.774 4.862 11.809 2.424 3.042 4.863 4.97 4.934 5.026l.434-.549zm.001.001l-.435.548.435-.548zm.32.66a.84.84 0 00-.321-.661l-.432.55a.14.14 0 01.054.11h.7zm0 3.434v-3.435h-.7v3.435h.7z" fill="#fff"/><path fill-rule="evenodd" clip-rule="evenodd" d="M27.596 34.949a.488.488 0 01-.304.622l-1.782.593 1.712.487a.486.486 0 01.331.605l-.615 2.09a.48.48 0 01-.592.327l-6.128-1.746-5.624 1.875a.474.474 0 01-.602-.301l-.709-2.061a.486.486 0 01.303-.62l1.486-.495-1.785-.508a.486.486 0 01-.331-.605l.615-2.089a.48.48 0 01.592-.33l6.201 1.767 5.917-1.973a.48.48 0 01.606.301l.709 2.06zm-13.237-1.092l-.342 1.158 2.686.766 2.03-.677-4.374-1.247zM26.49 37.45l-.342 1.158-4.3-1.226 2.032-.677 2.61.745zm-12.14.137l.393 1.143 11.783-3.928-.393-1.143-11.783 3.928z" fill="#fff"/><path d="M27.573 35.322l-.314-.153-.242.494.55.01.006-.35zm.023-.373l-.331.114.001.003.33-.117zm-.022.373l.313.156.247-.497-.555-.009-.005.35zm-.282.249l.11.332h.001l-.111-.332zm-1.782.593l-.11-.332-1.076.358 1.09.31.096-.336zm1.712.487l.098-.336h-.002l-.096.336zm.331.605l.336.099v-.003l-.336-.096zm-.615 2.09l.336.098-.336-.099zm-.592.327l-.096.337.007.002.089-.339zm-6.128-1.746l.096-.337-.104-.03-.103.035.11.332zm-5.624 1.875l-.11-.332-.005.002.115.33zm-.602-.301l.333-.11-.002-.004-.33.114zm-.709-2.061l.331-.114-.001-.004-.33.118zm.023-.374l.314.154.001-.002-.315-.152zm.28-.246l-.11-.332h-.003l.113.332zm1.486-.495l.11.332 1.076-.358-1.09-.31-.096.336zm-1.785-.508l-.098.336h.002l.096-.336zm-.292-.233l.308-.168-.308.168zm-.04-.372l-.335-.099v.003l.336.096zm.616-2.089l.336.1v-.001l-.336-.099zm.592-.33l.096-.336-.096.336zm6.201 1.767l-.096.337.104.03.103-.035-.11-.332zm5.917-1.973l-.11-.332.11.332zm.606.301l.33-.114-.33.114zm-12.87 2.127l-.336-.099-.1.339.34.097.096-.337zm.342-1.158l.096-.337-.333-.095-.098.333.335.099zm2.344 1.924l-.096.337.104.03.102-.035-.11-.332zm2.03-.677l.111.332 1.075-.358-1.09-.31-.095.336zm7.415 3.505l-.096.337.333.095.098-.332-.335-.1zm.342-1.158l.336.1.1-.34-.34-.096-.096.336zm-4.642-.068l-.11-.332-1.075.358 1.09.31.095-.336zm2.032-.677l.096-.336-.104-.03-.103.034.11.332zm-9.137 2.025l-.331.114.113.328.329-.11-.111-.332zm-.393-1.143l-.11-.332-.336.111.115.335.33-.114zm12.176-2.785l.11.332.336-.112-.115-.334-.33.114zm-.393-1.143l.331-.114-.113-.328-.329.11.111.332zm1.755 1.816a.836.836 0 00.038-.645l-.66.235c.01.03.01.069-.007.103l.629.307zm-.309-.504l-.011.7.011-.7zm-.176.93a.838.838 0 00.484-.424l-.627-.311a.138.138 0 01-.08.072l.223.663zm-1.782.594l1.781-.593-.221-.664-1.781.593.221.664zm1.697-.181l-1.712-.488-.191.674 1.711.487.192-.673zm.503.402a.836.836 0 00-.501-.402l-.195.672c.036.01.065.035.081.065l.615-.335zm.069.635a.84.84 0 00-.07-.635l-.614.335a.14.14 0 01.01.108l.674.192zm-.616 2.092l.615-2.09-.672-.197-.615 2.09.672.197zm-.797.598a.83.83 0 00.797-.598l-.672-.198a.13.13 0 01-.125.096v.7zm-.22-.03c.062.016.138.03.22.03v-.7a.192.192 0 01-.042-.007l-.178.677zm-6.135-1.748l6.128 1.746.192-.673-6.128-1.747-.192.674zm-5.417 1.87l5.623-1.875-.22-.664-5.625 1.875.222.664zm-.261.043a.804.804 0 00.265-.044l-.23-.661a.108.108 0 01-.035.005v.7zm-.784-.568c.115.351.44.568.784.568v-.7a.124.124 0 01-.12-.085l-.664.217zm-.708-2.055l.71 2.06.661-.227-.709-2.061-.662.228zm.04-.641a.836.836 0 00-.039.644l.66-.235a.136.136 0 01.007-.102l-.629-.307zm.481-.424a.831.831 0 00-.483.426l.631.303a.132.132 0 01.078-.067l-.226-.662zm1.488-.496l-1.486.495.222.664 1.485-.495-.22-.664zm-1.77.16l1.785.509.192-.673-1.785-.508-.192.673zm-.503-.401c.108.197.29.34.501.401l.195-.672a.136.136 0 01-.081-.065l-.615.336zm-.069-.636a.84.84 0 00.07.636l.614-.336a.14.14 0 01-.01-.107l-.674-.193zm.616-2.092l-.615 2.09.672.197.615-2.089-.672-.198zm1.024-.567a.83.83 0 00-1.024.568l.672.197a.13.13 0 01.16-.092l.192-.673zm6.201 1.767l-6.2-1.767-.192.673 6.2 1.767.192-.673zm5.71-1.97l-5.916 1.974.221.664 5.917-1.973-.221-.664zm1.048.52a.83.83 0 00-1.047-.52l.221.665a.13.13 0 01.164.084l.662-.23zm.709 2.061l-.71-2.06-.661.227.709 2.06.662-.227zm-13.575.28l.343-1.159-.671-.198-.343 1.158.671.198zm2.447.33l-2.686-.766-.192.673 2.686.766.192-.674zm1.824-.673l-2.031.677.221.664 2.032-.677-.222-.664zm-4.36-.578l4.375 1.247.192-.673-4.375-1.248-.192.673zm12.22 4.515l.343-1.159-.672-.198-.342 1.158.671.199zm-4.73-.99l4.299 1.227.192-.673-4.3-1.227-.192.674zm2.016-1.345l-2.031.677.22.664 2.032-.677-.221-.664zm2.817.74l-2.61-.744-.192.673 2.61.745.192-.673zm-11.512 1.503l-.393-1.143-.662.228.393 1.143.662-.228zm11.342-4.146l-11.784 3.928.222.664 11.783-3.928-.221-.664zm-.614-.697l.393 1.143.662-.228-.393-1.143-.662.227zM14.461 37.92l11.783-3.928-.222-.664-11.783 3.928.221.664z" fill="#fff"/></svg>