<?xml version="1.0" encoding="utf-8"?><svg width="51" height="33" fill="none" xmlns="http://www.w3.org/2000/svg" viewBox="0 0 51 33"><path fill-rule="evenodd" clip-rule="evenodd" d="M49.5 22.03v2.747c.57.116 1 .617 1 1.212v.988c0 .599-.43 1.098-1 1.214v.025h-6.564c-.364 2.24-2.323 3.958-4.686 3.958s-4.322-1.718-4.683-3.958H16.186c-.364 2.24-2.323 3.958-4.686 3.958s-4.324-1.72-4.686-3.958H3l-.748.002A1.247 1.247 0 011 26.978v-.987c0-.684.563-1.239 1.252-1.239H3v-11.13c0-3.412 2.805-6.188 6.252-6.188l5.77-.003V5.457C8.935 4.883 3.78 3.811 2.218 2.267a.733.733 0 01-.135-.869.752.752 0 01.797-.386c4.977.881 12.715 1 19.625 1a1029.156 1029.156 0 005.345-.014h.001c.914-.003 1.8-.006 2.648-.006l6.438.002h.002c4.357 0 7.04-.03 10.521-.197a.758.758 0 01.758.537.74.74 0 01-.354.852c-.501.279-1.126.538-1.867.777v1.502a1.7 1.7 0 01-.963 1.548 1.773 1.773 0 01-.792.192c-.364 0-.725-.116-1.038-.346l-2.42-1.777c-3.081.445-6.898.727-11.284.828v1.526l5.247-.001c3.345 0 6.428 1.107 8.905 2.968l.205.159a14.659 14.659 0 014.66 6.24l.006.012.014.033c.013.038.028.075.043.112v.001l.037.096.299.767h-.043a14.42 14.42 0 01.627 4.208zm-13.75-5.69h10.932a13.23 13.23 0 00-3.552-4.453h-7.38a.253.253 0 00-.25.248v3.958c0 .134.116.247.25.247zM44.5 5.465a.23.23 0 01-.138.222.232.232 0 01-.262-.023l-1.258-.922c.59-.112 1.143-.232 1.659-.357v1.08zM25.842 3.491c-1.086.003-2.201.006-3.332.006-4.44 0-9.22-.05-13.422-.319 4.035.754 9.838 1.288 16.664 1.288 6.273 0 11.76-.364 15.742-1.003a400.26 400.26 0 01-4.55.02h-.003l-6.44-.005c-1.167 0-2.404.004-3.689.01l-.97.003zm-9.319 2.1c3.01.237 6.186.36 9.229.36.763 0 1.513-.007 2.25-.016v1.5H16.522V5.59zM8.251 27.474c0 1.774 1.457 3.216 3.25 3.216s3.25-1.442 3.25-3.216c0-1.774-1.457-3.216-3.25-3.216S8.25 25.7 8.25 27.474zm30 3.216c-1.793 0-3.25-1.442-3.25-3.216 0-1.774 1.457-3.216 3.25-3.216s3.25 1.442 3.25 3.216c0 1.774-1.457 3.216-3.25 3.216zm0-7.917c2.363 0 4.324 1.718 4.685 3.959h6.065v-.495h-4.5v-1.485H48v-2.719c0-1.473-.25-2.886-.703-4.208H35.75c-.965 0-1.75-.777-1.75-1.731v-3.959c0-.955.785-1.732 1.75-1.732h5.111a13.293 13.293 0 00-6.114-1.484H9.253c-2.62 0-4.751 2.11-4.751 4.702v2.72h7.535v1.484H4.5v6.927h1v1.485h-3v.495h4.314c.363-2.24 2.322-3.959 4.686-3.959 2.363 0 4.324 1.718 4.685 3.959h17.38c.362-2.24 2.321-3.959 4.685-3.959z" fill="#fff"/><path d="M49.5 24.777l.029.096.072-.02v-.076h-.1zm0 0l-.028-.096.008.194.02-.098zm0 3.414l-.02-.098-.08.016v.082h.1zm0 .025v.1h.1v-.1h-.1zm-6.564 0v-.1h-.085l-.014.084.099.016zm-9.37 0l.1-.016-.014-.084h-.085v.1zm-17.38 0v-.1H16.1l-.014.084.099.016zm-9.372 0l.1-.016-.014-.084h-.086v.1zm-3.814 0v-.1.1zm-.748.002v.1-.1zM3 24.752v.1h.1v-.1H3zM9.252 7.435v.1-.1zm5.77-.004v.1h.1v-.1h-.1zm0-1.974h.1v-.09l-.091-.01-.01.1zM2.218 2.267l.07-.072-.07.071zm-.135-.869l-.088-.047.088.047zm.797-.386l-.017.098.017-.098zm23.924.99v-.1.1zm1.046-.004v.1-.1zm0 0v-.1.1zm.001 0v-.1.1zm0 0v.1-.1zm0 0v-.1.1zm2.648-.006v-.1.1zm6.438.002v.1-.1zm10.523-.197l-.004-.1.004.1zm.758.537l.096-.028-.096.028zm-.354.852l.049.088-.049-.088zm-1.867.777l-.03-.095-.07.022v.073h.1zm-.963 3.05l.045.09-.045-.09zm-1.83-.154l.06-.081-.06.08zm-2.42-1.777l.06-.08-.033-.024-.04.005.014.1zm-11.284.828l-.003-.1-.098.002v.098h.1zm0 1.526h-.1v.1h.1v-.1zm5.247-.001v-.1.1zm8.905 2.968l.061-.079-.061.08zm.205.159l.062-.08-.062.08zm4.66 6.24l-.093.037.004.009.09-.045zm.006.012l.093-.038-.004-.007-.089.045zm.014.033l.094-.034-.002-.004-.092.038zm.043.112l-.093.037.093-.037zm0 0l.093-.036-.093.037zm0 0l-.094.037.094-.036zm0 0l.093-.035v-.001l-.093.037zm0 0l-.093.037v.001l.093-.037zm0 .001l.093-.037-.093.037zm.037.096l-.094.034v.002l.094-.036zm.299.767v.1h.146l-.053-.136-.093.036zm-.043 0v-.1h-.135l.039.13.096-.03zm-2.192-1.483v.1h.16l-.07-.143-.09.043zm-3.552-4.453l.063-.077-.028-.023h-.035v.1zm1.232-6.2l-.044-.09.044.09zm.139-.222h-.1.1zm-.4.2l.059-.081-.06.08zm-1.259-.923l-.018-.098-.226.043.185.136.06-.08zm1.659-.357h.1v-.128l-.124.03.024.098zM25.84 3.49v.1-.1zm0 0v-.1.1zm-3.332.006l-.01-.1.01.2v-.1zm0 0l.01.1-.01-.2v.1zM9.087 3.178l.006-.1-.024.199.018-.099zm32.406.285l.016.098-.017-.198.001.1zm-4.553.02v.1-.1zm-6.44-.005v-.1.1zm-3.689.01v.1-.1zM16.522 5.59l.008-.1-.108-.009v.109h.1zm11.479.344h.1v-.102l-.102.002.002.1zm0 1.5v.1h.1v-.1H28zm-11.479 0h-.1v.1h.1v-.1zm26.414 19.297l-.099.015.014.085h.085v-.1zm6.065 0v.1h.1v-.1H49zm0-.495h.1v-.1H49v.1zm-4.5 0h-.1v.1h.1v-.1zm0-1.485v-.1h-.1v.1h.1zm3.5 0v.1h.1v-.1H48zm-.703-6.927l.094-.032-.023-.068h-.072v.1zm-6.436-7.421v.1l.046-.19-.046.09zM4.501 16.34h-.1v.1h.1v-.1zm7.535 0h.1v-.1h-.1v.1zm0 1.484v.1h.1v-.1h-.1zm-7.535 0v-.1h-.1v.1h.1zm0 6.927h-.1v.1h.1v-.1zm1 0h.1v-.1h-.1v.1zm0 1.485v.1h.1v-.1h-.1zm-3 0v-.1h-.1v.1h.1zm0 .495h-.1v.1h.1v-.1zm4.314 0v.1H6.9l.014-.084-.099-.016zm9.371 0l-.099.015.014.085h.085v-.1zm17.38 0v.1h.084l.014-.084-.099-.016zM49.6 24.777v-2.746h-.2v2.746h.2zm-.073.096l-.055-.192.055.192zM50.6 25.99c0-.644-.465-1.185-1.08-1.31l-.04.196c.526.107.92.568.92 1.114h.2zm0 .988v-.988h-.2v.988h.2zm-1.08 1.312a1.343 1.343 0 001.08-1.312h-.2c0 .55-.394 1.009-.92 1.116l.04.196zm.08-.073v-.025h-.2v.025h.2zm-6.664.1H49.5v-.2h-6.564v.2zm-4.686 3.958c2.413 0 4.413-1.754 4.784-4.042l-.197-.032c-.356 2.192-2.273 3.874-4.587 3.874v.2zm-4.782-4.042c.369 2.288 2.37 4.042 4.782 4.042v-.2c-2.314 0-4.231-1.682-4.585-3.874l-.197.032zm-17.283.084h17.382v-.2H16.186v.2zM11.5 32.274c2.413 0 4.413-1.754 4.784-4.042l-.197-.032c-.356 2.192-2.273 3.874-4.587 3.874v.2zm-4.784-4.042c.369 2.286 2.371 4.042 4.784 4.042v-.2c-2.314 0-4.233-1.684-4.587-3.874l-.197.032zM3 28.316h3.814v-.2H3v.2zm-.748.002L3 28.316v-.2l-.748.002v.2zM.9 26.978c0 .74.606 1.34 1.352 1.34v-.2a1.147 1.147 0 01-1.152-1.14H.9zm0-.987v.988h.2v-.988H.9zm1.352-1.339c-.744 0-1.352.599-1.352 1.34h.2c0-.629.517-1.14 1.152-1.14v-.2zm.748 0h-.748v.2H3v-.2zm-.1-11.03v11.13h.2v-11.13h-.2zm6.352-6.287c-3.501 0-6.352 2.819-6.352 6.286h.2c0-3.355 2.759-6.087 6.152-6.087v-.2zm5.77-.004l-5.77.003v.2l5.77-.003v-.2zm-.1-1.874v1.974h.2V5.457h-.2zM2.149 2.337c.403.4 1.032.762 1.835 1.091.804.33 1.79.628 2.916.895 2.251.534 5.067.947 8.112 1.234l.019-.2c-3.04-.286-5.846-.697-8.085-1.229-1.119-.265-2.095-.56-2.886-.885-.793-.325-1.394-.675-1.77-1.048l-.141.142zm-.153-.985a.833.833 0 00.153.986l.14-.143a.633.633 0 01-.116-.75l-.177-.093zm.903-.439a.852.852 0 00-.903.438l.176.094a.652.652 0 01.692-.335l.035-.197zm19.607.998c-6.912 0-14.641-.118-19.607-.998l-.035.197c4.986.883 12.734 1.001 19.642 1.001v-.2zm4.299-.01a1029 1029 0 01-4.299.01v.2c1.47 0 2.913-.004 4.3-.01l-.001-.2zm1.046-.003l-1.046.003v.2c.353 0 .702-.002 1.047-.003v-.2zm0 0v.2-.2zm0 0v.2h.001v-.2zm0 0l.001.2v-.2zm0 0l.001.2v-.2zm.001 0v.2-.2zm0 0v.2-.2zm2.648-.006c-.849 0-1.734.003-2.648.006v.2c.914-.003 1.8-.006 2.648-.006v-.2zm6.438.002L30.5 1.892v.2l6.438.002v-.2zm.002 0h-.002v.2h.002v-.2zm10.516-.197c-3.478.168-6.16.197-10.516.197v.2c4.358 0 7.043-.03 10.526-.198l-.01-.2zm.86.609a.858.858 0 00-.859-.61l.008.2c.3-.011.576.181.658.466l.192-.056zm-.402.968a.84.84 0 00.401-.968l-.192.056a.64.64 0 01-.306.737l.097.175zm-1.885.784c.744-.24 1.376-.502 1.885-.784l-.097-.175c-.495.274-1.113.53-1.85.77l.062.19zm.07 1.407V3.963h-.2v1.502h.2zM45.08 7.103a1.8 1.8 0 001.018-1.638h-.2a1.6 1.6 0 01-.907 1.459l.09.179zm-.837.202c.283 0 .568-.068.837-.202l-.09-.18c-.242.122-.496.181-.748.181v.2zm-1.097-.366c.33.243.712.365 1.096.365v-.2c-.341 0-.682-.109-.977-.326l-.119.161zm-2.42-1.776l2.42 1.776.118-.161-2.42-1.776-.118.16zm-11.223.847c4.39-.101 8.21-.383 11.297-.829l-.029-.198c-3.077.444-6.889.726-11.273.827l.005.2zm.098 1.426V5.91h-.2v1.526h.2zm5.147-.101l-5.248.001v.2l5.248-.001v-.2zm8.965 2.988a14.874 14.874 0 00-8.965-2.988v.2c3.322 0 6.385 1.1 8.845 2.948l.12-.16zm.206.16l-.205-.159-.122.158.205.159.122-.158zm4.692 6.283a14.758 14.758 0 00-4.691-6.283l-.123.158a14.559 14.559 0 014.628 6.198l.186-.073zm.002.003l-.005-.011-.18.09.007.011.178-.09zm.017.04l-.014-.033-.184.077.013.032.185-.076zm.044.113a3.245 3.245 0 01-.042-.108l-.188.067c.014.04.03.078.044.115l.186-.073zm0 0l-.186.075.185-.075zm0 .002l-.187.072.187-.072zm0-.001l-.186.074.186-.074zm0 0l-.187.073.187-.072zm0 0l-.186.074.186-.074zm.038.099l-.038-.099-.186.074.036.093.188-.069zm.298.765l-.299-.767-.186.072.299.767.186-.072zm-.136.136h.043v-.2h-.043v.2zm.727 4.108c0-1.472-.223-2.894-.632-4.237l-.191.058c.404 1.325.623 2.728.623 4.179h.2zm-2.919-5.79H35.751v.2h10.931v-.2zm0 0v.2-.2zm-3.615-4.276a13.13 13.13 0 013.526 4.42l.18-.088a13.33 13.33 0 00-3.58-4.487l-.126.155zm-7.316.022h7.379v-.2h-7.38v.2zm-.15.148c0-.077.07-.148.15-.148v-.2a.353.353 0 00-.35.348h.2zm0 3.958v-3.958h-.2v3.958h.2zm.15.148c-.08 0-.15-.07-.15-.148h-.2c0 .19.16.348.35.348v-.2zm8.655-10.464c.06-.03.11-.071.145-.127a.344.344 0 00.05-.185h-.2a.147.147 0 01-.02.08.149.149 0 01-.063.053l.088.179zm-.365-.032c.053.039.112.065.178.07a.35.35 0 00.187-.038l-.088-.18a.151.151 0 01-.082.02.153.153 0 01-.076-.033l-.12.16zm-1.258-.922l1.258.922.118-.162-1.257-.922-.119.162zm1.694-.536c-.514.126-1.065.245-1.653.357l.037.196a33.28 33.28 0 001.663-.358l-.047-.195zm.124 1.178v-1.08h-.2v1.08h.2zM25.84 3.591v-.2.2zm-3.332.006c1.131 0 2.246-.003 3.332-.006v-.2c-1.087.003-2.201.006-3.332.006v.2zm-.009-.2l.018.2-.018-.2zM9.08 3.279c4.205.27 8.99.32 13.43.32v-.2c-4.44 0-9.219-.05-13.417-.32l-.012.2zm16.671 1.088c-6.821 0-12.618-.533-16.646-1.286l-.036.197c4.042.755 9.852 1.289 16.682 1.289v-.2zm15.726-1.002c-3.975.639-9.456 1.002-15.726 1.002v.2c6.276 0 11.768-.364 15.758-1.005l-.032-.197zm-4.535.22c1.727 0 3.194-.006 4.552-.021l-.002-.2c-1.357.015-2.823.02-4.55.02v.2zm-.002 0h.002v-.2h-.002v.2zm-6.44-.006l6.44.006v-.2l-6.44-.006v.2zm-3.688.01a826.93 826.93 0 013.689-.01v-.2c-1.168 0-2.405.004-3.69.01v.2zm-.97.003l.97-.003v-.2l-.97.003v.2zm-.091 2.26c-3.04 0-6.214-.123-9.221-.36l-.016.2c3.013.237 6.191.36 9.237.36v-.2zm2.248-.016c-.736.01-1.485.015-2.248.015v.2c.764 0 1.514-.006 2.25-.015l-.002-.2zm.102 1.6v-1.5h-.2v1.5h.2zm-11.579.1h11.479v-.2H16.522v.2zm-.1-1.944v1.843h.2V5.591h-.2zM11.501 30.59c-1.74 0-3.15-1.398-3.15-3.116h-.2c0 1.83 1.502 3.316 3.35 3.316v-.2zm3.15-3.116c0 1.718-1.412 3.116-3.15 3.116v.2c1.847 0 3.35-1.486 3.35-3.316h-.2zm-3.15-3.116c1.738 0 3.15 1.398 3.15 3.116h.2c0-1.83-1.503-3.316-3.35-3.316v.2zm-3.15 3.116c0-1.718 1.41-3.116 3.15-3.116v-.2c-1.848 0-3.35 1.485-3.35 3.316h.2zm26.55 0c0 1.83 1.502 3.316 3.35 3.316v-.2c-1.74 0-3.15-1.398-3.15-3.116h-.2zm3.35-3.316c-1.848 0-3.35 1.485-3.35 3.316h.2c0-1.718 1.41-3.116 3.15-3.116v-.2zm3.35 3.316c0-1.83-1.503-3.316-3.35-3.316v.2c1.738 0 3.15 1.398 3.15 3.116h.2zm-3.35 3.316c1.847 0 3.35-1.486 3.35-3.316h-.2c0 1.718-1.412 3.116-3.15 3.116v.2zm4.784-4.074c-.37-2.289-2.372-4.043-4.784-4.043v.2c2.314 0 4.233 1.683 4.587 3.874l.197-.031zM49 26.632h-6.065v.2h6.065v-.2zm-.1-.395v.495h.2v-.495h-.2zm-4.4.1H49v-.2h-4.5v.2zm-.1-1.585v1.485h.2v-1.485h-.2zm3.6-.1h-3.5v.2H48v-.2zm-.1-2.619v2.72h.2v-2.72h-.2zm-.698-4.175c.45 1.312.698 2.714.698 4.175h.2c0-1.484-.252-2.908-.709-4.24l-.19.065zm-11.453.067h11.547v-.2H35.752v.2zm-1.85-1.831c0 1.01.831 1.831 1.85 1.831v-.2c-.91 0-1.65-.733-1.65-1.631h-.2zm0-3.959v3.959h.2v-3.959h-.2zm1.85-1.832c-1.019 0-1.85.821-1.85 1.832h.2c0-.898.74-1.631 1.65-1.631v-.2zm5.112 0h-5.111v.2h5.111v-.2zM34.748 9.02c2.187 0 4.252.535 6.068 1.473l.092-.177a13.394 13.394 0 00-6.16-1.496v.2zm-25.496 0h25.496v-.2H9.253v.2zm-4.651 4.602c0-2.535 2.085-4.602 4.651-4.602v-.2c-2.675 0-4.851 2.154-4.851 4.802h.2zm0 2.72v-2.72h-.2v2.72h.2zm7.435-.1H4.5v.2h7.535v-.2zm.1 1.584v-1.484h-.2v1.484h.2zm-7.635.1h7.535v-.2H4.5v.2zm.1 6.827v-6.927h-.2v6.927h.2zm.9-.1h-1v.2h1v-.2zm.1 1.585v-1.485h-.2v1.485h.2zm-3.1.1h3v-.2h-3v.2zm.1.395v-.495h-.2v.495h.2zm4.214-.1H2.501v.2h4.314v-.2zm4.686-3.959c-2.413 0-4.414 1.754-4.785 4.043l.198.032c.355-2.192 2.273-3.875 4.587-3.875v-.2zm4.784 4.043c-.37-2.289-2.372-4.043-4.784-4.043v.2c2.314 0 4.233 1.683 4.586 3.874l.198-.031zm17.28-.084H16.186v.2h17.38v-.2zm4.686-3.959c-2.413 0-4.413 1.754-4.785 4.043l.198.032c.355-2.192 2.273-3.875 4.587-3.875v-.2z" fill="#fff"/><path fill-rule="evenodd" clip-rule="evenodd" d="M23.5 12.135v3.958c0 .955-.785 1.732-1.75 1.732h-5c-.964 0-1.75-.777-1.75-1.732v-3.958c0-.955.786-1.732 1.75-1.732h5c.965 0 1.75.777 1.75 1.732zm-7 0v3.958c0 .136.116.248.25.248h5c.135 0 .25-.114.25-.248v-3.958a.253.253 0 00-.25-.248h-5a.253.253 0 00-.25.248z" fill="#fff"/><path d="M23.6 16.093v-3.958h-.2v3.958h.2zm-1.85 1.832c1.02 0 1.85-.82 1.85-1.832h-.2c0 .899-.739 1.632-1.65 1.632v.2zm-5 0h5v-.2h-5v.2zm-1.85-1.832c0 1.011.832 1.832 1.85 1.832v-.2c-.91 0-1.65-.733-1.65-1.632h-.2zm0-3.958v3.958h.2v-3.958h-.2zm1.85-1.832c-1.018 0-1.85.82-1.85 1.832h.2c0-.899.74-1.632 1.65-1.632v-.2zm5 0h-5v.2h5v-.2zm1.85 1.832c0-1.011-.83-1.832-1.85-1.832v.2c.911 0 1.65.733 1.65 1.632h.2zm-7 3.958v-3.958h-.2v3.958h.2zm.15.148a.152.152 0 01-.15-.148h-.2c0 .192.162.348.35.348v-.2zm5 0h-5v.2h5v-.2zm.15-.148c0 .077-.069.148-.15.148v.2c.19 0 .35-.158.35-.348h-.2zm0-3.958v3.958h.2v-3.958h-.2zm-.15-.147c.081 0 .15.07.15.147h.2a.353.353 0 00-.35-.348v.2zm-5 0h5v-.2h-5v.2zm-.15.147c0-.077.07-.147.15-.147v-.2a.353.353 0 00-.35.347h.2z" fill="#fff"/><path fill-rule="evenodd" clip-rule="evenodd" d="M26.25 10.403h5c.965 0 1.75.777 1.75 1.732v3.958c0 .955-.785 1.732-1.75 1.732h-5c-.964 0-1.75-.777-1.75-1.732v-3.958c0-.955.786-1.732 1.75-1.732zm5 5.938c.135 0 .25-.114.25-.248v-3.958a.253.253 0 00-.25-.248h-5a.253.253 0 00-.25.248v3.958c0 .134.116.248.25.248h5z" fill="#fff"/><path d="M31.25 10.303h-5v.2h5v-.2zm1.85 1.832c0-1.011-.83-1.832-1.85-1.832v.2c.911 0 1.65.733 1.65 1.632h.2zm0 3.958v-3.958h-.2v3.958h.2zm-1.85 1.832c1.02 0 1.85-.82 1.85-1.832h-.2c0 .899-.739 1.632-1.65 1.632v.2zm-5 0h5v-.2h-5v.2zm-1.85-1.832c0 1.011.832 1.832 1.85 1.832v-.2c-.91 0-1.65-.733-1.65-1.632h-.2zm0-3.958v3.958h.2v-3.958h-.2zm1.85-1.832c-1.018 0-1.85.82-1.85 1.832h.2c0-.899.74-1.632 1.65-1.632v-.2zm5.15 5.79c0 .077-.069.148-.15.148v.2c.19 0 .35-.158.35-.348h-.2zm0-3.958v3.958h.2v-3.958h-.2zm-.15-.147c.081 0 .15.07.15.147h.2a.353.353 0 00-.35-.348v.2zm-5 0h5v-.2h-5v.2zm-.15.147c0-.077.07-.147.15-.147v-.2a.353.353 0 00-.35.347h.2zm0 3.958v-3.958h-.2v3.958h.2zm.15.148c-.08 0-.15-.07-.15-.148h-.2c0 .19.162.348.35.348v-.2zm5 0h-5v.2h5v-.2z" fill="#fff"/><path fill-rule="evenodd" clip-rule="evenodd" d="M36.25 27.473c0-1.092.897-1.979 2-1.979 1.104 0 2 .89 2 1.98 0 1.091-.896 1.979-2 1.979-1.103 0-2-.888-2-1.98zm1.5 0c0 .273.225.495.5.495.276 0 .5-.222.5-.495a.498.498 0 00-.5-.494c-.275 0-.5.222-.5.494z" fill="#fff"/><path d="M38.25 25.394c-1.157 0-2.1.931-2.1 2.08h.2c0-1.037.851-1.88 1.9-1.88v-.2zm2.1 2.08c0-1.147-.942-2.08-2.1-2.08v.2c1.05 0 1.9.845 1.9 1.88h.2zm-2.1 2.078c1.158 0 2.1-.93 2.1-2.079h-.2c0 1.036-.85 1.88-1.9 1.88v.2zm-2.1-2.079c0 1.149.943 2.08 2.1 2.08v-.2c-1.049 0-1.9-.844-1.9-1.88h-.2zm2.1.395a.398.398 0 01-.4-.395h-.2c0 .329.271.595.6.595v-.2zm.4-.395a.398.398 0 01-.4.395v.2c.33 0 .6-.266.6-.595h-.2zm-.4-.395c.222 0 .4.179.4.395h.2a.598.598 0 00-.6-.595v.2zm-.4.395c0-.216.18-.395.4-.395v-.2c-.329 0-.6.267-.6.595h.2z" fill="#fff"/><path fill-rule="evenodd" clip-rule="evenodd" d="M9.5 27.473c0-1.092.897-1.979 2-1.979 1.104 0 2 .89 2 1.98 0 1.091-.896 1.979-2 1.979-1.103 0-2-.89-2-1.98zm1.5 0c0 .273.225.495.5.495.276 0 .5-.222.5-.495a.498.498 0 00-.5-.494c-.275 0-.5.222-.5.494z" fill="#fff"/><path d="M11.5 25.394c-1.157 0-2.1.931-2.1 2.08h.2c0-1.037.851-1.88 1.9-1.88v-.2zm2.1 2.08c0-1.147-.942-2.08-2.1-2.08v.2c1.05 0 1.9.845 1.9 1.88h.2zm-2.1 2.078c1.158 0 2.1-.93 2.1-2.079h-.2c0 1.036-.85 1.88-1.9 1.88v.2zm-2.1-2.079c0 1.146.943 2.08 2.1 2.08v-.2c-1.049 0-1.9-.846-1.9-1.88h-.2zm2.1.395a.398.398 0 01-.4-.395h-.2c0 .329.271.595.6.595v-.2zm.4-.395a.398.398 0 01-.4.395v.2c.33 0 .6-.266.6-.595h-.2zm-.4-.395c.222 0 .4.179.4.395h.2a.598.598 0 00-.6-.595v.2zm-.4.395c0-.216.18-.395.4-.395v-.2c-.329 0-.6.267-.6.595h.2z" fill="#fff"/><path d="M17 24.752h15.5v1.484H17v-1.484z" fill="#fff" stroke="#fff" stroke-width=".2"/></svg>