<svg width="17" height="45" viewBox="0 0 17 45" fill="none" xmlns="http://www.w3.org/2000/svg">
<path fill-rule="evenodd" clip-rule="evenodd" d="M1 21.1387C1 8.05785 6.42166 1.00056 8.63885 1C10.8563 1.00056 16.2777 8.0574 16.2777 21.1387C16.2777 34.3556 11.5346 43.3157 11.3333 43.6907L11.1371 44.0552H6.14063L5.94444 43.6907C5.74311 43.3156 1 34.3556 1 21.1387ZM7.94467 2.84381V2.84373L7.9448 2.84369L7.94467 2.84381ZM7.94467 2.84381V24.6113H9.33356V2.84373C11.1113 4.43053 14.8891 10.2033 14.8891 21.1388C14.8891 24.7881 14.5054 28.118 13.9585 31.026C13.1547 29.8819 11.6773 28.3246 8.98476 26.7864C2.43809 23.045 2.51764 17.9077 2.52298 17.6908H2.52124C3.20353 8.97415 6.3648 4.2555 7.94467 2.84381ZM2.5248 24.7798C2.46577 23.9569 2.43105 23.1132 2.41195 22.2538C3.40505 24.0992 5.16716 26.205 8.29533 27.9931C12.7407 30.534 13.5018 33.0474 13.5209 33.1107L13.5211 33.1113C13.1808 34.5974 12.8076 35.9464 12.4343 37.1339C11.8492 36.0974 10.818 34.8231 8.9968 33.738C3.51236 30.4724 2.64613 25.7345 2.5248 24.7798ZM9.33347 42.6668H10.2936L10.2934 42.6665C10.5694 42.0971 11.1284 40.8783 11.7639 39.1248C11.6284 38.5467 10.9792 36.5346 8.28471 34.9304C5.83516 33.4705 4.22404 31.7327 3.15982 30.1042C4.29698 36.766 6.35951 41.3787 6.98449 42.6668H7.94458V37.8055H9.33347V42.6668Z" fill="white"/>
<path d="M8.63885 1L8.63891 0.75L8.63879 0.75L8.63885 1ZM11.3333 43.6907L11.5534 43.8091L11.5535 43.8089L11.3333 43.6907ZM11.1371 44.0552V44.3052H11.2864L11.3572 44.1737L11.1371 44.0552ZM6.14063 44.0552L5.92048 44.1737L5.99126 44.3052H6.14063V44.0552ZM5.94444 43.6907L5.72417 43.8089L5.72429 43.8091L5.94444 43.6907ZM7.94467 2.84373L7.86412 2.60706L7.69467 2.66473V2.84373H7.94467ZM7.9448 2.84369L8.11134 3.03014L7.86425 2.60702L7.9448 2.84369ZM7.94467 24.6113H7.69467V24.8613H7.94467V24.6113ZM9.33356 24.6113V24.8613H9.58356V24.6113H9.33356ZM9.33356 2.84373L9.50003 2.65722L9.08356 2.28549V2.84373H9.33356ZM13.9585 31.026L13.754 31.1697L14.0947 31.6546L14.2042 31.0722L13.9585 31.026ZM8.98476 26.7864L8.86071 27.0034L8.86074 27.0034L8.98476 26.7864ZM2.52298 17.6908L2.7729 17.6969L2.7792 17.4408H2.52298V17.6908ZM2.52124 17.6908L2.272 17.6713L2.25091 17.9408H2.52124V17.6908ZM2.41195 22.2538L2.6321 22.1354L2.16201 22.2594L2.41195 22.2538ZM2.5248 24.7798L2.27507 24.7977L2.27679 24.8113L2.5248 24.7798ZM8.29533 27.9931L8.17127 28.2101L8.17127 28.2101L8.29533 27.9931ZM13.5209 33.1107L13.2817 33.1831L13.2817 33.1834L13.5209 33.1107ZM13.5211 33.1113L13.7648 33.1671L13.7797 33.1022L13.7603 33.0385L13.5211 33.1113ZM12.4343 37.1339L12.2166 37.2568L12.5 37.7587L12.6728 37.2088L12.4343 37.1339ZM8.9968 33.738L9.12476 33.5233L9.1247 33.5232L8.9968 33.738ZM10.2936 42.6668V42.9168H10.7253L10.5104 42.5424L10.2936 42.6668ZM9.33347 42.6668H9.08347V42.9168H9.33347V42.6668ZM10.2934 42.6665L10.0684 42.5575L10.0108 42.6764L10.0766 42.791L10.2934 42.6665ZM11.7639 39.1248L11.9989 39.21L12.0242 39.1402L12.0073 39.0678L11.7639 39.1248ZM8.28471 34.9304L8.15672 35.1452L8.15682 35.1452L8.28471 34.9304ZM3.15982 30.1042L3.3691 29.9674L2.91339 30.1462L3.15982 30.1042ZM6.98449 42.6668L6.75956 42.776L6.82791 42.9168H6.98449V42.6668ZM7.94458 42.6668V42.9168H8.19458V42.6668H7.94458ZM7.94458 37.8055V37.5555H7.69458V37.8055H7.94458ZM9.33347 37.8055H9.58347V37.5555H9.33347V37.8055ZM8.63879 0.75C8.29878 0.750085 7.92603 0.883794 7.54441 1.11521C7.15992 1.34837 6.74918 1.6911 6.32837 2.13552C5.4865 3.02463 4.58731 4.33875 3.76262 6.05601C2.11237 9.49232 0.75 14.5643 0.75 21.1387H1.25C1.25 14.6322 2.59846 9.63514 4.21334 6.27246C5.02121 4.59022 5.89316 3.32237 6.69144 2.4793C7.0907 2.05764 7.46728 1.74673 7.80367 1.54274C8.14294 1.33701 8.42462 1.25005 8.63891 1.25L8.63879 0.75ZM16.5277 21.1387C16.5277 14.5641 15.1654 9.4921 13.5152 6.05584C12.6905 4.33861 11.7913 3.02453 10.9495 2.13546C10.5286 1.69105 10.1179 1.34833 9.73336 1.11518C9.35173 0.88378 8.97895 0.750085 8.63891 0.75L8.63879 1.25C8.85312 1.25005 9.13484 1.33701 9.47413 1.54273C9.81053 1.74671 10.1871 2.0576 10.5864 2.47924C11.3847 3.32227 12.2566 4.59008 13.0645 6.27229C14.6793 9.63491 16.0277 14.632 16.0277 21.1387H16.5277ZM11.5535 43.8089C11.7651 43.4149 16.5277 34.4128 16.5277 21.1387H16.0277C16.0277 34.2983 11.3042 43.2164 11.113 43.5724L11.5535 43.8089ZM11.3572 44.1737L11.5534 43.8091L11.1131 43.5722L10.9169 43.9368L11.3572 44.1737ZM6.14063 44.3052H11.1371V43.8052H6.14063V44.3052ZM5.72429 43.8091L5.92048 44.1737L6.36078 43.9368L6.1646 43.5722L5.72429 43.8091ZM0.75 21.1387C0.75 34.4128 5.51264 43.4148 5.72417 43.8089L6.16472 43.5724C5.97359 43.2163 1.25 34.2983 1.25 21.1387H0.75ZM7.69467 2.84373V2.84381H8.19467V2.84373H7.69467ZM7.86425 2.60702L7.86412 2.60706L8.02521 3.0804L8.02534 3.08036L7.86425 2.60702ZM8.11121 3.03025L8.11134 3.03014L7.77825 2.65724L7.77812 2.65736L8.11121 3.03025ZM8.19467 24.6113V2.84381H7.69467V24.6113H8.19467ZM9.33356 24.3613H7.94467V24.8613H9.33356V24.3613ZM9.08356 2.84373V24.6113H9.58356V2.84373H9.08356ZM15.1391 21.1388C15.1391 10.1518 11.3441 4.30317 9.50003 2.65722L9.16708 3.03024C10.8786 4.5579 14.6391 10.2548 14.6391 21.1388H15.1391ZM14.2042 31.0722C14.7536 28.151 15.1391 24.8056 15.1391 21.1388H14.6391C14.6391 24.7706 14.2573 28.0849 13.7128 30.9797L14.2042 31.0722ZM8.86074 27.0034C11.5234 28.5246 12.9726 30.0575 13.754 31.1697L14.1631 30.8822C13.3369 29.7062 11.8312 28.1246 9.10877 26.5693L8.86074 27.0034ZM2.27305 17.6847C2.2664 17.955 2.20568 23.2001 8.86071 27.0034L9.1088 26.5693C2.6705 22.8899 2.76888 17.8603 2.7729 17.6969L2.27305 17.6847ZM2.52124 17.9408H2.52298V17.4408H2.52124V17.9408ZM7.77809 2.65739C6.1385 4.12245 2.95795 8.90799 2.272 17.6713L2.77048 17.7103C3.44912 9.04031 6.5911 4.38856 8.11124 3.03023L7.77809 2.65739ZM2.16201 22.2594C2.18118 23.1217 2.21605 23.9697 2.27544 24.7977L2.77416 24.7619C2.7155 23.9441 2.68092 23.1046 2.66189 22.2483L2.16201 22.2594ZM8.4194 27.776C5.33187 26.0112 3.60304 23.9396 2.6321 22.1354L2.19181 22.3723C3.20706 24.2589 5.00245 26.3988 8.17127 28.2101L8.4194 27.776ZM13.7602 33.0382C13.7233 32.9164 12.9226 30.35 8.4194 27.776L8.17127 28.2101C12.5588 30.7181 13.2802 33.1784 13.2817 33.1831L13.7602 33.0382ZM13.7603 33.0385L13.7601 33.0379L13.2817 33.1834L13.2819 33.184L13.7603 33.0385ZM12.6728 37.2088C13.048 36.0152 13.423 34.6599 13.7648 33.1671L13.2774 33.0555C12.9387 34.535 12.5671 35.8775 12.1958 37.0589L12.6728 37.2088ZM8.86884 33.9528C10.6496 35.0138 11.6512 36.2551 12.2166 37.2568L12.652 37.011C12.0473 35.9398 10.9864 34.6324 9.12476 33.5233L8.86884 33.9528ZM2.27679 24.8113C2.40334 25.807 3.29282 30.6326 8.8689 33.9528L9.1247 33.5232C3.73189 30.3122 2.88893 25.662 2.7728 24.7483L2.27679 24.8113ZM10.2936 42.4168H9.33347V42.9168H10.2936V42.4168ZM10.0766 42.791L10.0767 42.7913L10.5104 42.5424L10.5102 42.5421L10.0766 42.791ZM11.5288 39.0397C10.8967 40.784 10.3412 41.9947 10.0684 42.5575L10.5183 42.7756C10.7976 42.1994 11.3602 40.9727 11.9989 39.21L11.5288 39.0397ZM8.15682 35.1452C10.7797 36.7068 11.3966 38.6531 11.5205 39.1819L12.0073 39.0678C11.8603 38.4403 11.1786 36.3624 8.4126 34.7156L8.15682 35.1452ZM2.95055 30.2409C4.0341 31.899 5.67225 33.6644 8.15672 35.1452L8.4127 34.7156C5.99806 33.2765 4.41399 31.5663 3.3691 29.9674L2.95055 30.2409ZM7.20941 42.5577C6.59162 41.2843 4.5384 36.6945 3.40626 30.0621L2.91339 30.1462C4.05556 36.8374 6.1274 41.473 6.75956 42.776L7.20941 42.5577ZM7.94458 42.4168H6.98449V42.9168H7.94458V42.4168ZM7.69458 37.8055V42.6668H8.19458V37.8055H7.69458ZM9.33347 37.5555H7.94458V38.0555H9.33347V37.5555ZM9.58347 42.6668V37.8055H9.08347V42.6668H9.58347Z" fill="white"/>
</svg>
