<svg width="40" height="41" viewBox="0 0 40 41" fill="none" xmlns="http://www.w3.org/2000/svg">
<path d="M39.0371 32.7039H30.7503C30.4851 32.7039 30.2688 32.9219 30.2688 33.1892C30.2688 33.4565 30.4851 33.6745 30.7503 33.6745H39.0371C39.3022 33.6745 39.5185 33.4565 39.5185 33.1892C39.5185 32.9219 39.3022 32.7039 39.0371 32.7039Z" fill="white" stroke="white" stroke-width="0.7"/>
<path d="M39.037 38.8557H29.7459C29.4807 38.8557 29.2644 39.0737 29.2644 39.341C29.2644 39.6083 29.4807 39.8263 29.7459 39.8263H39.037C39.3022 39.8263 39.5185 39.6083 39.5185 39.341C39.5185 39.0737 39.3022 38.8557 39.037 38.8557Z" fill="white" stroke="white" stroke-width="0.7"/>
<path d="M1.48148 36.2074H8.9743C9.23949 36.2074 9.45578 35.9894 9.45578 35.7221C9.45578 35.4548 9.23949 35.2368 8.9743 35.2368H1.48148C1.21629 35.2368 1 35.4548 1 35.7221C1 35.9913 1.21629 36.2074 1.48148 36.2074Z" fill="white" stroke="white" stroke-width="0.7"/>
<path fill-rule="evenodd" clip-rule="evenodd" d="M4.74484 1.05045C4.93101 0.95756 5.15295 0.995473 5.29965 1.14334L5.29989 1.14357C5.44471 1.29142 5.48232 1.51701 5.38828 1.70469C5.08924 2.30755 4.93878 2.95021 4.93878 3.61563C4.93878 5.9929 6.86846 7.92848 9.23826 7.92848C9.90218 7.92848 10.5435 7.77493 11.1454 7.4754C11.3315 7.38251 11.5535 7.42042 11.7002 7.56829C11.8469 7.71614 11.8826 7.94174 11.7905 8.12752C10.8933 9.94178 9.08775 11.0679 7.07906 11.0679C4.17683 11.0679 1.81647 8.69607 1.81647 5.78228C1.81647 3.76327 2.93928 1.95095 4.74484 1.05045ZM10.1277 8.82286C9.83424 8.87405 9.53895 8.89869 9.23802 8.89869L9.23814 8.89886C6.33597 8.89886 3.9756 6.52902 3.97748 3.61523C3.97748 3.31191 4.00193 3.01425 4.05271 2.7204C3.24775 3.51472 2.77943 4.60668 2.77943 5.78207C2.77943 8.16123 4.70911 10.0968 7.07892 10.0968C8.25065 10.0968 9.33586 9.62859 10.1277 8.82286Z" fill="white"/>
<path d="M5.29965 1.14334L5.05106 1.38997L5.05895 1.39744L5.29965 1.14334ZM4.74484 1.05045L4.90105 1.36366L4.9011 1.36363L4.74484 1.05045ZM5.29989 1.14357L5.5501 0.898486L5.54059 0.889477L5.29989 1.14357ZM5.38828 1.70469L5.07536 1.5479L5.07474 1.54916L5.38828 1.70469ZM11.1454 7.4754L11.3013 7.78874L11.3016 7.78858L11.1454 7.4754ZM11.7002 7.56829L11.4517 7.8148L11.4517 7.81482L11.7002 7.56829ZM11.7905 8.12752L11.4769 7.97199L11.4767 7.97238L11.7905 8.12752ZM9.23802 8.89869V8.54869H8.5599L8.95273 9.10145L9.23802 8.89869ZM10.1277 8.82286L10.3773 9.06818L11.1413 8.29075L10.0675 8.47807L10.1277 8.82286ZM9.23814 8.89886V9.24886H9.91626L9.52344 8.69611L9.23814 8.89886ZM3.97748 3.61523L4.32748 3.61545V3.61523H3.97748ZM4.05271 2.7204L4.3976 2.78001L4.58337 1.70504L3.80687 2.47127L4.05271 2.7204ZM5.54812 0.89684C5.29647 0.643193 4.91174 0.576028 4.58858 0.737267L4.9011 1.36363C4.95028 1.33909 5.00942 1.34775 5.05118 1.38985L5.54812 0.89684ZM5.54059 0.889477L5.54035 0.889249L5.05895 1.39744L5.05919 1.39767L5.54059 0.889477ZM5.7012 1.86148C5.86309 1.5384 5.79788 1.1518 5.54992 0.898657L5.04986 1.38849C5.09154 1.43104 5.10156 1.49563 5.07537 1.54791L5.7012 1.86148ZM5.28878 3.61563C5.28878 3.00442 5.42665 2.41497 5.70183 1.86023L5.07474 1.54916C4.75183 2.20014 4.58878 2.896 4.58878 3.61563H5.28878ZM9.23826 7.57848C7.06278 7.57848 5.28878 5.80062 5.28878 3.61563H4.58878C4.58878 6.18518 6.67414 8.27848 9.23826 8.27848V7.57848ZM10.9894 7.16206C10.4348 7.43808 9.84673 7.57848 9.23826 7.57848V8.27848C9.95763 8.27848 10.6522 8.11178 11.3013 7.78874L10.9894 7.16206ZM11.9486 7.32179C11.697 7.06814 11.3123 7.00098 10.9891 7.16221L11.3016 7.78858C11.3508 7.76404 11.4099 7.7727 11.4517 7.8148L11.9486 7.32179ZM12.104 8.28306C12.2624 7.9638 12.2013 7.57644 11.9486 7.32177L11.4517 7.81482C11.4924 7.85584 11.5029 7.91967 11.4769 7.97199L12.104 8.28306ZM7.07906 11.4179C9.22202 11.4179 11.1485 10.2152 12.1042 8.28266L11.4767 7.97238C10.6381 9.66833 8.95348 10.7179 7.07906 10.7179V11.4179ZM1.46647 5.78228C1.46647 8.88788 3.98205 11.4179 7.07906 11.4179V10.7179C4.37162 10.7179 2.16647 8.50426 2.16647 5.78228H1.46647ZM4.58863 0.737242C2.66444 1.69691 1.46647 3.63044 1.46647 5.78228H2.16647C2.16647 3.89609 3.21412 2.20499 4.90105 1.36366L4.58863 0.737242ZM9.23802 9.24869C9.55828 9.24869 9.87372 9.22245 10.1878 9.16766L10.0675 8.47807C9.79476 8.52565 9.51962 8.54869 9.23802 8.54869V9.24869ZM9.52344 8.69611L9.52332 8.69594L8.95273 9.10145L8.95285 9.10162L9.52344 8.69611ZM3.62748 3.615C3.62547 6.72099 6.14139 9.24886 9.23814 9.24886V8.54886C6.53054 8.54886 4.32572 6.33705 4.32748 3.61545L3.62748 3.615ZM3.70782 2.6608C3.65347 2.97532 3.62748 3.29296 3.62748 3.61523H4.32748C4.32748 3.33086 4.35039 3.05318 4.3976 2.78001L3.70782 2.6608ZM3.12943 5.78207C3.12943 4.70082 3.55987 3.69844 4.29854 2.96953L3.80687 2.47127C2.93563 3.331 2.42943 4.51254 2.42943 5.78207H3.12943ZM7.07892 9.74682C4.90353 9.74682 3.12943 7.96905 3.12943 5.78207H2.42943C2.42943 8.35341 4.51469 10.4468 7.07892 10.4468V9.74682ZM9.87802 8.57754C9.15139 9.31695 8.15586 9.74682 7.07892 9.74682V10.4468C8.34544 10.4468 9.52033 9.94022 10.3773 9.06818L9.87802 8.57754Z" fill="white"/>
<path fill-rule="evenodd" clip-rule="evenodd" d="M39.039 24.9257H39.0371C38.7719 24.9257 38.5575 25.1418 38.5556 25.4091L38.5443 28.0006L20.677 1.43925C20.4984 1.17194 20.0602 1.17194 19.8796 1.43925L2.02532 27.9817L2.03661 25.2309C2.03849 24.9636 1.8222 24.7437 1.55701 24.7437H1.55513C1.28994 24.7437 1.07553 24.9598 1.07365 25.2271L1.05672 29.5684C1.05484 29.7826 1.19402 29.9703 1.39526 30.0348C1.44228 30.0499 1.4893 30.0556 1.5382 30.0556C1.69431 30.0556 1.84477 29.9779 1.93693 29.8433L4.7468 25.6669V29.5722C4.7468 29.8395 4.9631 30.0575 5.22829 30.0575H15.9523C16.4996 31.8471 18.1603 33.1514 20.1201 33.1514C20.1267 33.1514 20.1328 33.1509 20.1389 33.1505L20.1389 33.1505C20.145 33.15 20.1512 33.1495 20.1577 33.1495C20.1605 33.1495 20.1638 33.15 20.1671 33.1504L20.1671 33.1505L20.1672 33.1505C20.1705 33.1509 20.1737 33.1514 20.1765 33.1514C20.1825 33.1514 20.1885 33.1508 20.1944 33.15L20.2048 33.1486C20.2142 33.1471 20.2236 33.1457 20.233 33.1457C22.1419 33.0964 23.75 31.8111 24.2861 30.0575H35.3303C35.5955 30.0575 35.8118 29.8395 35.8118 29.5722V25.6669L38.6217 29.8433C38.7402 30.0196 38.9583 30.0973 39.1596 30.0348C39.3608 29.9722 39.5 29.7845 39.5 29.5722L39.5188 25.4129C39.5207 25.1437 39.3063 24.9276 39.0392 24.9257L39.039 24.9257ZM20.2328 32.1753L20.2274 32.1757C20.2031 32.1775 20.1803 32.1791 20.1576 32.1791C19.3225 32.1678 18.6454 31.4853 18.6454 30.6474C18.6454 30.0957 19.4504 28.8255 20.1764 27.8682C20.9024 28.8255 21.7074 30.0957 21.7074 30.6474C21.7074 31.472 21.051 32.145 20.2328 32.1753L20.2328 32.1753ZM22.6684 30.6454C22.6684 30.7895 22.6496 30.926 22.6271 31.0625L22.6271 31.0626C23.1781 30.4559 23.5166 29.654 23.5129 28.7725C23.5129 27.3184 21.3236 24.2245 20.1162 22.6851C18.9106 24.2245 16.7195 27.3203 16.7195 28.7725C16.7195 29.7279 17.1163 30.5924 17.7501 31.2123C17.7088 31.0284 17.6805 30.8407 17.6805 30.6454C17.6805 29.417 19.4504 27.2084 19.804 26.778C19.9864 26.5562 20.3626 26.5562 20.545 26.778C20.9005 27.2084 22.6684 29.417 22.6684 30.6454ZM20.4905 21.6047C20.3081 21.3829 19.9319 21.3829 19.7494 21.6047C19.3413 22.0994 15.7603 26.5127 15.7603 28.7728C15.7603 28.8489 15.7651 28.924 15.7699 28.9989V28.9989C15.7718 29.0285 15.7737 29.058 15.7753 29.0875H10.9268V25.8874C11.555 25.3755 13.637 23.6011 15.7455 20.9678C17.457 18.8313 19.4111 15.8113 20.297 12.3684C21.1828 15.8131 23.1369 18.8309 24.8485 20.9678C26.9568 23.601 29.0388 25.3754 29.6671 25.8874V29.0875H24.4628C24.4703 28.9832 24.4778 28.8789 24.4778 28.7728C24.4797 26.5131 20.8987 22.0997 20.4906 21.6047H20.4905ZM30.6278 29.0873H34.8483L34.8508 24.236L20.2802 2.57683L5.70957 24.236V29.0873H9.96202V25.6522C9.96202 25.5005 10.0316 25.3583 10.1501 25.2673L10.1504 25.267C10.2666 25.1753 19.8134 17.6328 19.8134 8.7059C19.8134 8.4386 20.0297 8.22059 20.2949 8.22059C20.5601 8.22059 20.7764 8.4386 20.7764 8.7059C20.7764 17.6298 30.3165 25.1699 30.4393 25.2669L30.4397 25.2673C30.5582 25.3602 30.6278 25.5024 30.6278 25.6522V29.0873Z" fill="white"/>
<path d="M39.039 24.9257V25.2757H39.0469L39.0549 25.2753L39.039 24.9257ZM38.5556 25.4091L38.2056 25.4066L38.2056 25.4076L38.5556 25.4091ZM38.5443 28.0006L38.2539 28.1959L38.8894 29.1406L38.8943 28.0021L38.5443 28.0006ZM20.677 1.43925L20.3861 1.63375L20.3866 1.6346L20.677 1.43925ZM19.8796 1.43925L19.5896 1.24334L19.5892 1.2439L19.8796 1.43925ZM2.02532 27.9817L1.67533 27.9802L1.67058 29.1361L2.31573 28.177L2.02532 27.9817ZM2.03661 25.2309L1.68662 25.2284L1.68661 25.2295L2.03661 25.2309ZM1.07365 25.2271L0.723654 25.2246L0.72365 25.2257L1.07365 25.2271ZM1.05672 29.5684L1.40671 29.5715L1.40672 29.5698L1.05672 29.5684ZM1.39526 30.0348L1.5027 29.7017L1.50202 29.7014L1.39526 30.0348ZM1.93693 29.8433L2.22573 30.041L2.22732 30.0387L1.93693 29.8433ZM4.7468 25.6669H5.0968V24.5197L4.45641 25.4715L4.7468 25.6669ZM15.9523 30.0575L16.287 29.9552L16.2113 29.7075H15.9523V30.0575ZM20.1389 33.1505L20.1659 33.4994L20.1679 33.4992L20.1389 33.1505ZM20.1389 33.1505L20.1119 32.8015L20.1099 32.8017L20.1389 33.1505ZM20.1671 33.1504L20.1172 33.4971L20.1284 33.4983L20.1671 33.1504ZM20.1671 33.1505L20.2106 32.8031L20.2058 32.8026L20.1671 33.1505ZM20.1672 33.1505L20.217 32.804L20.2106 32.8032L20.1672 33.1505ZM20.1944 33.15L20.2399 33.4971L20.2445 33.4964L20.1944 33.15ZM20.2048 33.1486L20.2548 33.495L20.2571 33.4946L20.2048 33.1486ZM20.233 33.1457V33.4958L20.242 33.4956L20.233 33.1457ZM24.2861 30.0575V29.7075H24.0271L23.9514 29.9552L24.2861 30.0575ZM35.8118 25.6669L36.1022 25.4715L35.4618 24.5197V25.6669H35.8118ZM38.6217 29.8433L38.9122 29.6481L38.9121 29.6479L38.6217 29.8433ZM39.1596 30.0348L39.2635 30.369L39.2635 30.369L39.1596 30.0348ZM39.5 29.5722L39.15 29.5706V29.5722H39.5ZM39.5188 25.4129L39.1688 25.4104L39.1688 25.4113L39.5188 25.4129ZM39.0392 24.9257L39.0417 24.5757L39.0325 24.5756L39.0233 24.576L39.0392 24.9257ZM20.2274 32.1757L20.2022 31.8266L20.2022 31.8266L20.2274 32.1757ZM20.2328 32.1753L20.3115 31.8343L20.2602 31.8225L20.2076 31.8262L20.2328 32.1753ZM20.1576 32.1791L20.1528 32.5291H20.1576V32.1791ZM20.1764 27.8682L20.4553 27.6567L20.1764 27.2889L19.8975 27.6567L20.1764 27.8682ZM20.2328 32.1753L20.1541 32.5164L20.1994 32.5268L20.2458 32.5251L20.2328 32.1753ZM22.6271 31.0625L22.9653 31.1527L22.9696 31.1363L22.9724 31.1196L22.6271 31.0625ZM22.6271 31.0626L22.2889 30.9724L22.8861 31.2979L22.6271 31.0626ZM23.5129 28.7725L23.1629 28.7725L23.1629 28.774L23.5129 28.7725ZM20.1162 22.6851L20.3916 22.4691L20.116 22.1178L19.8406 22.4693L20.1162 22.6851ZM17.7501 31.2123L17.5054 31.4625L18.3513 32.2898L18.0916 31.1355L17.7501 31.2123ZM19.804 26.778L19.5337 26.5557L19.5335 26.5559L19.804 26.778ZM20.545 26.778L20.2747 27.0004L20.2752 27.0009L20.545 26.778ZM19.7494 21.6047L20.0194 21.8274L20.0198 21.827L19.7494 21.6047ZM20.4905 21.6047L20.2202 21.827L20.3252 21.9547H20.4905V21.6047ZM15.7699 28.9989H16.1199V28.9876L16.1192 28.9764L15.7699 28.9989ZM15.7699 28.9989H15.4199V29.0101L15.4206 29.0214L15.7699 28.9989ZM15.7753 29.0875V29.4375H16.1448L16.1248 29.0686L15.7753 29.0875ZM10.9268 29.0875H10.5768V29.4375H10.9268V29.0875ZM10.9268 25.8874L10.7057 25.6161L10.5768 25.7211V25.8874H10.9268ZM15.7455 20.9678L15.4723 20.7489L15.4723 20.749L15.7455 20.9678ZM20.297 12.3684L20.6359 12.2813L19.958 12.2812L20.297 12.3684ZM24.8485 20.9678L25.1217 20.749L25.1216 20.749L24.8485 20.9678ZM29.6671 25.8874H30.0171V25.7211L29.8882 25.6161L29.6671 25.8874ZM29.6671 29.0875V29.4375H30.0171V29.0875H29.6671ZM24.4628 29.0875L24.1137 29.0623L24.0866 29.4375H24.4628V29.0875ZM24.4778 28.7728L24.1278 28.7725V28.7728H24.4778ZM20.4906 21.6047L20.7607 21.382L20.6557 21.2547H20.4906V21.6047ZM34.8483 29.0873V29.4373H35.1981L35.1983 29.0875L34.8483 29.0873ZM30.6278 29.0873H30.2778V29.4373H30.6278V29.0873ZM34.8508 24.236L35.2008 24.2362L35.2008 24.1293L35.1412 24.0406L34.8508 24.236ZM20.2802 2.57683L20.5706 2.38147L20.2802 1.94979L19.9898 2.38147L20.2802 2.57683ZM5.70957 24.236L5.41917 24.0406L5.35957 24.1292V24.236H5.70957ZM5.70957 29.0873H5.35957V29.4373H5.70957V29.0873ZM9.96202 29.0873V29.4373H10.312V29.0873H9.96202ZM10.1501 25.2673L10.3633 25.5449L10.3674 25.5417L10.1501 25.2673ZM10.1504 25.267L9.93347 24.9924L9.9331 24.9927L10.1504 25.267ZM30.4393 25.2669L30.6567 24.9927L30.6563 24.9924L30.4393 25.2669ZM30.4397 25.2673L30.2223 25.5416L30.2238 25.5428L30.4397 25.2673ZM39.0371 25.2757H39.039V24.5757H39.0371V25.2757ZM38.9056 25.4116C38.9062 25.3326 38.9683 25.2757 39.0371 25.2757V24.5757C38.5756 24.5757 38.2089 24.9511 38.2056 25.4066L38.9056 25.4116ZM38.8943 28.0021L38.9056 25.4106L38.2056 25.4076L38.1943 27.9991L38.8943 28.0021ZM20.3866 1.6346L38.2539 28.1959L38.8348 27.8052L20.9675 1.24389L20.3866 1.6346ZM20.1697 1.63516C20.1838 1.61426 20.2196 1.58877 20.279 1.58877C20.3386 1.58877 20.373 1.61419 20.3861 1.63375L20.968 1.24475C20.8024 0.997003 20.5284 0.88877 20.279 0.88877C20.0296 0.88877 19.756 0.996932 19.5896 1.24334L20.1697 1.63516ZM2.31573 28.177L20.17 1.6346L19.5892 1.2439L1.73491 27.7863L2.31573 28.177ZM1.68661 25.2295L1.67533 27.9802L2.37532 27.9831L2.38661 25.2323L1.68661 25.2295ZM1.55701 25.0937C1.62497 25.0937 1.68715 25.1524 1.68662 25.2284L2.3866 25.2334C2.38983 24.7748 2.01943 24.3937 1.55701 24.3937V25.0937ZM1.55513 25.0937H1.55701V24.3937H1.55513V25.0937ZM1.42364 25.2296C1.4242 25.1506 1.4863 25.0937 1.55513 25.0937V24.3937C1.09358 24.3937 0.726865 24.7691 0.723656 25.2246L1.42364 25.2296ZM1.40672 29.5698L1.42364 25.2285L0.72365 25.2257L0.706723 29.567L1.40672 29.5698ZM1.50202 29.7014C1.4441 29.6829 1.4062 29.6296 1.40671 29.5715L0.706734 29.5653C0.703482 29.9356 0.943936 30.2577 1.2885 30.3681L1.50202 29.7014ZM1.5382 29.7056C1.51721 29.7056 1.5077 29.7033 1.5027 29.7017L1.28782 30.3679C1.37686 30.3966 1.46138 30.4056 1.5382 30.4056V29.7056ZM1.64813 29.6456C1.62102 29.6852 1.57845 29.7056 1.5382 29.7056V30.4056C1.81017 30.4056 2.06853 30.2706 2.22572 30.041L1.64813 29.6456ZM4.45641 25.4715L1.64653 29.6479L2.22732 30.0387L5.0372 25.8623L4.45641 25.4715ZM5.0968 29.5722V25.6669H4.3968V29.5722H5.0968ZM5.22829 29.7075C5.15901 29.7075 5.0968 29.6488 5.0968 29.5722H4.3968C4.3968 30.0302 4.76718 30.4075 5.22829 30.4075V29.7075ZM15.9523 29.7075H5.22829V30.4075H15.9523V29.7075ZM20.1201 32.8014C18.3197 32.8014 16.7909 31.6029 16.287 29.9552L15.6176 30.1599C16.2083 32.0913 18.001 33.5014 20.1201 33.5014V32.8014ZM20.1119 32.8015C20.1083 32.8018 20.1088 32.8017 20.1098 32.8017C20.1113 32.8016 20.115 32.8014 20.1201 32.8014V33.5014C20.1422 33.5014 20.1613 33.4998 20.1659 33.4994L20.1119 32.8015ZM20.1099 32.8017L20.1098 32.8017L20.1679 33.4992L20.168 33.4992L20.1099 32.8017ZM20.1577 32.7995C20.1356 32.7995 20.1164 32.8011 20.1119 32.8015L20.1659 33.4994C20.1696 33.4991 20.1691 33.4992 20.1681 33.4992C20.1666 33.4993 20.1629 33.4995 20.1577 33.4995V32.7995ZM20.2169 32.804C20.2164 32.8039 20.2092 32.8029 20.2012 32.802C20.1932 32.8011 20.1774 32.7995 20.1577 32.7995V33.4995C20.1409 33.4995 20.1281 33.4982 20.1233 33.4976C20.1184 33.4971 20.1145 33.4965 20.1173 33.4969L20.2169 32.804ZM20.2058 32.8026L20.2057 32.8026L20.1284 33.4983L20.1285 33.4983L20.2058 32.8026ZM20.2106 32.8032L20.2106 32.8032L20.1237 33.4977L20.1238 33.4978L20.2106 32.8032ZM20.1765 32.8014C20.1934 32.8014 20.2061 32.8027 20.211 32.8033C20.2158 32.8038 20.2197 32.8044 20.217 32.804L20.1174 33.4969C20.1179 33.497 20.1251 33.498 20.1331 33.4989C20.1411 33.4998 20.1569 33.5014 20.1765 33.5014V32.8014ZM20.149 32.803C20.1501 32.8029 20.161 32.8014 20.1765 32.8014V33.5014C20.2041 33.5014 20.2269 33.4988 20.2399 33.4971L20.149 32.803ZM20.1547 32.8022L20.1444 32.8036L20.2445 33.4964L20.2548 33.495L20.1547 32.8022ZM20.233 32.7957C20.1928 32.7957 20.1572 32.8018 20.1524 32.8025L20.2571 33.4946C20.2597 33.4942 20.2605 33.4941 20.2609 33.494C20.2612 33.494 20.2602 33.4942 20.2583 33.4944C20.2547 33.4948 20.2455 33.4957 20.233 33.4957V32.7957ZM23.9514 29.9552C23.458 31.5691 21.9779 32.7505 20.2239 32.7958L20.242 33.4956C22.3059 33.4423 24.0421 32.0531 24.6208 30.1598L23.9514 29.9552ZM35.3303 29.7075H24.2861V30.4075H35.3303V29.7075ZM35.4618 29.5722C35.4618 29.6488 35.3996 29.7075 35.3303 29.7075V30.4075C35.7914 30.4075 36.1618 30.0302 36.1618 29.5722H35.4618ZM35.4618 25.6669V29.5722H36.1618V25.6669H35.4618ZM38.9121 29.6479L36.1022 25.4715L35.5214 25.8623L38.3313 30.0387L38.9121 29.6479ZM39.0557 29.7005C39.0039 29.7166 38.9454 29.6975 38.9122 29.6481L38.3312 30.0385C38.5349 30.3417 38.9127 30.478 39.2635 30.369L39.0557 29.7005ZM39.15 29.5722C39.15 29.6308 39.111 29.6833 39.0557 29.7005L39.2635 30.369C39.6106 30.261 39.85 29.9383 39.85 29.5722H39.15ZM39.1688 25.4113L39.15 29.5706L39.85 29.5738L39.8688 25.4145L39.1688 25.4113ZM39.0367 25.2757C39.1108 25.2762 39.1693 25.3348 39.1688 25.4104L39.8688 25.4153C39.872 24.9526 39.5018 24.5789 39.0417 24.5757L39.0367 25.2757ZM39.0549 25.2753L39.0551 25.2753L39.0233 24.576L39.0231 24.576L39.0549 25.2753ZM20.2526 32.5248L20.258 32.5244L20.2076 31.8262L20.2022 31.8266L20.2526 32.5248ZM20.1576 32.5291C20.1952 32.5291 20.2307 32.5264 20.2527 32.5248L20.2022 31.8266C20.1756 31.8286 20.1655 31.8291 20.1576 31.8291V32.5291ZM18.2954 30.6474C18.2954 31.6775 19.127 32.5151 20.1528 32.5291L20.1623 31.8292C19.5179 31.8204 18.9954 31.2931 18.9954 30.6474H18.2954ZM19.8975 27.6567C19.5284 28.1435 19.1368 28.7128 18.8355 29.235C18.685 29.4959 18.5536 29.751 18.4587 29.9822C18.3675 30.2046 18.2954 30.4392 18.2954 30.6474H18.9954C18.9954 30.5798 19.024 30.4487 19.1064 30.2479C19.1852 30.0558 19.3003 29.8301 19.4418 29.5848C19.7246 29.0947 20.0984 28.5503 20.4553 28.0796L19.8975 27.6567ZM22.0574 30.6474C22.0574 30.4392 21.9853 30.2046 21.8941 29.9822C21.7992 29.751 21.6678 29.4958 21.5173 29.235C21.216 28.7128 20.8244 28.1435 20.4553 27.6567L19.8975 28.0796C20.2544 28.5503 20.6282 29.0947 20.911 29.5848C21.0525 29.8301 21.1676 30.0558 21.2464 30.2478C21.3288 30.4487 21.3574 30.5797 21.3574 30.6474H22.0574ZM20.2458 32.5251C21.2505 32.4879 22.0574 31.6618 22.0574 30.6474H21.3574C21.3574 31.2822 20.8514 31.8022 20.2199 31.8256L20.2458 32.5251ZM20.1541 32.5164L20.1541 32.5164L20.3115 31.8343L20.3115 31.8343L20.1541 32.5164ZM22.9724 31.1196C22.9957 30.9784 23.0184 30.819 23.0184 30.6454H22.3184C22.3184 30.76 22.3035 30.8737 22.2818 31.0054L22.9724 31.1196ZM22.9652 31.1527L22.9653 31.1527L22.2889 30.9723L22.2889 30.9724L22.9652 31.1527ZM23.1629 28.774C23.1663 29.5628 22.8637 30.2815 22.368 30.8272L22.8861 31.2979C23.4925 30.6304 23.867 29.7452 23.8629 28.771L23.1629 28.774ZM19.8408 22.9011C20.4393 23.6642 21.2796 24.8107 21.9683 25.9427C22.3128 26.5089 22.6153 27.0649 22.8307 27.5632C23.0498 28.0702 23.1629 28.4824 23.1629 28.7725H23.8629C23.8629 28.3355 23.7024 27.8157 23.4732 27.2855C23.2403 26.7466 22.9201 26.1603 22.5663 25.5789C21.8585 24.4155 21.0005 23.2454 20.3916 22.4691L19.8408 22.9011ZM17.0695 28.7725C17.0695 28.483 17.1827 28.071 17.4019 27.5641C17.6174 27.0659 17.9201 26.5098 18.2647 25.9434C18.9537 24.8112 19.794 23.6641 20.3917 22.9009L19.8406 22.4693C19.2327 23.2455 18.3747 24.416 17.6667 25.5796C17.3129 26.1611 16.9925 26.7474 16.7594 27.2862C16.5302 27.8163 16.3695 28.3359 16.3695 28.7725H17.0695ZM17.9949 30.9621C17.4249 30.4046 17.0695 29.6289 17.0695 28.7725H16.3695C16.3695 29.8268 16.8077 30.7802 17.5054 31.4625L17.9949 30.9621ZM17.3305 30.6454C17.3305 30.8744 17.3637 31.089 17.4087 31.2891L18.0916 31.1355C18.0539 30.9677 18.0305 30.807 18.0305 30.6454H17.3305ZM19.5335 26.5559C19.3534 26.7751 18.8125 27.4471 18.315 28.2236C18.0663 28.6117 17.8239 29.0328 17.6427 29.4415C17.4644 29.8433 17.3305 30.2652 17.3305 30.6454H18.0305C18.0305 30.4115 18.1179 30.0966 18.2825 29.7253C18.4442 29.361 18.6664 28.9727 18.9044 28.6013C19.3801 27.8588 19.901 27.2113 20.0744 27.0002L19.5335 26.5559ZM20.8153 26.5557C20.4929 26.1637 19.8561 26.1637 19.5337 26.5557L20.0743 27.0004C20.0891 26.9823 20.1229 26.9617 20.1745 26.9617C20.2261 26.9617 20.2598 26.9823 20.2747 27.0004L20.8153 26.5557ZM23.0184 30.6454C23.0184 30.2652 22.8847 29.8435 22.7066 29.4416C22.5255 29.0329 22.2833 28.6118 22.0348 28.2237C21.5374 27.4472 20.9966 26.7752 20.8149 26.5552L20.2752 27.0009C20.4489 27.2113 20.9698 27.8588 21.4453 28.6012C21.6832 28.9726 21.9052 29.3609 22.0667 29.7252C22.2312 30.0965 22.3184 30.4114 22.3184 30.6454H23.0184ZM20.0198 21.827C20.0346 21.8089 20.0684 21.7883 20.12 21.7883C20.1716 21.7883 20.2053 21.8089 20.2202 21.827L20.7608 21.3823C20.4384 20.9903 19.8016 20.9903 19.4791 21.3823L20.0198 21.827ZM16.1103 28.7728C16.1103 28.2858 16.3074 27.6428 16.6438 26.9158C16.9761 26.1978 17.4266 25.4345 17.8948 24.7182C18.8308 23.2862 19.8188 22.0706 20.0194 21.8274L19.4794 21.382C19.2719 21.6335 18.2654 22.8719 17.3088 24.3352C16.8308 25.0666 16.3605 25.8613 16.0086 26.6219C15.6607 27.3735 15.4103 28.1297 15.4103 28.7728H16.1103ZM16.1192 28.9764C16.1143 28.8998 16.1103 28.8358 16.1103 28.7728H15.4103C15.4103 28.862 15.4159 28.9483 15.4206 29.0214L16.1192 28.9764ZM16.1199 28.9989V28.9989H15.4199V28.9989H16.1199ZM16.1248 29.0686C16.1231 29.037 16.1211 29.0057 16.1192 28.9764L15.4206 29.0214C15.4226 29.0512 15.4244 29.079 15.4258 29.1064L16.1248 29.0686ZM10.9268 29.4375H15.7753V28.7375H10.9268V29.4375ZM10.5768 25.8874V29.0875H11.2768V25.8874H10.5768ZM15.4723 20.749C13.3845 23.3566 11.3225 25.1135 10.7057 25.6161L11.1479 26.1587C11.7875 25.6375 13.8896 23.8457 16.0187 21.1865L15.4723 20.749ZM19.958 12.2812C19.0895 15.6568 17.1683 18.6318 15.4723 20.7489L16.0186 21.1866C17.7457 19.0307 19.7328 15.9658 20.6359 12.4557L19.958 12.2812ZM25.1216 20.749C23.4256 18.6314 21.5044 15.6585 20.6359 12.2813L19.958 12.4556C20.8612 15.9676 22.8483 19.0304 24.5753 21.1866L25.1216 20.749ZM29.8882 25.6161C29.2714 25.1134 27.2094 23.3564 25.1217 20.749L24.5752 21.1865C26.7043 23.8455 28.8063 25.6374 29.446 26.1587L29.8882 25.6161ZM30.0171 29.0875V25.8874H29.3171V29.0875H30.0171ZM24.4628 29.4375H29.6671V28.7375H24.4628V29.4375ZM24.1278 28.7728C24.1278 28.8643 24.1214 28.9561 24.1137 29.0623L24.8119 29.1127C24.8193 29.0104 24.8278 28.8936 24.8278 28.7728H24.1278ZM20.2205 21.8273C20.4212 22.0707 21.4092 23.2864 22.345 24.7184C22.813 25.4347 23.2633 26.198 23.5953 26.916C23.9315 27.6429 24.1282 28.2857 24.1278 28.7725L24.8278 28.7731C24.8284 28.13 24.5782 27.3738 24.2307 26.6222C23.879 25.8616 23.4089 25.0669 22.9309 24.3355C21.9747 22.8721 20.9681 21.6336 20.7607 21.382L20.2205 21.8273ZM20.4905 21.9547H20.4906V21.2547H20.4905V21.9547ZM34.8483 28.7373H30.6278V29.4373H34.8483V28.7373ZM34.5008 24.2358L34.4983 29.0871L35.1983 29.0875L35.2008 24.2362L34.5008 24.2358ZM19.9898 2.77219L34.5604 24.4314L35.1412 24.0406L20.5706 2.38147L19.9898 2.77219ZM5.99998 24.4314L20.5706 2.77219L19.9898 2.38147L5.41917 24.0406L5.99998 24.4314ZM6.05957 29.0873V24.236H5.35957V29.0873H6.05957ZM9.96202 28.7373H5.70957V29.4373H9.96202V28.7373ZM9.61202 25.6522V29.0873H10.312V25.6522H9.61202ZM9.93691 24.9897C9.73085 25.148 9.61202 25.3934 9.61202 25.6522H10.312C10.312 25.6076 10.3324 25.5686 10.3633 25.5449L9.93691 24.9897ZM9.9331 24.9927L9.93275 24.993L10.3674 25.5417L10.3678 25.5414L9.9331 24.9927ZM19.4634 8.7059C19.4634 13.0507 17.1356 17.0904 14.7518 20.0815C12.3743 23.0647 9.98172 24.9543 9.93347 24.9924L10.3674 25.5417C10.4353 25.488 12.8743 23.5605 15.2992 20.5178C17.7178 17.483 20.1634 13.288 20.1634 8.7059H19.4634ZM20.2949 7.87059C19.8338 7.87059 19.4634 8.24792 19.4634 8.7059H20.1634C20.1634 8.62928 20.2256 8.57059 20.2949 8.57059V7.87059ZM21.1264 8.7059C21.1264 8.24793 20.756 7.87059 20.2949 7.87059V8.57059C20.3642 8.57059 20.4264 8.62928 20.4264 8.7059H21.1264ZM30.6563 24.9924C30.6047 24.9516 28.2122 23.0613 25.8355 20.0784C23.4526 17.0876 21.1264 13.0492 21.1264 8.7059H20.4264C20.4264 13.2865 22.8703 17.4801 25.2881 20.5146C27.7121 23.557 30.1511 25.4853 30.2222 25.5415L30.6563 24.9924ZM30.6571 24.993L30.6567 24.9927L30.2218 25.5412L30.2223 25.5416L30.6571 24.993ZM30.9778 25.6522C30.9778 25.3939 30.858 25.1505 30.6557 24.9919L30.2238 25.5428C30.2584 25.5699 30.2778 25.6109 30.2778 25.6522H30.9778ZM30.9778 29.0873V25.6522H30.2778V29.0873H30.9778Z" fill="white"/>
<path fill-rule="evenodd" clip-rule="evenodd" d="M27.596 34.9488C27.6393 35.0702 27.6299 35.2067 27.5734 35.3223L27.5738 35.3223C27.5154 35.4399 27.4158 35.529 27.2916 35.5707L25.5105 36.1641L27.2221 36.6513C27.3462 36.6873 27.4515 36.7707 27.5136 36.8844C27.5756 36.9982 27.5888 37.1309 27.5531 37.256L26.9381 39.3452C26.876 39.5556 26.6861 39.6921 26.4773 39.6921C26.434 39.6921 26.3889 39.6845 26.3456 39.6731L20.2178 37.9271L14.5941 39.802C14.5452 39.8191 14.4944 39.8267 14.4437 39.8267C14.2443 39.8267 14.0581 39.7015 13.9923 39.5006L13.2832 37.4399C13.2399 37.3186 13.2493 37.1821 13.3058 37.0664C13.3622 36.9489 13.4637 36.8617 13.586 36.82L15.0718 36.3252L13.2869 35.8171C13.1628 35.7811 13.0575 35.6977 12.9954 35.5839C12.9334 35.4702 12.9202 35.3375 12.9559 35.2124L13.5709 33.1232C13.6462 32.8673 13.9095 32.7213 14.1634 32.7934L20.3644 34.5602L26.2813 32.5867C26.5315 32.5033 26.8004 32.6379 26.8869 32.8881L27.596 34.9488ZM14.3591 33.8569L14.0168 35.0152L16.7026 35.7811L18.7338 35.1043L14.3591 33.8569ZM26.4901 37.4512L26.1478 38.6095L21.8483 37.383L23.8796 36.7062L26.4901 37.4512ZM14.3498 37.5877L14.7429 38.7309L26.5262 34.8028L26.1331 33.6597L14.3498 37.5877Z" fill="white"/>
<path d="M27.5734 35.3223L27.2589 35.1688L27.0175 35.6634L27.5678 35.6723L27.5734 35.3223ZM27.596 34.9488L27.265 35.0627L27.2663 35.0664L27.596 34.9488ZM27.5738 35.3223L27.8873 35.4779L28.1336 34.9813L27.5794 34.9724L27.5738 35.3223ZM27.2916 35.5707L27.4023 35.9027L27.4031 35.9024L27.2916 35.5707ZM25.5105 36.1641L25.3999 35.832L24.3244 36.1903L25.4147 36.5007L25.5105 36.1641ZM27.2221 36.6513L27.3196 36.3151L27.3179 36.3146L27.2221 36.6513ZM27.5531 37.256L27.8888 37.3549L27.8896 37.3521L27.5531 37.256ZM26.9381 39.3452L27.2738 39.4442L27.2738 39.444L26.9381 39.3452ZM26.3456 39.6731L26.2497 40.0098L26.2566 40.0116L26.3456 39.6731ZM20.2178 37.9271L20.3137 37.5905L20.2097 37.5609L20.1071 37.5951L20.2178 37.9271ZM14.5941 39.802L14.4834 39.47L14.4788 39.4716L14.5941 39.802ZM13.9923 39.5006L14.3249 39.3916L14.3232 39.3867L13.9923 39.5006ZM13.2832 37.4399L13.6142 37.326L13.6129 37.3223L13.2832 37.4399ZM13.3058 37.0664L13.6203 37.2199L13.6213 37.2179L13.3058 37.0664ZM13.586 36.82L13.4754 36.4879L13.473 36.4887L13.586 36.82ZM15.0718 36.3252L15.1824 36.6573L16.2582 36.299L15.1676 35.9886L15.0718 36.3252ZM13.2869 35.8171L13.1894 36.1533L13.1911 36.1537L13.2869 35.8171ZM12.9954 35.5839L13.3027 35.4163L13.3027 35.4163L12.9954 35.5839ZM12.9559 35.2124L12.6202 35.1135L12.6194 35.1163L12.9559 35.2124ZM13.5709 33.1232L13.9067 33.2221L13.9067 33.222L13.5709 33.1232ZM14.1634 32.7934L14.2593 32.4568L14.2589 32.4567L14.1634 32.7934ZM20.3644 34.5602L20.2685 34.8968L20.3725 34.9265L20.4751 34.8922L20.3644 34.5602ZM26.2813 32.5867L26.1706 32.2547L26.1706 32.2547L26.2813 32.5867ZM26.8869 32.8881L27.2179 32.7743L27.2177 32.7738L26.8869 32.8881ZM14.0168 35.0152L13.6812 34.916L13.581 35.2549L13.9209 35.3518L14.0168 35.0152ZM14.3591 33.8569L14.4551 33.5203L14.1217 33.4252L14.0235 33.7577L14.3591 33.8569ZM16.7026 35.7811L16.6066 36.1177L16.7106 36.1473L16.8132 36.1131L16.7026 35.7811ZM18.7338 35.1043L18.8445 35.4364L19.9191 35.0783L18.8298 34.7677L18.7338 35.1043ZM26.1478 38.6095L26.0518 38.9461L26.3852 39.0412L26.4834 38.7087L26.1478 38.6095ZM26.4901 37.4512L26.8257 37.5504L26.9259 37.2116L26.5861 37.1147L26.4901 37.4512ZM21.8483 37.383L21.7377 37.051L20.6633 37.4089L21.7523 37.7196L21.8483 37.383ZM23.8796 36.7062L23.9756 36.3697L23.8716 36.34L23.7689 36.3742L23.8796 36.7062ZM14.7429 38.7309L14.4119 38.8447L14.5247 39.1726L14.8536 39.0629L14.7429 38.7309ZM14.3498 37.5877L14.2391 37.2557L13.904 37.3674L14.0188 37.7015L14.3498 37.5877ZM26.5262 34.8028L26.6369 35.1349L26.9721 35.0231L26.8572 34.689L26.5262 34.8028ZM26.1331 33.6597L26.4641 33.5459L26.3514 33.218L26.0224 33.3276L26.1331 33.6597ZM27.888 35.4758C27.9842 35.2787 28.0017 35.0446 27.9257 34.8313L27.2663 35.0664C27.2768 35.0958 27.2755 35.1347 27.2589 35.1688L27.888 35.4758ZM27.5794 34.9724L27.5791 34.9724L27.5678 35.6723L27.5681 35.6723L27.5794 34.9724ZM27.4031 35.9024C27.6184 35.8301 27.7892 35.6756 27.8873 35.4779L27.2602 35.1668C27.2417 35.2041 27.2131 35.2278 27.1802 35.2389L27.4031 35.9024ZM25.6212 36.4961L27.4023 35.9027L27.181 35.2386L25.3999 35.832L25.6212 36.4961ZM27.3179 36.3146L25.6064 35.8274L25.4147 36.5007L27.1262 36.9879L27.3179 36.3146ZM27.8208 36.7168C27.7133 36.5197 27.5316 36.3766 27.3196 36.3151L27.1245 36.9874C27.1608 36.9979 27.1898 37.0217 27.2063 37.0521L27.8208 36.7168ZM27.8896 37.3521C27.9497 37.1419 27.9285 36.9141 27.8208 36.7168L27.2063 37.0521C27.2228 37.0823 27.228 37.1199 27.2165 37.1599L27.8896 37.3521ZM27.2738 39.444L27.8888 37.3549L27.2173 37.1572L26.6023 39.2463L27.2738 39.444ZM26.4773 40.0421C26.8394 40.0421 27.1673 39.8051 27.2738 39.4442L26.6024 39.2461C26.5847 39.306 26.5327 39.3421 26.4773 39.3421V40.0421ZM26.2566 40.0116C26.3189 40.028 26.3951 40.0421 26.4773 40.0421V39.3421C26.4729 39.3421 26.4589 39.341 26.4346 39.3346L26.2566 40.0116ZM20.1219 38.2637L26.2497 40.0097L26.4415 39.3365L20.3137 37.5905L20.1219 38.2637ZM14.7048 40.1341L20.3285 38.2591L20.1071 37.5951L14.4834 39.47L14.7048 40.1341ZM14.4437 40.1767C14.5293 40.1767 14.6195 40.1639 14.7094 40.1325L14.4788 39.4716C14.4709 39.4743 14.4596 39.4767 14.4437 39.4767V40.1767ZM13.6597 39.6095C13.7746 39.9604 14.0995 40.1767 14.4437 40.1767V39.4767C14.3891 39.4767 14.3416 39.4427 14.3249 39.3916L13.6597 39.6095ZM12.9522 37.5538L13.6613 39.6145L14.3232 39.3867L13.6141 37.326L12.9522 37.5538ZM12.9912 36.9129C12.895 37.1101 12.8775 37.3441 12.9535 37.5574L13.6129 37.3223C13.6024 37.293 13.6036 37.2541 13.6203 37.2199L12.9912 36.9129ZM13.473 36.4887C13.2656 36.5595 13.089 36.7092 12.9902 36.915L13.6213 37.2179C13.6354 37.1886 13.6619 37.1639 13.699 37.1512L13.473 36.4887ZM14.9612 35.9931L13.4754 36.4879L13.6966 37.152L15.1824 36.6573L14.9612 35.9931ZM13.1911 36.1537L14.976 36.6618L15.1676 35.9886L13.3828 35.4805L13.1911 36.1537ZM12.6882 35.7516C12.7958 35.9487 12.9774 36.0917 13.1894 36.1533L13.3845 35.481C13.3482 35.4705 13.3192 35.4466 13.3027 35.4163L12.6882 35.7516ZM12.6194 35.1163C12.5593 35.3265 12.5805 35.5543 12.6882 35.7516L13.3027 35.4163C13.2862 35.3861 13.281 35.3485 13.2925 35.3085L12.6194 35.1163ZM13.2352 33.0244L12.6202 35.1135L13.2917 35.3112L13.9067 33.2221L13.2352 33.0244ZM14.2589 32.4567C13.8182 32.3316 13.3639 32.5864 13.2351 33.0245L13.9067 33.222C13.9284 33.1482 14.0007 33.111 14.0679 33.1301L14.2589 32.4567ZM20.4603 34.2236L14.2593 32.4568L14.0675 33.13L20.2685 34.8968L20.4603 34.2236ZM26.1706 32.2547L20.2536 34.2282L20.4751 34.8922L26.3921 32.9187L26.1706 32.2547ZM27.2177 32.7738C27.0695 32.3451 26.6055 32.1097 26.1706 32.2547L26.392 32.9187C26.4574 32.8969 26.5313 32.9308 26.5561 33.0025L27.2177 32.7738ZM27.927 34.835L27.2179 32.7743L26.556 33.002L27.265 35.0627L27.927 34.835ZM14.3525 35.1144L14.6948 33.9561L14.0235 33.7577L13.6812 34.916L14.3525 35.1144ZM16.7985 35.4445L14.1128 34.6786L13.9209 35.3518L16.6066 36.1177L16.7985 35.4445ZM18.6232 34.7722L16.5919 35.449L16.8132 36.1131L18.8445 35.4364L18.6232 34.7722ZM14.2632 34.1935L18.6379 35.4409L18.8298 34.7677L14.4551 33.5203L14.2632 34.1935ZM26.4834 38.7087L26.8257 37.5504L26.1544 37.352L25.8121 38.5104L26.4834 38.7087ZM21.7523 37.7196L26.0518 38.9461L26.2438 38.273L21.9443 37.0464L21.7523 37.7196ZM23.7689 36.3742L21.7377 37.051L21.9589 37.7151L23.9902 37.0383L23.7689 36.3742ZM26.5861 37.1147L23.9756 36.3697L23.7835 37.0428L26.394 37.7878L26.5861 37.1147ZM15.0739 38.6171L14.6808 37.4739L14.0188 37.7015L14.4119 38.8447L15.0739 38.6171ZM26.4155 34.4708L14.6322 38.3988L14.8536 39.0629L26.6369 35.1349L26.4155 34.4708ZM25.8021 33.7735L26.1952 34.9166L26.8572 34.689L26.4641 33.5459L25.8021 33.7735ZM14.4605 37.9197L26.2438 33.9917L26.0224 33.3276L14.2391 37.2557L14.4605 37.9197Z" fill="white"/>
</svg>
