<svg width="51" height="33" viewBox="0 0 51 33" fill="none" xmlns="http://www.w3.org/2000/svg">
<path fill-rule="evenodd" clip-rule="evenodd" d="M49.5006 22.0307V24.7772L49.5002 24.7773C50.0705 24.8933 50.5002 25.3939 50.5002 25.9892V26.9768C50.5002 27.576 50.0705 28.0746 49.5002 28.1906V28.2157H42.9357C42.5724 30.4558 40.6134 32.1741 38.2501 32.1741C35.8868 32.1741 33.9279 30.4558 33.5666 28.2157H16.1855C15.8222 30.4558 13.8633 32.1741 11.5 32.1741C9.1367 32.1741 7.17578 30.4539 6.81445 28.2157H3L2.25195 28.2177C1.56055 28.2177 1 27.661 1 26.9788V25.9911C1 25.3069 1.5625 24.7522 2.25195 24.7522H3V13.6214C3 10.21 5.80475 7.4345 9.252 7.4345L15.0215 7.43063V5.45725C8.936 4.88325 3.77955 3.81054 2.219 2.26624C1.98658 2.03819 1.93189 1.68641 2.08423 1.39843C2.23658 1.11237 2.55692 0.953887 2.88113 1.01187C7.85764 1.8932 15.5961 2.0111 22.5061 2.0111C23.9749 2.0111 25.4183 2.00724 26.805 2.00144C27.1576 2.00038 27.5065 1.99918 27.8514 1.99799L27.8515 1.99799L27.8516 1.99799L27.8517 1.99799L27.8521 1.99798L27.8523 1.99798L27.8524 1.99798C28.766 1.99483 29.6512 1.99178 30.5003 1.99178L36.9378 1.99371H36.9397C41.2972 1.99371 43.9808 1.96471 47.4612 1.79656C47.805 1.78301 48.1233 2.00335 48.219 2.33386C48.3147 2.66438 48.1683 3.01809 47.8655 3.18624C47.3636 3.46456 46.7386 3.72354 45.9983 3.96321V5.465C45.9983 6.13376 45.6389 6.71164 45.0354 7.01315C44.7796 7.14071 44.5101 7.2045 44.2425 7.2045C43.8792 7.2045 43.5179 7.08853 43.2054 6.85853L40.7855 5.08233C37.7035 5.52688 33.8872 5.80907 29.5005 5.90957V7.43645L34.7485 7.43451C38.0925 7.43451 41.1764 8.54201 43.653 10.4033L43.8581 10.5618C45.9303 12.1755 47.5553 14.3267 48.5182 16.8026L48.5241 16.8142L48.5377 16.847C48.5513 16.8853 48.566 16.9224 48.5806 16.9594L48.5807 16.9595L48.5807 16.9596L48.5808 16.9597L48.5808 16.9598L48.5809 16.96C48.5935 16.9919 48.6061 17.0236 48.6178 17.0557L48.9166 17.8231H48.8737C49.2799 19.1567 49.5006 20.5696 49.5006 22.0307ZM35.7508 16.3405H46.6823H46.6825C45.8427 14.6262 44.6317 13.105 43.1298 11.8874H35.7508C35.616 11.8874 35.5008 12.0014 35.5008 12.1348V16.0931C35.5008 16.2265 35.616 16.3405 35.7508 16.3405ZM44.5006 5.46501C44.5006 5.56744 44.4557 5.64089 44.362 5.68728C44.2682 5.73366 44.1842 5.72593 44.1002 5.66408L42.8424 4.74214C43.4323 4.63004 43.985 4.51021 44.5006 4.38457L44.5006 5.46501ZM25.8414 3.49065L25.8412 3.49065C24.7548 3.49399 23.6398 3.49742 22.5086 3.49742L22.5091 3.49738C18.0696 3.49738 13.2882 3.44713 9.08708 3.17847C13.1221 3.93229 18.9251 4.46572 25.7511 4.46572C32.0241 4.46572 37.5107 4.10239 41.4931 3.46263C40.1356 3.47809 38.6688 3.48389 36.9423 3.48389H36.9403L30.5008 3.47809C29.3329 3.47809 28.0965 3.48196 26.8114 3.48776L25.8414 3.49065ZM16.5221 5.59064C19.5319 5.82837 22.7076 5.95013 25.7506 5.95013C26.5143 5.95013 27.2643 5.94433 28.0006 5.93467V7.43448H16.5221V5.59064ZM8.25063 27.4738C8.25063 29.2481 9.70768 30.6899 11.5006 30.6899C13.2936 30.6899 14.7506 29.2481 14.7506 27.4738C14.7506 25.6995 13.2936 24.2576 11.5006 24.2576C9.70768 24.2576 8.25063 25.6995 8.25063 27.4738ZM38.2506 30.6899C36.4577 30.6899 35.0006 29.2481 35.0006 27.4738C35.0006 25.6995 36.4577 24.2576 38.2506 24.2576C40.0436 24.2576 41.5006 25.6995 41.5006 27.4738C41.5006 29.2481 40.0436 30.6899 38.2506 30.6899ZM38.2506 22.7733C40.6139 22.7733 42.5748 24.4915 42.9362 26.7316H49.0006V26.2368H44.5006V24.7524H48.0006V22.033C48.0006 20.5602 47.7506 19.1474 47.2975 17.8253H35.7505C34.7856 17.8253 34.0005 17.0484 34.0005 16.0936V12.1352C34.0005 11.1804 34.7856 10.4035 35.7505 10.4035H40.862C39.0317 9.45832 36.9516 8.9191 34.7485 8.9191H9.25248C6.63138 8.9191 4.50053 11.0297 4.50053 13.6215V16.341H12.0355V17.8253H4.50053V24.7524H5.50053V26.2368H2.50053V26.7316H6.81498C7.17828 24.4915 9.13723 22.7733 11.5005 22.7733C13.8638 22.7733 15.8247 24.4915 16.1861 26.7316H33.5651C33.9284 24.4915 35.8873 22.7733 38.2506 22.7733Z" fill="white"/>
<path d="M49.5006 24.7772L49.5285 24.8733L49.6006 24.8523V24.7772H49.5006ZM49.5002 24.7773L49.4723 24.6813L49.4803 24.8753L49.5002 24.7773ZM49.5002 28.1906L49.4803 28.0926L49.4002 28.1089V28.1906H49.5002ZM49.5002 28.2157V28.3157H49.6002V28.2157H49.5002ZM42.9357 28.2157V28.1157H42.8506L42.837 28.1997L42.9357 28.2157ZM33.5666 28.2157L33.6653 28.1998L33.6517 28.1157H33.5666V28.2157ZM16.1855 28.2157V28.1157H16.1005L16.0868 28.1997L16.1855 28.2157ZM6.81445 28.2157L6.91317 28.1998L6.8996 28.1157H6.81445V28.2157ZM3 28.2157L3 28.1157L2.99974 28.1157L3 28.2157ZM2.25195 28.2177L2.25195 28.3177L2.25221 28.3177L2.25195 28.2177ZM3 24.7522V24.8522H3.1V24.7522H3ZM9.252 7.4345L9.252 7.5345L9.25207 7.5345L9.252 7.4345ZM15.0215 7.43063L15.0216 7.53063L15.1215 7.53056V7.43063H15.0215ZM15.0215 5.45725H15.1215V5.36624L15.0309 5.3577L15.0215 5.45725ZM2.219 2.26624L2.28934 2.19516L2.28904 2.19486L2.219 2.26624ZM2.08423 1.39843L1.99597 1.35142L1.99584 1.35167L2.08423 1.39843ZM2.88113 1.01187L2.86353 1.11031L2.8637 1.11034L2.88113 1.01187ZM26.805 2.00144L26.8047 1.90144L26.8046 1.90144L26.805 2.00144ZM27.8514 1.99799L27.8518 2.09799L27.8518 2.09799L27.8514 1.99799ZM27.8517 1.99799L27.8514 1.89799L27.8513 1.89799L27.8517 1.99799ZM27.8521 1.99798L27.8517 1.89799L27.8517 1.89799L27.8521 1.99798ZM27.8523 1.99798L27.8526 2.09798L27.8527 2.09798L27.8523 1.99798ZM27.8524 1.99798L27.852 1.89798L27.852 1.89798L27.8524 1.99798ZM30.5003 1.99178L30.5003 1.89178H30.5003V1.99178ZM36.9378 1.99371L36.9378 2.09371H36.9378V1.99371ZM47.4612 1.79656L47.4573 1.69664L47.4564 1.69668L47.4612 1.79656ZM48.219 2.33386L48.3151 2.30605L48.3151 2.30604L48.219 2.33386ZM47.8655 3.18624L47.914 3.27369L47.9141 3.27366L47.8655 3.18624ZM45.9983 3.96321L45.9675 3.86807L45.8983 3.89047V3.96321H45.9983ZM45.0354 7.01315L45.08 7.10265L45.0801 7.10261L45.0354 7.01315ZM43.2054 6.85853L43.2646 6.77799L43.2645 6.77792L43.2054 6.85853ZM40.7855 5.08233L40.8446 5.00171L40.8117 4.97751L40.7712 4.98335L40.7855 5.08233ZM29.5005 5.90957L29.4982 5.8096L29.4005 5.81183V5.90957H29.5005ZM29.5005 7.43645H29.4005V7.53648L29.5005 7.53645L29.5005 7.43645ZM34.7485 7.43451L34.7485 7.33451L34.7484 7.33451L34.7485 7.43451ZM43.653 10.4033L43.7141 10.3241L43.7131 10.3233L43.653 10.4033ZM43.8581 10.5618L43.9195 10.4829L43.9192 10.4826L43.8581 10.5618ZM48.5182 16.8026L48.4246 16.839L48.4289 16.8477L48.5182 16.8026ZM48.5241 16.8142L48.6166 16.7756L48.6133 16.7691L48.5241 16.8142ZM48.5377 16.847L48.6321 16.8135L48.6301 16.8086L48.5377 16.847ZM48.5806 16.9594L48.4877 16.9962L48.4878 16.9965L48.5806 16.9594ZM48.5807 16.9595L48.674 16.9234L48.6735 16.9224L48.5807 16.9595ZM48.5807 16.9596L48.4875 16.9957L48.4879 16.9967L48.5807 16.9596ZM48.5808 16.9597L48.6741 16.9236L48.6736 16.9226L48.5808 16.9597ZM48.5808 16.9598L48.4876 16.9959L48.488 16.997L48.5808 16.9598ZM48.5809 16.96L48.6739 16.9231L48.6737 16.9228L48.5809 16.96ZM48.6178 17.0557L48.5239 17.09L48.5246 17.092L48.6178 17.0557ZM48.9166 17.8231V17.9231H49.0629L49.0098 17.7868L48.9166 17.8231ZM48.8737 17.8231V17.7231H48.7387L48.778 17.8522L48.8737 17.8231ZM46.6825 16.3405V16.4405H46.8429L46.7723 16.2965L46.6825 16.3405ZM43.1298 11.8874L43.1928 11.8097L43.1652 11.7874H43.1298V11.8874ZM44.362 5.68728L44.3176 5.59765L44.3176 5.59765L44.362 5.68728ZM44.5006 5.46501L44.4006 5.46501V5.46501H44.5006ZM44.1002 5.66408L44.1595 5.58356L44.1594 5.58343L44.1002 5.66408ZM42.8424 4.74214L42.8238 4.6439L42.5978 4.68684L42.7833 4.82279L42.8424 4.74214ZM44.5006 4.38457L44.6006 4.38457L44.6006 4.25728L44.477 4.28742L44.5006 4.38457ZM25.8412 3.49065L25.8415 3.59065L25.8416 3.59065L25.8412 3.49065ZM25.8414 3.49065L25.8411 3.39065L25.841 3.39065L25.8414 3.49065ZM22.5086 3.49742L22.4996 3.39783L22.5086 3.59742V3.49742ZM22.5091 3.49738L22.5181 3.59697L22.5091 3.39738V3.49738ZM9.08708 3.17847L9.09346 3.07867L9.06871 3.27677L9.08708 3.17847ZM41.4931 3.46263L41.5089 3.56136L41.4919 3.36264L41.4931 3.46263ZM36.9403 3.48389L36.9402 3.58389H36.9403V3.48389ZM30.5008 3.47809L30.5009 3.37809H30.5008V3.47809ZM26.8114 3.48776L26.8117 3.58776L26.8118 3.58775L26.8114 3.48776ZM16.5221 5.59064L16.53 5.49095L16.4221 5.48243V5.59064H16.5221ZM28.0006 5.93467H28.1006V5.83335L27.9993 5.83468L28.0006 5.93467ZM28.0006 7.43448V7.53448H28.1006V7.43448H28.0006ZM16.5221 7.43448H16.4221V7.53448H16.5221V7.43448ZM42.9362 26.7316L42.8375 26.7475L42.851 26.8316H42.9362V26.7316ZM49.0006 26.7316V26.8316H49.1006V26.7316H49.0006ZM49.0006 26.2368H49.1006V26.1368H49.0006V26.2368ZM44.5006 26.2368H44.4006V26.3368H44.5006V26.2368ZM44.5006 24.7524V24.6524H44.4006V24.7524H44.5006ZM48.0006 24.7524V24.8524H48.1006V24.7524H48.0006ZM47.2975 17.8253L47.3921 17.7929L47.3689 17.7253H47.2975V17.8253ZM40.862 10.4035V10.5035L40.9079 10.3146L40.862 10.4035ZM4.50053 16.341H4.40053V16.441H4.50053V16.341ZM12.0355 16.341H12.1355V16.241H12.0355V16.341ZM12.0355 17.8253V17.9253H12.1355V17.8253H12.0355ZM4.50053 17.8253V17.7253H4.40053V17.8253H4.50053ZM4.50053 24.7524H4.40053V24.8524H4.50053V24.7524ZM5.50053 24.7524H5.60053V24.6524H5.50053V24.7524ZM5.50053 26.2368V26.3368H5.60053V26.2368H5.50053ZM2.50053 26.2368V26.1368H2.40053V26.2368H2.50053ZM2.50053 26.7316H2.40053V26.8316H2.50053V26.7316ZM6.81498 26.7316V26.8316H6.90006L6.91369 26.7476L6.81498 26.7316ZM16.1861 26.7316L16.0874 26.7475L16.1009 26.8316H16.1861V26.7316ZM33.5651 26.7316V26.8316H33.6502L33.6638 26.7476L33.5651 26.7316ZM49.6006 24.7772V22.0307H49.4006V24.7772H49.6006ZM49.5281 24.8734L49.5285 24.8733L49.4728 24.6812L49.4723 24.6813L49.5281 24.8734ZM50.6002 25.9892C50.6002 25.3446 50.1352 24.8044 49.5201 24.6794L49.4803 24.8753C50.0058 24.9822 50.4002 25.4433 50.4002 25.9892H50.6002ZM50.6002 26.9768V25.9892H50.4002V26.9768H50.6002ZM49.5201 28.2886C50.1352 28.1635 50.6002 27.6253 50.6002 26.9768H50.4002C50.4002 27.5266 50.0058 27.9858 49.4803 28.0926L49.5201 28.2886ZM49.6002 28.2157V28.1906H49.4002V28.2157H49.6002ZM42.9357 28.3157H49.5002V28.1157H42.9357V28.3157ZM38.2501 32.2741C40.6628 32.2741 42.6633 30.5199 43.0344 28.2318L42.837 28.1997C42.4815 30.3917 40.5641 32.0741 38.2501 32.0741V32.2741ZM33.4678 28.2317C33.8369 30.5199 35.8375 32.2741 38.2501 32.2741V32.0741C35.9362 32.0741 34.0188 30.3917 33.6653 28.1998L33.4678 28.2317ZM16.1855 28.3157H33.5666V28.1157H16.1855V28.3157ZM11.5 32.2741C13.9127 32.2741 15.9132 30.5199 16.2843 28.2318L16.0868 28.1997C15.7313 30.3917 13.8139 32.0741 11.5 32.0741V32.2741ZM6.71573 28.2317C7.08483 30.518 9.08733 32.2741 11.5 32.2741V32.0741C9.18607 32.0741 7.26673 30.3898 6.91317 28.1998L6.71573 28.2317ZM3 28.3157H6.81445V28.1157H3V28.3157ZM2.25221 28.3177L3.00026 28.3157L2.99974 28.1157L2.25169 28.1177L2.25221 28.3177ZM0.9 26.9788C0.9 27.7171 1.50621 28.3177 2.25195 28.3177V28.1177C1.61489 28.1177 1.1 27.6049 1.1 26.9788H0.9ZM0.9 25.9911V26.9788H1.1V25.9911H0.9ZM2.25195 24.6522C1.50836 24.6522 0.9 25.2506 0.9 25.9911H1.1C1.1 25.3632 1.61664 24.8522 2.25195 24.8522V24.6522ZM3 24.6522H2.25195V24.8522H3V24.6522ZM2.9 13.6214V24.7522H3.1V13.6214H2.9ZM9.252 7.3345C5.75051 7.3345 2.9 10.1538 2.9 13.6214H3.1C3.1 10.2662 5.85899 7.5345 9.252 7.5345V7.3345ZM15.0214 7.33063L9.25193 7.3345L9.25207 7.5345L15.0216 7.53063L15.0214 7.33063ZM14.9215 5.45725V7.43063H15.1215V5.45725H14.9215ZM2.14866 2.33732C2.55243 2.73689 3.18133 3.0995 3.98408 3.42816C4.78844 3.75748 5.77483 4.0557 6.90029 4.3229C9.15132 4.85733 11.9668 5.26957 15.0121 5.55681L15.0309 5.3577C11.9907 5.07093 9.18521 4.65981 6.94649 4.12831C5.82709 3.86255 4.85142 3.56716 4.05986 3.24307C3.26671 2.91834 2.66584 2.56774 2.28934 2.19516L2.14866 2.33732ZM1.99584 1.35167C1.82281 1.67875 1.88496 2.07858 2.14896 2.33762L2.28904 2.19486C2.0882 1.9978 2.04097 1.69407 2.17263 1.44519L1.99584 1.35167ZM2.89874 0.913434C2.53154 0.847763 2.16859 1.02731 1.99597 1.35142L2.1725 1.44544C2.30458 1.19743 2.58229 1.06001 2.86353 1.11031L2.89874 0.913434ZM22.5061 1.9111C15.594 1.9111 7.86479 1.79292 2.89857 0.913404L2.8637 1.11034C7.85048 1.99349 15.5982 2.1111 22.5061 2.1111V1.9111ZM26.8046 1.90144C25.418 1.90724 23.9747 1.9111 22.5061 1.9111V2.1111C23.9751 2.1111 25.4186 2.10724 26.8054 2.10144L26.8046 1.90144ZM27.8511 1.89799C27.5062 1.89918 27.1573 1.90038 26.8047 1.90144L26.8053 2.10144C27.1579 2.10038 27.5069 2.09918 27.8518 2.09799L27.8511 1.89799ZM27.8511 1.89799L27.851 1.89799L27.8518 2.09799L27.8519 2.09799L27.8511 1.89799ZM27.8512 1.89799L27.8511 1.89799L27.8519 2.09799L27.852 2.09799L27.8512 1.89799ZM27.8513 1.89799L27.8512 1.89799L27.852 2.09799L27.8521 2.09799L27.8513 1.89799ZM27.8517 1.89799L27.8514 1.89799L27.8521 2.09799L27.8524 2.09798L27.8517 1.89799ZM27.852 1.89798L27.8517 1.89799L27.8524 2.09798L27.8526 2.09798L27.852 1.89798ZM27.852 1.89798L27.8519 1.89798L27.8527 2.09798L27.8528 2.09798L27.852 1.89798ZM30.5003 1.89178C29.651 1.89178 28.7657 1.89483 27.852 1.89798L27.8527 2.09798C28.7664 2.09483 29.6514 2.09178 30.5003 2.09178V1.89178ZM36.9378 1.89371L30.5003 1.89178L30.5003 2.09178L36.9378 2.09371L36.9378 1.89371ZM36.9397 1.89371H36.9378V2.09371H36.9397V1.89371ZM47.4564 1.69668C43.9784 1.86471 41.2967 1.89371 36.9397 1.89371V2.09371C41.2978 2.09371 43.9832 2.06471 47.4661 1.89645L47.4564 1.69668ZM48.3151 2.30604C48.2061 1.92954 47.8451 1.68135 47.4573 1.69664L47.4652 1.89649C47.7649 1.88466 48.0406 2.07716 48.123 2.36167L48.3151 2.30604ZM47.9141 3.27366C48.2573 3.08303 48.4239 2.68168 48.3151 2.30605L48.123 2.36167C48.2056 2.64707 48.0792 2.95314 47.817 3.09882L47.9141 3.27366ZM46.0291 4.05835C46.7733 3.8174 47.4047 3.55608 47.914 3.27369L47.817 3.09878C47.3224 3.37304 46.7038 3.62968 45.9675 3.86807L46.0291 4.05835ZM46.0983 5.465V3.96321H45.8983V5.465H46.0983ZM45.0801 7.10261C45.7171 6.78435 46.0983 6.17207 46.0983 5.465H45.8983C45.8983 6.09545 45.5607 6.63893 44.9907 6.9237L45.0801 7.10261ZM44.2425 7.3045C44.5261 7.3045 44.8109 7.23685 45.08 7.10265L44.9908 6.92366C44.7483 7.04458 44.494 7.1045 44.2425 7.1045V7.3045ZM43.1461 6.93907C43.4756 7.18156 43.8576 7.3045 44.2425 7.3045V7.1045C43.9008 7.1045 43.5602 6.9955 43.2646 6.77799L43.1461 6.93907ZM40.7263 5.16294L43.1462 6.93914L43.2645 6.77792L40.8446 5.00171L40.7263 5.16294ZM29.5028 6.00954C33.8921 5.90898 37.7126 5.6266 40.7997 5.1813L40.7712 4.98335C37.6944 5.42716 33.8823 5.70915 29.4982 5.8096L29.5028 6.00954ZM29.6005 7.43645V5.90957H29.4005V7.43645H29.6005ZM34.7484 7.33451L29.5004 7.33645L29.5005 7.53645L34.7485 7.53451L34.7484 7.33451ZM43.7131 10.3233C41.2198 8.44951 38.1149 7.33451 34.7485 7.33451V7.53451C38.07 7.53451 41.133 8.6345 43.5929 10.4832L43.7131 10.3233ZM43.9192 10.4826L43.7141 10.3241L43.5918 10.4824L43.7969 10.6409L43.9192 10.4826ZM48.6114 16.7663C47.6418 14.2732 46.0057 12.1074 43.9195 10.4829L43.7966 10.6406C45.8549 12.2435 47.4688 14.3801 48.425 16.8388L48.6114 16.7663ZM48.6133 16.7691L48.6075 16.7575L48.4289 16.8477L48.4348 16.8593L48.6133 16.7691ZM48.6301 16.8086L48.6164 16.7757L48.4317 16.8526L48.4454 16.8854L48.6301 16.8086ZM48.6736 16.9225C48.6589 16.8854 48.6449 16.8499 48.632 16.8136L48.4435 16.8805C48.4578 16.9207 48.4731 16.9595 48.4877 16.9962L48.6736 16.9225ZM48.6735 16.9224L48.6735 16.9222L48.4878 16.9965L48.4879 16.9966L48.6735 16.9224ZM48.674 16.9235L48.674 16.9234L48.4874 16.9956L48.4875 16.9957L48.674 16.9235ZM48.6736 16.9226L48.6736 16.9224L48.4879 16.9967L48.4879 16.9969L48.6736 16.9226ZM48.6741 16.9237L48.674 16.9236L48.4875 16.9958L48.4876 16.9959L48.6741 16.9237ZM48.6737 16.9228L48.6737 16.9227L48.488 16.997L48.488 16.9971L48.6737 16.9228ZM48.7118 17.0215C48.6995 16.9878 48.6864 16.9548 48.6739 16.9231L48.4879 16.9968C48.5006 17.0289 48.5127 17.0594 48.5239 17.09L48.7118 17.0215ZM49.0098 17.7868L48.711 17.0195L48.5246 17.092L48.8235 17.8594L49.0098 17.7868ZM48.8737 17.9231H48.9166V17.7231H48.8737V17.9231ZM49.6006 22.0307C49.6006 20.5594 49.3784 19.1368 48.9693 17.7939L48.778 17.8522C49.1815 19.1766 49.4006 20.5797 49.4006 22.0307H49.6006ZM46.6823 16.2405H35.7508V16.4405H46.6823V16.2405ZM46.6825 16.2405H46.6823V16.4405H46.6825V16.2405ZM43.0668 11.9651C44.5575 13.1736 45.7593 14.6833 46.5927 16.3845L46.7723 16.2965C45.9261 14.5691 44.7059 13.0365 43.1928 11.8097L43.0668 11.9651ZM35.7508 11.9874H43.1298V11.7874H35.7508V11.9874ZM35.6008 12.1348C35.6008 12.0577 35.6702 11.9874 35.7508 11.9874V11.7874C35.5618 11.7874 35.4008 11.9452 35.4008 12.1348H35.6008ZM35.6008 16.0931V12.1348H35.4008V16.0931H35.6008ZM35.7508 16.2405C35.6702 16.2405 35.6008 16.1703 35.6008 16.0931H35.4008C35.4008 16.2827 35.5618 16.4405 35.7508 16.4405V16.2405ZM44.4063 5.77691C44.4666 5.74708 44.5168 5.70557 44.5514 5.64991C44.586 5.59424 44.6006 5.53118 44.6006 5.46501H44.4006C44.4006 5.50127 44.3928 5.52615 44.3815 5.54442C44.3702 5.56268 44.3511 5.58109 44.3176 5.59765L44.4063 5.77691ZM44.0409 5.74461C44.0944 5.78395 44.1534 5.81005 44.2185 5.81587C44.2837 5.8217 44.3465 5.80648 44.4063 5.77691L44.3176 5.59765C44.2836 5.61446 44.2576 5.61857 44.2363 5.61667C44.215 5.61476 44.1901 5.60607 44.1595 5.58356L44.0409 5.74461ZM42.7833 4.82279L44.0411 5.74474L44.1594 5.58343L42.9016 4.66149L42.7833 4.82279ZM44.477 4.28742C43.9631 4.41262 43.412 4.5321 42.8238 4.6439L42.8611 4.84038C43.4525 4.72798 44.007 4.60779 44.5243 4.48173L44.477 4.28742ZM44.6006 5.46501L44.6006 4.38457L44.4006 4.38457L44.4006 5.46501L44.6006 5.46501ZM25.8416 3.59065L25.8418 3.59065L25.841 3.39065L25.8408 3.39065L25.8416 3.59065ZM22.5086 3.59742C23.64 3.59742 24.7552 3.59399 25.8415 3.59065L25.8409 3.39065C24.7545 3.39399 23.6396 3.39742 22.5086 3.39742V3.59742ZM22.5 3.39779L22.4996 3.39783L22.5177 3.59701L22.5181 3.59697L22.5 3.39779ZM9.0807 3.27827C13.2852 3.54714 18.0693 3.59738 22.5091 3.59738V3.39738C18.0699 3.39738 13.2912 3.34711 9.09346 3.07867L9.0807 3.27827ZM25.7511 4.36572C18.9296 4.36572 13.133 3.83259 9.10544 3.08017L9.06871 3.27677C13.1112 4.03198 18.9206 4.56572 25.7511 4.56572V4.36572ZM41.4772 3.3639C37.5019 4.00252 32.021 4.36572 25.7511 4.36572V4.56572C32.0271 4.56572 37.5195 4.20227 41.5089 3.56136L41.4772 3.3639ZM36.9423 3.58389C38.669 3.58389 40.1362 3.57809 41.4942 3.56262L41.4919 3.36264C40.135 3.37809 38.6686 3.38389 36.9423 3.38389V3.58389ZM36.9403 3.58389H36.9423V3.38389H36.9403V3.58389ZM30.5007 3.57809L36.9402 3.58389L36.9404 3.38389L30.5009 3.37809L30.5007 3.57809ZM26.8118 3.58775C28.0969 3.58196 29.3331 3.57809 30.5008 3.57809V3.37809C29.3327 3.37809 28.0962 3.38196 26.8109 3.38776L26.8118 3.58775ZM25.8417 3.59065L26.8117 3.58776L26.8111 3.38776L25.8411 3.39065L25.8417 3.59065ZM25.7506 5.85013C22.7102 5.85013 19.537 5.72846 16.53 5.49095L16.5143 5.69032C19.5267 5.92827 22.7051 6.05013 25.7506 6.05013V5.85013ZM27.9993 5.83468C27.2633 5.84434 26.5138 5.85013 25.7506 5.85013V6.05013C26.5148 6.05013 27.2652 6.04433 28.0019 6.03466L27.9993 5.83468ZM28.1006 7.43448V5.93467H27.9006V7.43448H28.1006ZM16.5221 7.53448H28.0006V7.33448H16.5221V7.53448ZM16.4221 5.59064V7.43448H16.6221V5.59064H16.4221ZM11.5006 30.5899C9.76191 30.5899 8.35063 29.1918 8.35063 27.4738H8.15063C8.15063 29.3043 9.65344 30.7899 11.5006 30.7899V30.5899ZM14.6506 27.4738C14.6506 29.1918 13.2393 30.5899 11.5006 30.5899V30.7899C13.3478 30.7899 14.8506 29.3043 14.8506 27.4738H14.6506ZM11.5006 24.3576C13.2393 24.3576 14.6506 25.7557 14.6506 27.4738H14.8506C14.8506 25.6433 13.3478 24.1576 11.5006 24.1576V24.3576ZM8.35063 27.4738C8.35063 25.7557 9.76191 24.3576 11.5006 24.3576V24.1576C9.65344 24.1576 8.15063 25.6433 8.15063 27.4738H8.35063ZM34.9006 27.4738C34.9006 29.3043 36.4034 30.7899 38.2506 30.7899V30.5899C36.5119 30.5899 35.1006 29.1918 35.1006 27.4738H34.9006ZM38.2506 24.1576C36.4034 24.1576 34.9006 25.6433 34.9006 27.4738H35.1006C35.1006 25.7557 36.5119 24.3576 38.2506 24.3576V24.1576ZM41.6006 27.4738C41.6006 25.6433 40.0978 24.1576 38.2506 24.1576V24.3576C39.9893 24.3576 41.4006 25.7557 41.4006 27.4738H41.6006ZM38.2506 30.7899C40.0978 30.7899 41.6006 29.3043 41.6006 27.4738H41.4006C41.4006 29.1918 39.9893 30.5899 38.2506 30.5899V30.7899ZM43.0349 26.7157C42.6658 24.4274 40.6633 22.6733 38.2506 22.6733V22.8733C40.5646 22.8733 42.4839 24.5557 42.8375 26.7475L43.0349 26.7157ZM49.0006 26.6316H42.9362V26.8316H49.0006V26.6316ZM48.9006 26.2368V26.7316H49.1006V26.2368H48.9006ZM44.5006 26.3368H49.0006V26.1368H44.5006V26.3368ZM44.4006 24.7524V26.2368H44.6006V24.7524H44.4006ZM48.0006 24.6524H44.5006V24.8524H48.0006V24.6524ZM47.9006 22.033V24.7524H48.1006V22.033H47.9006ZM47.2029 17.8578C47.6526 19.1697 47.9006 20.5716 47.9006 22.033H48.1006C48.1006 20.5488 47.8487 19.125 47.3921 17.7929L47.2029 17.8578ZM35.7505 17.9253H47.2975V17.7253H35.7505V17.9253ZM33.9005 16.0936C33.9005 17.1046 34.7314 17.9253 35.7505 17.9253V17.7253C34.8399 17.7253 34.1005 16.9922 34.1005 16.0936H33.9005ZM33.9005 12.1352V16.0936H34.1005V12.1352H33.9005ZM35.7505 10.3035C34.7314 10.3035 33.9005 11.1242 33.9005 12.1352H34.1005C34.1005 11.2367 34.8399 10.5035 35.7505 10.5035V10.3035ZM40.862 10.3035H35.7505V10.5035H40.862V10.3035ZM34.7485 9.0191C36.9351 9.0191 38.9995 9.55426 40.8161 10.4923L40.9079 10.3146C39.0638 9.36239 36.9681 8.8191 34.7485 8.8191V9.0191ZM9.25248 9.0191H34.7485V8.8191H9.25248V9.0191ZM4.60053 13.6215C4.60053 11.0859 6.68564 9.0191 9.25248 9.0191V8.8191C6.57711 8.8191 4.40053 10.9735 4.40053 13.6215H4.60053ZM4.60053 16.341V13.6215H4.40053V16.341H4.60053ZM12.0355 16.241H4.50053V16.441H12.0355V16.241ZM12.1355 17.8253V16.341H11.9355V17.8253H12.1355ZM4.50053 17.9253H12.0355V17.7253H4.50053V17.9253ZM4.60053 24.7524V17.8253H4.40053V24.7524H4.60053ZM5.50053 24.6524H4.50053V24.8524H5.50053V24.6524ZM5.60053 26.2368V24.7524H5.40053V26.2368H5.60053ZM2.50053 26.3368H5.50053V26.1368H2.50053V26.3368ZM2.60053 26.7316V26.2368H2.40053V26.7316H2.60053ZM6.81498 26.6316H2.50053V26.8316H6.81498V26.6316ZM11.5005 22.6733C9.08783 22.6733 7.08736 24.4274 6.71627 26.7156L6.91369 26.7476C7.26919 24.5556 9.18662 22.8733 11.5005 22.8733V22.6733ZM16.2848 26.7157C15.9157 24.4274 13.9132 22.6733 11.5005 22.6733V22.8733C13.8145 22.8733 15.7338 24.5557 16.0874 26.7475L16.2848 26.7157ZM33.5651 26.6316H16.1861V26.8316H33.5651V26.6316ZM38.2506 22.6733C35.8379 22.6733 33.8375 24.4274 33.4664 26.7156L33.6638 26.7476C34.0193 24.5556 35.9367 22.8733 38.2506 22.8733V22.6733Z" fill="white"/>
<path fill-rule="evenodd" clip-rule="evenodd" d="M23.5006 12.1348V16.0932C23.5006 17.048 22.7155 17.825 21.7506 17.825H16.7506C15.7858 17.825 15.0006 17.048 15.0006 16.0932V12.1348C15.0006 11.18 15.7858 10.4031 16.7506 10.4031H21.7506C22.7155 10.4031 23.5006 11.18 23.5006 12.1348ZM16.5006 12.1348V16.0932C16.5006 16.2285 16.6158 16.3406 16.7506 16.3406H21.7506C21.8854 16.3406 22.0006 16.2265 22.0006 16.0932V12.1348C22.0006 12.0015 21.8854 11.8875 21.7506 11.8875H16.7506C16.6158 11.8875 16.5006 12.0015 16.5006 12.1348Z" fill="white"/>
<path d="M23.6006 16.0932V12.1348H23.4006V16.0932H23.6006ZM21.7506 17.925C22.7697 17.925 23.6006 17.1042 23.6006 16.0932H23.4006C23.4006 16.9918 22.6612 17.725 21.7506 17.725V17.925ZM16.7506 17.925H21.7506V17.725H16.7506V17.925ZM14.9006 16.0932C14.9006 17.1042 15.7315 17.925 16.7506 17.925V17.725C15.84 17.725 15.1006 16.9918 15.1006 16.0932H14.9006ZM14.9006 12.1348V16.0932H15.1006V12.1348H14.9006ZM16.7506 10.3031C15.7315 10.3031 14.9006 11.1238 14.9006 12.1348H15.1006C15.1006 11.2363 15.84 10.5031 16.7506 10.5031V10.3031ZM21.7506 10.3031H16.7506V10.5031H21.7506V10.3031ZM23.6006 12.1348C23.6006 11.1238 22.7697 10.3031 21.7506 10.3031V10.5031C22.6612 10.5031 23.4006 11.2363 23.4006 12.1348H23.6006ZM16.6006 16.0932V12.1348H16.4006V16.0932H16.6006ZM16.7506 16.2406C16.6696 16.2406 16.6006 16.1718 16.6006 16.0932H16.4006C16.4006 16.2852 16.5621 16.4406 16.7506 16.4406V16.2406ZM21.7506 16.2406H16.7506V16.4406H21.7506V16.2406ZM21.9006 16.0932C21.9006 16.1703 21.8311 16.2406 21.7506 16.2406V16.4406C21.9396 16.4406 22.1006 16.2828 22.1006 16.0932H21.9006ZM21.9006 12.1348V16.0932H22.1006V12.1348H21.9006ZM21.7506 11.9875C21.8311 11.9875 21.9006 12.0577 21.9006 12.1348H22.1006C22.1006 11.9453 21.9396 11.7875 21.7506 11.7875V11.9875ZM16.7506 11.9875H21.7506V11.7875H16.7506V11.9875ZM16.6006 12.1348C16.6006 12.0577 16.6701 11.9875 16.7506 11.9875V11.7875C16.5616 11.7875 16.4006 11.9453 16.4006 12.1348H16.6006Z" fill="white"/>
<path fill-rule="evenodd" clip-rule="evenodd" d="M26.2506 10.4031H31.2506C32.2155 10.4031 33.0006 11.18 33.0006 12.1348V16.0932C33.0006 17.048 32.2155 17.825 31.2506 17.825H26.2506C25.2858 17.825 24.5006 17.048 24.5006 16.0932V12.1348C24.5006 11.18 25.2858 10.4031 26.2506 10.4031ZM31.2506 16.3406C31.3854 16.3406 31.5006 16.2265 31.5006 16.0932V12.1348C31.5006 12.0015 31.3854 11.8875 31.2506 11.8875H26.2506C26.1158 11.8875 26.0006 12.0015 26.0006 12.1348V16.0932C26.0006 16.2265 26.1158 16.3406 26.2506 16.3406H31.2506Z" fill="white"/>
<path d="M31.2506 10.3031H26.2506V10.5031H31.2506V10.3031ZM33.1006 12.1348C33.1006 11.1238 32.2697 10.3031 31.2506 10.3031V10.5031C32.1612 10.5031 32.9006 11.2363 32.9006 12.1348H33.1006ZM33.1006 16.0932V12.1348H32.9006V16.0932H33.1006ZM31.2506 17.925C32.2697 17.925 33.1006 17.1042 33.1006 16.0932H32.9006C32.9006 16.9918 32.1612 17.725 31.2506 17.725V17.925ZM26.2506 17.925H31.2506V17.725H26.2506V17.925ZM24.4006 16.0932C24.4006 17.1042 25.2315 17.925 26.2506 17.925V17.725C25.34 17.725 24.6006 16.9918 24.6006 16.0932H24.4006ZM24.4006 12.1348V16.0932H24.6006V12.1348H24.4006ZM26.2506 10.3031C25.2315 10.3031 24.4006 11.1238 24.4006 12.1348H24.6006C24.6006 11.2363 25.34 10.5031 26.2506 10.5031V10.3031ZM31.4006 16.0932C31.4006 16.1703 31.3311 16.2406 31.2506 16.2406V16.4406C31.4396 16.4406 31.6006 16.2828 31.6006 16.0932H31.4006ZM31.4006 12.1348V16.0932H31.6006V12.1348H31.4006ZM31.2506 11.9875C31.3311 11.9875 31.4006 12.0577 31.4006 12.1348H31.6006C31.6006 11.9453 31.4396 11.7875 31.2506 11.7875V11.9875ZM26.2506 11.9875H31.2506V11.7875H26.2506V11.9875ZM26.1006 12.1348C26.1006 12.0577 26.1701 11.9875 26.2506 11.9875V11.7875C26.0616 11.7875 25.9006 11.9453 25.9006 12.1348H26.1006ZM26.1006 16.0932V12.1348H25.9006V16.0932H26.1006ZM26.2506 16.2406C26.1701 16.2406 26.1006 16.1703 26.1006 16.0932H25.9006C25.9006 16.2828 26.0616 16.4406 26.2506 16.4406V16.2406ZM31.2506 16.2406H26.2506V16.4406H31.2506V16.2406Z" fill="white"/>
<path fill-rule="evenodd" clip-rule="evenodd" d="M36.2506 27.4733C36.2506 26.3813 37.1471 25.4941 38.2506 25.4941C39.3541 25.4941 40.2506 26.3832 40.2506 27.4733C40.2506 28.5653 39.3541 29.4525 38.2506 29.4525C37.1471 29.4525 36.2506 28.5653 36.2506 27.4733ZM37.7506 27.4733C37.7506 27.7458 37.9752 27.9681 38.2506 27.9681C38.526 27.9681 38.7506 27.7458 38.7506 27.4733C38.7506 27.2008 38.526 26.9785 38.2506 26.9785C37.9752 26.9785 37.7506 27.2008 37.7506 27.4733Z" fill="white"/>
<path d="M38.2506 25.3941C37.0929 25.3941 36.1506 26.3251 36.1506 27.4733H36.3506C36.3506 26.4375 37.2013 25.5941 38.2506 25.5941V25.3941ZM40.3506 27.4733C40.3506 26.3271 39.4084 25.3941 38.2506 25.3941V25.5941C39.2998 25.5941 40.1506 26.4394 40.1506 27.4733H40.3506ZM38.2506 29.5525C39.4083 29.5525 40.3506 28.6215 40.3506 27.4733H40.1506C40.1506 28.5091 39.2999 29.3525 38.2506 29.3525V29.5525ZM36.1506 27.4733C36.1506 28.6215 37.0929 29.5525 38.2506 29.5525V29.3525C37.2013 29.3525 36.3506 28.5091 36.3506 27.4733H36.1506ZM38.2506 27.8681C38.0295 27.8681 37.8506 27.6896 37.8506 27.4733H37.6506C37.6506 27.802 37.921 28.0681 38.2506 28.0681V27.8681ZM38.6506 27.4733C38.6506 27.6896 38.4718 27.8681 38.2506 27.8681V28.0681C38.5802 28.0681 38.8506 27.802 38.8506 27.4733H38.6506ZM38.2506 27.0785C38.4718 27.0785 38.6506 27.257 38.6506 27.4733H38.8506C38.8506 27.1446 38.5802 26.8785 38.2506 26.8785V27.0785ZM37.8506 27.4733C37.8506 27.257 38.0295 27.0785 38.2506 27.0785V26.8785C37.921 26.8785 37.6506 27.1446 37.6506 27.4733H37.8506Z" fill="white"/>
<path fill-rule="evenodd" clip-rule="evenodd" d="M9.50061 27.4733C9.50061 26.3813 10.3971 25.4941 11.5006 25.4941C12.6041 25.4941 13.5006 26.3832 13.5006 27.4733C13.5006 28.5653 12.6041 29.4525 11.5006 29.4525C10.3971 29.4525 9.50061 28.5634 9.50061 27.4733ZM11.0006 27.4733C11.0006 27.7458 11.2252 27.9681 11.5006 27.9681C11.776 27.9681 12.0006 27.7458 12.0006 27.4733C12.0006 27.2008 11.776 26.9785 11.5006 26.9785C11.2252 26.9785 11.0006 27.2008 11.0006 27.4733Z" fill="white"/>
<path d="M11.5006 25.3941C10.3429 25.3941 9.40061 26.3251 9.40061 27.4733H9.60061C9.60061 26.4375 10.4513 25.5941 11.5006 25.5941V25.3941ZM13.6006 27.4733C13.6006 26.3271 12.6584 25.3941 11.5006 25.3941V25.5941C12.5498 25.5941 13.4006 26.4394 13.4006 27.4733H13.6006ZM11.5006 29.5525C12.6583 29.5525 13.6006 28.6215 13.6006 27.4733H13.4006C13.4006 28.5091 12.5499 29.3525 11.5006 29.3525V29.5525ZM9.40061 27.4733C9.40061 28.6195 10.3428 29.5525 11.5006 29.5525V29.3525C10.4514 29.3525 9.60061 28.5072 9.60061 27.4733H9.40061ZM11.5006 27.8681C11.2795 27.8681 11.1006 27.6896 11.1006 27.4733H10.9006C10.9006 27.802 11.171 28.0681 11.5006 28.0681V27.8681ZM11.9006 27.4733C11.9006 27.6896 11.7218 27.8681 11.5006 27.8681V28.0681C11.8302 28.0681 12.1006 27.802 12.1006 27.4733H11.9006ZM11.5006 27.0785C11.7218 27.0785 11.9006 27.257 11.9006 27.4733H12.1006C12.1006 27.1446 11.8302 26.8785 11.5006 26.8785V27.0785ZM11.1006 27.4733C11.1006 27.257 11.2795 27.0785 11.5006 27.0785V26.8785C11.171 26.8785 10.9006 27.1446 10.9006 27.4733H11.1006Z" fill="white"/>
<path d="M17.0006 24.752H32.5006V26.2363H17.0006V24.752Z" fill="white" stroke="white" stroke-width="0.2"/>
</svg>
