<svg id="POI" width="11" height="14" viewBox="0 0 11 14" fill="none" xmlns="http://www.w3.org/2000/svg">
<path fill-rule="evenodd" clip-rule="evenodd" d="M5.43371 0.294922C6.65895 0.294922 7.84855 0.708648 8.78651 1.45998V1.45995C10.0117 2.4408 10.7324 3.83545 10.8196 5.38601C10.903 6.91686 10.3309 8.41462 9.25058 9.49498L5.66929 13.0294C5.53057 13.1669 5.28996 13.1657 5.15123 13.0282L1.62054 9.49752C0.537732 8.41471 -0.0355973 6.91573 0.0491121 5.38604C0.135038 3.83554 0.856921 2.4409 2.08091 1.45998C3.01763 0.708648 4.20849 0.294922 5.43371 0.294922ZM3.02747 5.68454C3.02747 7.01165 4.10657 8.09078 5.43371 8.09078C6.76081 8.09078 7.84117 7.01168 7.83994 5.68454C7.83994 4.35744 6.76084 3.27831 5.43371 3.27831C4.1066 3.27831 3.02747 4.35741 3.02747 5.68454Z" fill="white"/>
<path d="M5.43373 4.51172C4.78675 4.51172 4.26129 5.03717 4.26129 5.68416C4.26129 6.33115 4.78675 6.8566 5.43373 6.8566C6.08072 6.8566 6.60618 6.33115 6.60618 5.68416C6.60618 5.03717 6.08072 4.51172 5.43373 4.51172Z" fill="white"/>
</svg>
